<?xml version="1.0" standalone="no"?>
<!DOCTYPE svg PUBLIC "-//W3C//DTD SVG 1.1//EN" "http://www.w3.org/Graphics/SVG/1.1/DTD/svg11.dtd" >
<svg>
<metadata>
Created by FontForge 20090914 at Sat Jun 19 16:52:43 2021
 By www-data
Copyright &#194;&#169; 2011 By Svetoslav Simov &#194;&#169; Fontfabric, LLC. All rights reserved.
</metadata>
<defs>
<font id="SolomonSans-Thin" horiz-adv-x="560" >
  <font-face 
    font-family="Solomon Sans Thin"
    font-weight="100"
    font-stretch="normal"
    units-per-em="1000"
    panose-1="2 0 0 0 0 0 0 0 0 0"
    ascent="750"
    descent="-250"
    x-height="506.999"
    cap-height="700"
    bbox="-100 -202.004 1676 872"
    underline-thickness="50"
    underline-position="-100"
    unicode-range="U+0020-U+FB04"
  />
<missing-glyph horiz-adv-x="611" 
d="M68 0h474v699h-474v-699zM90 27v645l202 -322zM108 21l197 313l196 -313h-393zM305 366l-195 313h390zM318 350l203 326v-653z" />
    <glyph glyph-name="uniFB00" unicode="ff" horiz-adv-x="584" 
d="M544 701v-19.998c-38 -0.666992 -65.833 -9 -83.5 -25s-26.5 -43.667 -26.5 -83v-66h106v-19h-106v-488h-22v488h-269v-488h-22v488h-56v19h56v66c0 25.333 3.33301 46.166 10 62.499s16 29.333 28 39s26 16.5 42 20.5s33.333 6 52 6v-20
c-38 -0.666992 -65.833 -9 -83.5 -25s-26.5 -43.667 -26.5 -83v-66h269v66c0 25.333 3.33301 46.166 10 62.499s16 29.333 28 39s26 16.5 42 20.5s33.333 6 52 6z" />
    <glyph glyph-name="uniFB01" unicode="fi" horiz-adv-x="503" 
d="M403 0l-22 0.000976562v486h-244v-486h-22v486h-56v21h56v66c0 25.333 3.33301 46.166 10 62.499s16 29.333 28 39s26 16.5 42 20.5s33.333 6 52 6v-20c-38 -0.666992 -65.833 -9 -83.5 -25s-26.5 -43.667 -26.5 -83v-66h266v-507zM407 700.001v-43h-28v43h28z" />
    <glyph glyph-name="uniFB02" unicode="fl" horiz-adv-x="521" 
d="M247 701v-19.999c-38 -0.666992 -65.833 -9 -83.5 -25s-26.5 -43.667 -26.5 -83v-66h106v-21h-106v-486h-22v486h-56v21h56v66c0 25.333 3.33301 46.166 10 62.499s16 29.333 28 39s26 16.5 42 20.5s33.333 6 52 6zM484 18.001l0.000976562 -19
c-34.667 0 -61.334 8.5 -80.001 25.5s-28 47.167 -28 90.5v585h22v-585c0 -34 6.66699 -58.667 20 -74s35.333 -23 66 -23z" />
    <glyph glyph-name="uniFB03" unicode="ffi" horiz-adv-x="800" 
d="M692 0l-22 0.00195312v488h-245v-488h-22v488h-264v-488h-22v488h-56v19h56v66c0 25.333 3.33301 46.166 10 62.499s16 29.333 28 39s26 16.5 42 20.5s33.333 6 52 6v-20c-38 -0.666992 -65.833 -9 -83.5 -25s-26.5 -43.667 -26.5 -83v-66h264v66
c0 25.333 3.33301 46.166 10 62.499s16 29.333 28 39s26 16.5 42 20.5s33.333 6 52 6v-20c-38 -0.666992 -65.833 -9 -83.5 -25s-26.5 -43.667 -26.5 -83v-66h267v-507zM696 700.002v-54h-28v54h28z" />
    <glyph glyph-name="uniFB04" unicode="ffl" horiz-adv-x="830" 
d="M538 701v-19.998c-38 -0.666992 -65.833 -9 -83.5 -25s-26.5 -43.667 -26.5 -83v-66h106v-19h-106v-488h-22v488h-269v-488h-22v488h-56v19h56v66c0 25.333 3.33301 46.166 10 62.499s16 29.333 28 39s26 16.5 42 20.5s33.333 6 52 6v-20
c-38 -0.666992 -65.833 -9 -83.5 -25s-26.5 -43.667 -26.5 -83v-66h269v66c0 25.333 3.33301 46.166 10 62.499s16 29.333 28 39s26 16.5 42 20.5s33.333 6 52 6zM786 18.002l0.000976562 -19c-34.667 0 -61.334 8.5 -80.001 25.5s-28 47.167 -28 90.5v585h22v-585
c0 -34 6.66699 -58.667 20 -74s35.333 -23 66 -23z" />
    <glyph glyph-name="f_j" unicode="fj" horiz-adv-x="543" 
d="M309 -201v20.001c37.333 0 63.833 9.5 79.5 28.5s23.5 44.5 23.5 76.5v564h-263v-488h-22v488h-56v19h56v66c0 25.333 3.33301 46.166 10 62.499s16 29.333 28 39s26 16.5 42 20.5s33.333 6 52 6v-20c-38 -0.666992 -65.833 -9 -83.5 -25s-26.5 -43.667 -26.5 -83v-66
h285v-583c0 -40 -10.833 -70.833 -32.5 -92.5s-52.5 -32.5 -92.5 -32.5zM432 703.001v-89h-21v89h21z" />
    <glyph glyph-name=".notdef" horiz-adv-x="611" 
d="M68 0h474v699h-474v-699zM90 27v645l202 -322zM108 21l197 313l196 -313h-393zM305 366l-195 313h390zM318 350l203 326v-653z" />
    <glyph glyph-name="uni0020" unicode=" " horiz-adv-x="281" 
 />
    <glyph glyph-name="uni0021" unicode="!" horiz-adv-x="319" 
d="M174 -2v47h-26v-47h26zM171 149v551h-21v-551h21z" />
    <glyph glyph-name="uni0022" unicode="&#x22;" horiz-adv-x="301" 
d="M86 525h20v175h-20v-175zM187 525h20v175h-20v-175z" />
    <glyph glyph-name="uni0023" unicode="#" horiz-adv-x="569" 
d="M502 470h-94l38 231h-19l-38 -231h-181l38 231h-20l-38 -231h-105v-16h102l-32 -202h-104v-17h101l-39 -235h20l38 235h182l-39 -235h19l38 235h98v17h-95l33 202h97v16zM386 454l-32 -202h-182l33 202h181z" />
    <glyph glyph-name="uni0024" unicode="$" horiz-adv-x="559" 
d="M125 545c-0.666992 -27.333 4.16113 -50.4961 14.4941 -69.4961s23.5 -34.667 39.5 -47s33.333 -22.333 52 -30s36 -13.834 52 -18.501c22 -6.66699 44.333 -15.667 67 -27s43 -25.666 61 -42.999s32.333 -38.5 43 -63.5s15 -54.167 13 -87.5
c-1.33301 -27.333 -7.5 -51 -18.5 -71s-25 -36.833 -42 -50.5s-35.833 -24 -56.5 -31s-41.667 -11.167 -63 -12.5v-76h-17v75h-1c-39.333 0 -76.166 9.5 -110.499 28.5s-61.166 48.167 -80.499 87.5l19 11c18 -36 42.5 -62.333 73.5 -79s63.833 -25.334 98.5 -26.001
c50 -0.666992 91.167 11.833 123.5 37.5s49.833 61.834 52.5 108.501c1.33301 31.333 -3.16699 58.166 -13.5 80.499s-23.833 41.5 -40.5 57.5s-35.167 29 -55.5 39s-40.166 17.667 -59.499 23c-20 5.33301 -40.333 12.666 -61 21.999s-39.5 21.166 -56.5 35.499
s-30.667 31.833 -41 52.5s-15.166 45.334 -14.499 74.001c1.33301 26 6.83301 48.833 16.5 68.5s22.167 36.167 37.5 49.5s32.833 23.666 52.5 30.999s39.834 11.333 60.501 12v87h17v-86c32.667 -1.33301 62.667 -8.83301 90 -22.5s50.333 -36.167 69 -67.5l-19 -9
c-18.667 28.667 -39.5 48.834 -62.5 60.501s-51.5 17.5 -85.5 17.5c-18.667 0 -37 -2.66699 -55 -8s-34 -13.833 -48 -25.5s-25.667 -26.334 -35 -44.001s-14.666 -38.834 -15.999 -63.501z" />
    <glyph glyph-name="uni0025" unicode="%" horiz-adv-x="782" 
d="M690 138c0 -20 -3.83301 -38.667 -11.5 -56s-18 -32.5 -31 -45.5s-28.167 -23.333 -45.5 -31s-35.666 -11.5 -54.999 -11.5s-37.666 3.66699 -54.999 11s-32.5 17.5 -45.5 30.5s-23.333 28.167 -31 45.5s-11.5 36.333 -11.5 57s3.83301 39.834 11.5 57.501s18 33 31 46
s28.167 23.167 45.5 30.5s35.666 11 54.999 11s37.666 -3.66699 54.999 -11s32.5 -17.5 45.5 -30.5s23.333 -28.333 31 -46s11.5 -36.834 11.5 -57.501zM670 138c0 18 -3 34.667 -9 50s-14.5 28.666 -25.5 39.999s-24 20.166 -39 26.499s-31.5 9.5 -49.5 9.5
c-17.333 0 -33.5 -3.16699 -48.5 -9.5s-28 -15.166 -39 -26.499s-19.5 -24.666 -25.5 -39.999s-9 -32 -9 -50c0 -17.333 3 -33.5 9 -48.5s14.5 -28.167 25.5 -39.5s24 -20.333 39 -27s31.167 -10 48.5 -10c18 0 34.5 3.33301 49.5 10s28 15.667 39 27s19.5 24.5 25.5 39.5
s9 31.167 9 48.5zM596 716h24l-219.5 -363.5l-218.5 -363.5h-25l219.5 363zM368 560c0 -20 -3.83301 -38.667 -11.5 -56s-18 -32.5 -31 -45.5s-28.167 -23.333 -45.5 -31s-35.666 -11.5 -54.999 -11.5s-37.666 3.66699 -54.999 11s-32.5 17.5 -45.5 30.5
s-23.333 28.167 -31 45.5s-11.5 36.333 -11.5 57s3.83301 39.834 11.5 57.501s18 33 31 46s28.167 23.167 45.5 30.5s35.666 11 54.999 11s37.666 -3.66699 54.999 -11s32.5 -17.5 45.5 -30.5s23.333 -28.333 31 -46s11.5 -36.834 11.5 -57.501zM348 560
c0 18 -3 34.667 -9 50s-14.5 28.666 -25.5 39.999s-24 20.166 -39 26.499s-31.5 9.5 -49.5 9.5c-17.333 0 -33.5 -3.16699 -48.5 -9.5s-28 -15.166 -39 -26.499s-19.5 -24.666 -25.5 -39.999s-9 -32 -9 -50c0 -17.333 3 -33.5 9 -48.5s14.5 -28.167 25.5 -39.5
s24 -20.333 39 -27s31.167 -10 48.5 -10c18 0 34.5 3.33301 49.5 10s28 15.667 39 27s19.5 24.5 25.5 39.5s9 31.167 9 48.5z" />
    <glyph glyph-name="uni0026" unicode="&#x26;" horiz-adv-x="647" 
d="M272 382l192.004 -223.996l61 100l16 -9l-64 -105l113 -132h-22l-102 116c-30.667 -38.667 -61.5 -70.667 -92.5 -96s-66.167 -38 -105.5 -38c-24 0 -47.333 4.16699 -70 12.5s-42.834 20.333 -60.501 36s-31.667 34.667 -42 57s-15.5 47.166 -15.5 74.499
c0 18.667 3.16699 37.834 9.5 57.501s16 39 29 58s29.5 37.167 49.5 54.5s43.667 32.666 71 45.999l-30.5 37.5c-10.333 13 -19.5 26.5 -27.5 40.5s-14.667 28.333 -20 43s-8 30 -8 46c0 26 4.16699 48.5 12.5 67.5s19.166 34.5 32.499 46.5s28.666 21 45.999 27s35 9 53 9
c16.667 0 33.334 -2.83301 50.001 -8.5s31.5 -14.334 44.5 -26.001s23.667 -26.334 32 -44.001s12.5 -38.167 12.5 -61.5c0 -21.333 -4.83301 -41 -14.5 -59s-22.334 -34.5 -38.001 -49.5s-33.334 -28.833 -53.001 -41.5s-39.167 -24.334 -58.5 -35.001zM454.004 143.004
l-200.999 232.002c-20.667 -9.33301 -40.334 -21.5 -59.001 -36.5s-34.834 -31.333 -48.501 -49s-24.5 -36.5 -32.5 -56.5s-12 -39.667 -12 -59c0 -25.333 4.66699 -47.833 14 -67.5s22 -36.334 38 -50.001s34.167 -24 54.5 -31s41.5 -10.5 63.5 -10.5
c18 0 35.5 3.83301 52.5 11.5s33.333 17.5 49 29.5s30.334 25.667 44.001 41s26.167 30.666 37.5 45.999zM297.005 687.006c-38 0 -67.999 -11.833 -89.999 -35.5s-33 -54.834 -33 -93.501c0 -14 2.66699 -28.333 8 -43s12 -29 20 -43s17.167 -27.5 27.5 -40.5
s20.5 -25.167 30.5 -36.5c16 8 33 17.5 51 28.5s34.667 23.5 50 37.5s28.166 29.833 38.499 47.5s15.5 36.834 15.5 57.501c0 39.333 -11.333 69.333 -34 90s-50.667 31 -84 31z" />
    <glyph glyph-name="uni0027" unicode="'" horiz-adv-x="187" 
d="M79 520h20v182h-20v-182z" />
    <glyph glyph-name="uni0028" unicode="(" horiz-adv-x="390" 
d="M125 352c0 -42 5.33203 -84.3301 15.999 -126.997s26 -83.834 46 -123.501s44.167 -76.334 72.5 -110.001s59.833 -61.834 94.5 -84.501v-23c-37.333 22.667 -71.5 51.167 -102.5 85.5s-57.5 72 -79.5 113s-39.167 84.5 -51.5 130.5s-18.5 92.333 -18.5 139
c0 46 6 91.833 18 137.5s28.667 88.834 50 129.501s47 77.667 77 111s63.333 60.666 100 81.999v-21c-35.333 -23.333 -66.666 -51.833 -93.999 -85.5s-50.5 -70 -69.5 -109s-33.5 -79.5 -43.5 -121.5s-15 -83 -15 -123z" />
    <glyph glyph-name="uni0029" unicode=")" horiz-adv-x="389" 
d="M265 352c0 40 -5.00195 80.9971 -15.002 122.997s-24.5 82.5 -43.5 121.5s-42.167 75.333 -69.5 109s-58.666 62.167 -93.999 85.5v21c36.667 -21.333 70 -48.666 100 -81.999s55.833 -70.333 77.5 -111s38.334 -83.834 50.001 -129.501s17.5 -91.5 17.5 -137.5
c0 -46.667 -6.16699 -93 -18.5 -139s-29.5 -89.5 -51.5 -130.5s-48.5 -78.667 -79.5 -113s-65.167 -62.833 -102.5 -85.5v23c34.667 22.667 66.167 50.834 94.5 84.501s52.5 70.334 72.5 110.001s35.333 80.834 46 123.501s16 85 16 127z" />
    <glyph glyph-name="uni002A" unicode="*" horiz-adv-x="415" 
d="M371 577l-5 16l-144 -48l1 154h-17l1 -154l-139 47l-5 -16l140 -45l-96 -129l15 -9l92 127l95 -128l14 10l-96 129z" />
    <glyph glyph-name="uni002B" unicode="+" horiz-adv-x="608" 
d="M94 321h196v-206h21v206h195v20h-195v199h-21v-199h-196v-20z" />
    <glyph glyph-name="uni002C" unicode="," horiz-adv-x="225" 
d="M60 -112h19l61 155h-27z" />
    <glyph glyph-name="uni002D" unicode="-" horiz-adv-x="458" 
d="M106 302h246v22h-246v-22z" />
    <glyph glyph-name="uni002E" unicode="." horiz-adv-x="225" 
d="M133 0v45h-34v-45h34z" />
    <glyph glyph-name="uni002F" unicode="/" horiz-adv-x="404" 
d="M368 766h-21l-283 -820h22z" />
    <glyph glyph-name="uni0030" unicode="0" horiz-adv-x="610" 
d="M96 182l0.00292969 338.001c0 29.333 5.83301 55.666 17.5 78.999s27.167 43 46.5 59s41.666 28.167 66.999 36.5s51.666 12.5 78.999 12.5c26 0 51.667 -4 77 -12s47.666 -19.833 66.999 -35.5s35 -35.167 47 -58.5s18 -50.333 18 -81v-338
c0.666992 -30.667 -4.83301 -57.667 -16.5 -81s-27.5 -43 -47.5 -59s-43 -28.167 -69 -36.5s-53 -12.5 -81 -12.5c-26.667 0 -52.667 4.33301 -78 13s-47.5 21 -66.5 37s-34 35.667 -45 59s-16.167 50 -15.5 80zM117.003 520.001l-0.00292969 -338
c0 -28 5.5 -52.5 16.5 -73.5s25.333 -38.5 43 -52.5s37.834 -24.5 60.501 -31.5s45.667 -10.5 69 -10.5c22.667 0 45.167 3.5 67.5 10.5s42.5 17.5 60.5 31.5s32.5 31.5 43.5 52.5s16.5 45.5 16.5 73.5v338c0 27.333 -5.66699 51.5 -17 72.5s-26.166 38.5 -44.499 52.5
s-39 24.5 -62 31.5s-45.833 10.5 -68.5 10.5s-45.167 -3.66699 -67.5 -11s-42.166 -18 -59.499 -32s-31.333 -31.333 -42 -52s-16 -44.667 -16 -72z" />
    <glyph glyph-name="uni0031" unicode="1" horiz-adv-x="310" 
d="M155 685v-685h21v705h-99v-20h78z" />
    <glyph glyph-name="uni0032" unicode="2" horiz-adv-x="569" 
d="M277 684c-72 0 -125.667 -33.001 -161 -99.001l-10.5 6c-3.66699 2 -5.83398 3.33301 -6.50098 4c36.667 72.667 98.667 109 186 109c30.667 0 57.834 -4.83301 81.501 -14.5s43.5 -22.5 59.5 -38.5s28 -34.5 36 -55.5s12 -43.167 12 -66.5
c0 -27.333 -5.83301 -55 -17.5 -83s-29.167 -54.667 -52.5 -80l-300 -347h391v-19h-399l-16 21l155.5 181.5l155.5 180.5c19.333 21.333 34.333 44.833 45 70.5s16 50.834 16 75.501c0 26.667 -4.5 49.667 -13.5 69s-21.333 35.5 -37 48.5s-34.167 22.5 -55.5 28.5
s-44.333 9 -69 9z" />
    <glyph glyph-name="uni0033" unicode="3" horiz-adv-x="559" 
d="M77 104l16 10.9961c12.667 -20.667 26.167 -37.5 40.5 -50.5s29.166 -23.167 44.499 -30.5s30.666 -12.333 45.999 -15s30.333 -4 45 -4c20.667 0 41.5 3.83301 62.5 11.5s40.167 19.167 57.5 34.5s31.5 34.333 42.5 57s16.5 48.667 16.5 78
c0 24.667 -4.5 47.667 -13.5 69s-21.167 39.833 -36.5 55.5s-33 28 -53 37s-41 13.5 -63 13.5h-47v20h47c20 0 38.833 3.16699 56.5 9.5s33.334 15.5 47.001 27.5s24.5 27 32.5 45s12 38.333 12 61c0 26 -4.66699 48.5 -14 67.5s-21.666 34.833 -36.999 47.5
s-32.833 22.167 -52.5 28.5s-39.834 9.5 -60.501 9.5c-28 0 -56.333 -6.66699 -85 -20s-51.334 -32.666 -68.001 -57.999l-15 10c18 30 42.5 52.167 73.5 66.5s62.833 21.5 95.5 21.5c22.667 0 45 -3.66699 67 -11s41.667 -18.166 59 -32.499s31.333 -32.333 42 -54
s16 -46.834 16 -75.501c0 -12.667 -1.83301 -26.667 -5.5 -42s-9.66699 -30.166 -18 -44.499s-19.666 -27.5 -33.999 -39.5s-32.5 -21.333 -54.5 -28c24 -8 44.167 -18.833 60.5 -32.5s29.833 -29 40.5 -46s18.334 -34.667 23.001 -53s7 -36.166 7 -53.499
c0 -31.333 -6 -59.333 -18 -84s-27.5 -45.667 -46.5 -63s-40.5 -30.666 -64.5 -39.999s-48.333 -14 -73 -14c-40 0 -76 8.33301 -108 25s-59.667 45 -83 85z" />
    <glyph glyph-name="uni0034" unicode="4" horiz-adv-x="542" 
d="M415 701h-35l-331 -513l14 -21h331v-167h21v167h62v20h-62v514zM394 187h-323l323 499v-499z" />
    <glyph glyph-name="uni0035" unicode="5" horiz-adv-x="582" 
d="M86 97l15.001 13.001c21.333 -31.333 48.5 -55.166 81.5 -71.499s67.167 -24.5 102.5 -24.5c33.333 0 62.666 6 87.999 18s46.333 27.833 63 47.5s29 42.167 37 67.5s12 51.333 12 78c0 23.333 -4.16699 46.666 -12.5 69.999s-20.666 44.333 -36.999 63
s-36.833 33.834 -61.5 45.501s-53.334 17.5 -86.001 17.5s-61.834 -3.66699 -87.501 -11s-53.167 -19.333 -82.5 -36h-6l46 326h303v-20h-286l-39 -275c31.333 16.667 59 27 83 31s47.667 6 71 6c35.333 -0.666992 66.333 -7.33398 93 -20.001
s49.334 -29.334 68.001 -50.001s32.667 -43.834 42 -69.501s14 -51.5 14 -77.5c0 -32 -5 -62 -15 -90s-24.5 -52.5 -43.5 -73.5s-42.333 -37.5 -70 -49.5s-59.5 -18 -95.5 -18c-18 0 -36.5 2.33301 -55.5 7s-37.167 11.334 -54.5 20.001s-33.5 19.5 -48.5 32.5
s-27.833 27.5 -38.5 43.5z" />
    <glyph glyph-name="uni0036" unicode="6" horiz-adv-x="589" 
d="M356 700l-193.002 -308.001c26 22.667 49.5 36.334 70.5 41.001s40.5 7 58.5 7c37.333 0 69.5 -6.5 96.5 -19.5s49.5 -30 67.5 -51s31.333 -44.667 40 -71s13 -52.5 13 -78.5c0 -27.333 -4.66699 -54.5 -14 -81.5s-23.166 -51.167 -41.499 -72.5s-41 -38.5 -68 -51.5
s-58.167 -19.5 -93.5 -19.5c-34.667 0 -65.5 6.5 -92.5 19.5s-49.667 30 -68 51s-32.166 45 -41.499 72s-14 54.5 -14 82.5c0 22.667 3.5 45.5 10.5 68.5s16.167 43.833 27.5 62.5l109 174.5l109 174.5h24zM291.998 420.999c-26.667 0 -51.666 -5.33398 -74.999 -16.001
s-43.833 -25.167 -61.5 -43.5s-31.667 -39.666 -42 -63.999s-15.5 -49.833 -15.5 -76.5c0 -24.667 4.16699 -49.334 12.5 -74.001s20.666 -46.834 36.999 -66.501s36.5 -35.667 60.5 -48s52 -18.5 84 -18.5s60.167 6.33301 84.5 19s44.833 28.834 61.5 48.501
s29 41.834 37 66.501s12 49 12 73c0 22.667 -4.16699 45.834 -12.5 69.501s-20.833 45.167 -37.5 64.5s-37 35.166 -61 47.499s-52 18.5 -84 18.5z" />
    <glyph glyph-name="uni0037" unicode="7" horiz-adv-x="491" 
d="M430 679l-347 -679h25l347 682l-13 18h-394v-21h382z" />
    <glyph glyph-name="uni0038" unicode="8" horiz-adv-x="587" 
d="M291 -10c-24.667 0 -49.167 4.33105 -73.5 12.998s-46 21.5 -65 38.5s-34.5 37.833 -46.5 62.5s-18 53.334 -18 86.001c0 17.333 2.83301 35.666 8.5 54.999s14.5 37.833 26.5 55.5s27.167 33.5 45.5 47.5s39.833 24 64.5 30c-40.667 16 -70.5 38.5 -89.5 67.5
s-28.5 59.5 -28.5 91.5c0 28 5.16699 52.667 15.5 74s23.666 39.333 39.999 54s35 25.667 56 33s42.5 11 64.5 11c21.333 0 42.5 -3.66699 63.5 -11s39.667 -18.166 56 -32.499s29.5 -32.166 39.5 -53.499s15 -46 15 -74c0 -13.333 -2.16699 -27.833 -6.5 -43.5
s-11.166 -31 -20.499 -46s-21.333 -28.667 -36 -41s-32.334 -21.833 -53.001 -28.5c27.333 -8 50.333 -19 69 -33s34 -29.5 46 -46.5s20.5 -35 25.5 -54s7.5 -37.5 7.5 -55.5c0 -30.667 -6 -58.5 -18 -83.5s-27.833 -46 -47.5 -63s-41.667 -30.167 -66 -39.5
s-49.166 -14 -74.499 -14zM291 368.998c-28.667 0 -54.332 -5.50195 -76.999 -16.502s-41.834 -25.167 -57.501 -42.5s-27.5 -36.666 -35.5 -57.999s-12 -42.333 -12 -63c0 -22 4 -43.833 12 -65.5s19.667 -41 35 -58s34.333 -30.5 57 -40.5s48.667 -15 78 -15
s55.5 5.16699 78.5 15.5s42.333 24 58 41s27.667 36.333 36 58s12.5 43.834 12.5 66.501c0 21.333 -4.16699 42.5 -12.5 63.5s-20.333 40 -36 57s-35 30.833 -58 41.5s-49.167 16 -78.5 16zM291.002 688.996c-24.667 0 -46.498 -4.33301 -65.498 -13s-35.167 -20 -48.5 -34
s-23.5 -30 -30.5 -48s-10.5 -36.667 -10.5 -56c0 -16.667 3.5 -34 10.5 -52s17.167 -34.333 30.5 -49s29.666 -26.667 48.999 -36s41 -14 65 -14c24.667 0 46.5 4.66699 65.5 14s35 21.333 48 36s22.833 31 29.5 49s10 35.333 10 52c0 18.667 -3.33301 37 -10 55
s-16.334 34.167 -29.001 48.5s-28.5 25.833 -47.5 34.5s-41.167 13 -66.5 13z" />
    <glyph glyph-name="uni0039" unicode="9" horiz-adv-x="605" 
d="M229 0l193.002 309.001c-26 -22.667 -49.5 -36.334 -70.5 -41.001s-40.5 -7 -58.5 -7c-36.667 0 -68.667 6.66699 -96 20s-50 30.5 -68 51.5s-31.333 44.5 -40 70.5s-13 52 -13 78c0 27.333 4.66699 54.5 14 81.5s23.166 51.167 41.499 72.5s41 38.5 68 51.5
s58.167 19.5 93.5 19.5s66.333 -6.5 93 -19.5s49.167 -30 67.5 -51s32.166 -45 41.499 -72s14 -54.5 14 -82.5c0 -22.667 -3.33301 -45.5 -10 -68.5s-15.667 -43.833 -27 -62.5l-109.5 -175l-109.5 -175h-24zM293.002 280.001c26.667 0 51.666 5.33398 74.999 16.001
s43.833 25.167 61.5 43.5s31.667 39.666 42 63.999s15.5 49.833 15.5 76.5c0 24.667 -4.16699 49.334 -12.5 74.001s-20.666 46.834 -36.999 66.501s-36.5 35.667 -60.5 48s-52 18.5 -84 18.5s-60.167 -6.33301 -84.5 -19s-44.833 -28.834 -61.5 -48.501
s-29 -41.834 -37 -66.501s-12 -49 -12 -73c0 -22.667 4.16699 -45.834 12.5 -69.501s20.833 -45.167 37.5 -64.5s37 -35.166 61 -47.499s52 -18.5 84 -18.5z" />
    <glyph glyph-name="uni003A" unicode=":" horiz-adv-x="294" 
d="M165 0v45h-34v-45h34zM165 447v45h-34v-45h34z" />
    <glyph glyph-name="uni003B" unicode=";" horiz-adv-x="303" 
d="M165 447v45h-34v-45h34zM82 -112h19l61 155h-27z" />
    <glyph glyph-name="uni003C" unicode="&#x3c;" horiz-adv-x="505" 
d="M424 490l-366 -195v-19l366 -190v25l-343 175l343 179v25z" />
    <glyph glyph-name="uni003D" unicode="=" horiz-adv-x="628" 
d="M115 169h397v20h-397v-20zM115 365h397v20h-397v-20z" />
    <glyph glyph-name="uni003E" unicode="&#x3e;" horiz-adv-x="504" 
d="M74 465l343 -180l-343 -174v-25l366 190v19l-366 195v-25z" />
    <glyph glyph-name="uni003F" unicode="?" horiz-adv-x="513" 
d="M230 -1h-25v48h25v-48zM80 624l-14.998 12.9961c22 26.667 46.5 44.834 73.5 54.501s56.5 14.5 88.5 14.5c25.333 0 50.166 -4.66699 74.499 -14s46 -22.666 65 -39.999s34.333 -38 46 -62s17.5 -51 17.5 -81c-0.666992 -55.333 -19.167 -100.833 -55.5 -136.5
s-85.5 -58.167 -147.5 -67.5c0 -12.667 -0.166992 -26.667 -0.5 -42s-0.5 -31.166 -0.5 -47.499s-0.166992 -32.166 -0.5 -47.499s-0.5 -29.333 -0.5 -42h-19v196c26 2.66699 51.333 8.5 76 17.5s46.5 21.333 65.5 37s34.167 34.667 45.5 57s16.666 47.833 15.999 76.5
c-0.666992 28 -6.33398 53 -17.001 75s-24.667 40.5 -42 55.5s-36.666 26.333 -57.999 34s-43 11.5 -65 11.5c-27.333 0 -53.5 -4 -78.5 -12s-47.833 -24.667 -68.5 -50z" />
    <glyph glyph-name="uni0040" unicode="@" horiz-adv-x="800" 
d="M658 442l4.00391 -5.00293c-28 36 -63.333 63.333 -106 82s-87.334 28 -134.001 28c-50 0 -94.833 -9.5 -134.5 -28.5s-73.334 -44 -101.001 -75s-49.167 -66.167 -64.5 -105.5s-23.333 -79.666 -24 -120.999c-0.666992 -39.333 4.5 -77.333 15.5 -114s28.5 -69 52.5 -97
s55 -50.5 93 -67.5s84 -25.5 138 -25.5c12.667 0 27 1.33301 43 4s32.667 7.66699 50 15l7 -18c-19.333 -7.33301 -36.666 -12.333 -51.999 -15s-31.333 -4 -48 -4c-56.667 0 -105.167 8.83301 -145.5 26.5s-73.5 41.334 -99.5 71.001s-45.167 64 -57.5 103
s-18.166 79.5 -17.499 121.5c0.666992 43.333 9 85.833 25 127.5s38.667 79.167 68 112.5s65.166 60.166 107.499 80.499s89.833 30.5 142.5 30.5c44 0 84.5 -6.83301 121.5 -20.5s69 -32.5 96 -56.5s48.167 -52.5 63.5 -85.5s23.333 -69.167 24 -108.5
c0.666992 -30.667 -3.5 -61.5 -12.5 -92.5s-21.833 -59 -38.5 -84s-36.334 -45.333 -59.001 -61s-47.667 -23.5 -75 -23.5c-7.33301 0 -12.666 0.333008 -15.999 1c-13.333 1.33301 -24.666 7.33301 -33.999 18s-12.333 28.334 -9 53.001h-3
c-14.667 -22.667 -33.5 -40.334 -56.5 -53.001s-48.167 -19 -75.5 -19c-14.667 0.666992 -28.834 4.66699 -42.501 12s-25.834 17.166 -36.501 29.499s-19.167 26.833 -25.5 43.5s-9.5 35 -9.5 55c0 32.667 4.5 63.5 13.5 92.5s22 54.333 39 76s38 38.834 63 51.501
s53.5 19 85.5 19c6.66699 0 15.667 -1.16699 27 -3.5s22.5 -6.66602 33.5 -12.999s20.833 -15.5 29.5 -27.5s14 -28 16 -48l21 60h20l-74 -240c-2 -6 -3.83301 -12.667 -5.5 -20s-2.5 -15 -2.5 -23c0 -12 3.16699 -22.167 9.5 -30.5s18.166 -12.5 35.499 -12.5
c23.333 0 44.833 7 64.5 21s36.667 32.5 51 55.5s25.666 48.833 33.999 77.5s12.5 57.334 12.5 86.001c0 56 -15.667 104.333 -47 145zM253.004 175.997c0 -14.667 2.33301 -29.167 7 -43.5s11.334 -27 20.001 -38s18.834 -19.833 30.501 -26.5s24.834 -10 39.501 -10
c23.333 0 45.666 5.66699 66.999 17s41.666 31 60.999 59c9.33301 23.333 18.166 48.5 26.499 75.5s15.166 53.833 20.499 80.5c0 32 -8.16699 57.333 -24.5 76s-40.166 28 -71.499 28c-30.667 0.666992 -57 -5.5 -79 -18.5s-40.167 -29.833 -54.5 -50.5
s-25 -44.167 -32 -70.5s-10.5 -52.5 -10.5 -78.5z" />
    <glyph glyph-name="uni0041" unicode="A" horiz-adv-x="631" 
d="M42 0h24l88 248h323l91 -248h24l-256 703h-40zM322 684l149 -415h-309l148 415h12z" />
    <glyph glyph-name="uni0042" unicode="B" horiz-adv-x="609" 
d="M491 531c0 -10 -1.66699 -22.501 -5 -37.501s-9.5 -30.167 -18.5 -45.5s-21.333 -29.666 -37 -42.999s-36.167 -23.333 -61.5 -30c28 -6.66699 51.833 -17.167 71.5 -31.5s35.5 -30.5 47.5 -48.5s20.667 -36.333 26 -55s8 -35.667 8 -51
c0 -28.667 -5.33301 -54.667 -16 -78s-25.5 -43.166 -44.5 -59.499s-41.5 -29 -67.5 -38s-54 -13.5 -84 -13.5h-181v703h182c26 0 50 -4.33301 72 -13s41 -20.834 57 -36.501s28.5 -34 37.5 -55s13.5 -43.5 13.5 -67.5zM311 364.999l-160 0.000976562v-344h160
c31.333 0 58.833 4.66699 82.5 14s43.5 21.833 59.5 37.5s28 33.667 36 54s12 41.166 12 62.499c0 19.333 -4 39.333 -12 60s-20 39.5 -36 56.5s-35.833 31.167 -59.5 42.5s-51.167 17 -82.5 17zM151 385h160c26.667 0 49.834 4.5 69.501 13.5s36.167 20.5 49.5 34.5
s23.333 29.667 30 47s10 34.333 10 51s-3.33301 34 -10 52s-16.667 34.333 -30 49s-29.833 26.667 -49.5 36s-42.834 14 -69.501 14h-160v-297z" />
    <glyph glyph-name="uni0043" unicode="C" horiz-adv-x="729" 
d="M645 607l-13 -13.998c-13.333 13.333 -27.333 25.666 -42 36.999s-30.667 21.166 -48 29.499s-36.833 14.833 -58.5 19.5s-46.167 7 -73.5 7c-47.333 0 -91 -8.16699 -131 -24.5s-74.5 -39.166 -103.5 -68.499s-51.667 -64.833 -68 -106.5s-24.5 -88.167 -24.5 -139.5
c0 -46.667 7.83301 -90.167 23.5 -130.5s37.834 -75.5 66.501 -105.5s63.167 -53.667 103.5 -71s84.833 -26 133.5 -26c44.667 0 87.667 9.16699 129 27.5s77.666 46.166 108.999 83.499l15 -13c-32 -38.667 -69.5 -68.167 -112.5 -88.5s-89.833 -30.5 -140.5 -30.5
c-54 0 -102.5 9.33301 -145.5 28s-79.5 44.167 -109.5 76.5s-53.167 70 -69.5 113s-24.5 88.5 -24.5 136.5c0 47.333 7.83301 92.666 23.5 135.999s38.334 81.5 68.001 114.5s66.167 59.333 109.5 79s92.666 29.5 147.999 29.5c51.333 0 95.5 -8.16699 132.5 -24.5
s71.167 -41.166 102.5 -74.499z" />
    <glyph glyph-name="uni0044" unicode="D" horiz-adv-x="725" 
d="M129 703h189.002c54.667 0 102.667 -10.167 144 -30.5s75.833 -47 103.5 -80s48.5 -70.5 62.5 -112.5s21 -84.667 21 -128c0 -44 -6.83301 -87.167 -20.5 -129.5s-34.334 -80 -62.001 -113s-62.334 -59.5 -104.001 -79.5s-90.167 -30 -145.5 -30h-188v703zM151.002 21
l165 0.000976562c52 0 97.667 9.33301 137 28s72 43.5 98 74.5s45.333 66.5 58 106.5s19 80.667 19 122s-6.5 81.666 -19.5 120.999s-32.5 74.5 -58.5 105.5s-58.333 56 -97 75s-83.667 28.5 -135 28.5h-167v-661z" />
    <glyph glyph-name="uni0045" unicode="E" horiz-adv-x="527" 
d="M449 700h-343v-700h343v21h-321v333h317v20h-316v305h320v21z" />
    <glyph glyph-name="uni0046" unicode="F" horiz-adv-x="518" 
d="M450 700h-331v-700h21v347h306v20h-306v313h310v20z" />
    <glyph glyph-name="uni0047" unicode="G" horiz-adv-x="821" 
d="M411 705c52.667 0 100.501 -8.49902 143.501 -25.499s81.833 -43.833 116.5 -80.5l-15 -13c-33.333 36 -70 61.5 -110 76.5s-85 22.5 -135 22.5c-48.667 0 -92.834 -9.33301 -132.501 -28s-73.5 -43.5 -101.5 -74.5s-49.667 -66.833 -65 -107.5s-23 -82.667 -23 -126
c0 -41.333 7.66699 -81.833 23 -121.5s37 -75.167 65 -106.5s61.833 -56.5 101.5 -75.5s83.834 -28.5 132.501 -28.5c36 0 71.333 6 106 18s66 29.833 94 53.5s51.333 52.667 70 87s30 73.833 34 118.5h-325v20h349c-2.66699 -45.333 -12.667 -87.333 -30 -126
s-40.333 -72.334 -69 -101.001s-62.334 -51 -101.001 -67s-81.334 -24 -128.001 -24c-53.333 0 -101.333 10.167 -144 30.5s-78.667 47 -108 80s-52 70.667 -68 113s-24 85.5 -24 129.5c0 45.333 7.83301 89.333 23.5 132s38.334 80.667 68.001 114s65.667 60 108 80
s90.5 30 144.5 30z" />
    <glyph glyph-name="uni0048" unicode="H" horiz-adv-x="675" 
d="M529 0h22v700h-22v-327h-385v327h-22v-700h22v352h385v-352z" />
    <glyph glyph-name="uni0049" unicode="I" horiz-adv-x="281" 
d="M130 0h22v700h-22v-700z" />
    <glyph glyph-name="uni004A" unicode="J" horiz-adv-x="545" 
d="M54 140l19.0029 6c15.333 -49.333 38.5 -83.5 69.5 -102.5s65.833 -28.5 104.5 -28.5c20 0 39.5 3.66699 58.5 11s36.167 18 51.5 32s27.666 31.333 36.999 52s14 44 14 70v500h-157v20h179v-520c0 -30 -5.33301 -56.667 -16 -80s-24.667 -42.833 -42 -58.5
s-36.833 -27.5 -58.5 -35.5s-43.834 -12 -66.501 -12c-22 0 -42.833 2.33301 -62.5 7s-37.834 12.5 -54.501 23.5s-31.5 26 -44.5 45s-23.5 42.5 -31.5 70.5z" />
    <glyph glyph-name="uni004B" unicode="K" horiz-adv-x="630" 
d="M152 700h-22v-700h22v272l104 106l289 -378h25l-299 393l285 307h-27l-377 -401v401z" />
    <glyph glyph-name="uni004C" unicode="L" horiz-adv-x="478" 
d="M447 20h-295v680h-22v-700h317v20z" />
    <glyph glyph-name="uni004D" unicode="M" horiz-adv-x="831" 
d="M681 685h1v-685h22v700h-40l-256 -566l-256 566h-40v-700h22v685h1l258 -570h30z" />
    <glyph glyph-name="uni004E" unicode="N" horiz-adv-x="729" 
d="M579 12l-409 689h-40v-701h22v687h2l408 -688h41v701h-22v-688h-2z" />
    <glyph glyph-name="uni004F" unicode="O" horiz-adv-x="849" 
d="M423 711c52 -0.666992 99.833 -10.333 143.5 -29s81 -44.167 112 -76.5s55.167 -70.333 72.5 -114s26 -91.167 26 -142.5c0 -61.333 -10.667 -114.666 -32 -159.999s-49 -82.833 -83 -112.5s-72 -51.834 -114 -66.501s-83.667 -22 -125 -22s-83 7.33301 -125 22
s-79.833 36.834 -113.5 66.501s-61 67.167 -82 112.5s-31.5 98.666 -31.5 159.999c0 54.667 9.16699 104.334 27.5 149.001s43.333 82.667 75 114s69 55.666 112 72.999s88.833 26 137.5 26zM423 691.001c-46 0 -89.1641 -8.16895 -129.497 -24.502
s-75.333 -39.333 -105 -69s-53 -65.5 -70 -107.5s-25.5 -89 -25.5 -141c0 -57.333 9.83301 -107.333 29.5 -150s45.167 -78.167 76.5 -106.5s66.666 -49.5 105.999 -63.5s78.666 -21 117.999 -21s78.666 6.83301 117.999 20.5s74.833 34.667 106.5 63
s57.5 63.833 77.5 106.5s30 93 30 151c0 48 -8 92.833 -24 134.5s-38.667 77.834 -68 108.501s-64.333 54.834 -105 72.501s-85.667 26.5 -135 26.5z" />
    <glyph glyph-name="uni0050" unicode="P" horiz-adv-x="583" 
d="M152 286l-0.000976562 -286.001h-22v700h181c34.667 -0.666992 65 -7.16699 91 -19.5s47.833 -28.166 65.5 -47.499s30.834 -41.333 39.501 -66s13 -50 13 -76c0 -25.333 -4.33301 -50.333 -13 -75s-21.5 -46.5 -38.5 -65.5s-38.5 -34.5 -64.5 -46.5s-56.667 -18 -92 -18
h-160zM151.999 305.999l159.001 -0.000976562c32 0.666992 59.833 6.33398 83.5 17.001s43.167 24.667 58.5 42s26.666 37 33.999 59s11 44.333 11 67s-4.16699 45 -12.5 67s-20.333 41.833 -36 59.5s-35 32.167 -58 43.5s-49.833 17.333 -80.5 18h-159v-373z" />
    <glyph glyph-name="uni0051" unicode="Q" horiz-adv-x="848" 
d="M665 99l86.002 -88l-14 -13l-86 87c-39.333 -35.333 -77.833 -59.333 -115.5 -72s-77.167 -19 -118.5 -19c-45.333 0 -89.333 7.83301 -132 23.5s-80.5 38.5 -113.5 68.5s-59.5 67 -79.5 111s-30 94.333 -30 151c0 54.667 9.83301 104.167 29.5 148.5s46 82.333 79 114
s70.667 56 113 73s86.166 25.5 131.499 25.5s89.166 -8.33301 131.499 -25s80 -40.667 113 -72s59.5 -69.333 79.5 -114s30 -94.667 30 -150c0 -47.333 -8.83301 -91.833 -26.5 -133.5s-43.5 -80.167 -77.5 -115.5zM531.002 206l12.998 13.001l107 -106
c30 31.333 53.667 66.833 71 106.5s26 82.5 26 128.5c0 58 -10.333 108.5 -31 151.5s-47.167 78.5 -79.5 106.5s-68.166 48.833 -107.499 62.5s-77.666 20.5 -114.999 20.5c-38 0 -76.667 -7 -116 -21s-75 -35 -107 -63s-58.167 -63.333 -78.5 -106s-30.5 -93 -30.5 -151
c0 -58.667 10.333 -109.167 31 -151.5s47.167 -77 79.5 -104s68.166 -46.833 107.499 -59.5s78 -19 116 -19c20.667 0 40.167 1.16699 58.5 3.5s36.333 6.66602 54 12.999s35.334 15 53.001 26s36.167 25.167 55.5 42.5z" />
    <glyph glyph-name="uni0052" unicode="R" horiz-adv-x="616" 
d="M298 310l244 -309.998h-26l-244 309h-120v-309h-22v700h194c30.667 0 58.667 -4.16699 84 -12.5s47.333 -20.5 66 -36.5s33.167 -35.833 43.5 -59.5s15.833 -50.834 16.5 -81.501c0 -30 -4 -57.167 -12 -81.5s-20.667 -45.333 -38 -63s-39.333 -31.334 -66 -41.001
s-58.667 -14.5 -96 -14.5h-24zM152 330.002h167c129.333 0 194 60 194 180c0 28.667 -4.83301 53.667 -14.5 75s-23 39 -40 53s-37 24.5 -60 31.5s-48.167 10.5 -75.5 10.5h-171v-350z" />
    <glyph glyph-name="uni0053" unicode="S" 
d="M125 545c-0.666992 -27.333 4.16211 -50.4961 14.4951 -69.4961s23.5 -34.667 39.5 -47s33.333 -22.333 52 -30s36 -13.834 52 -18.501c22 -6.66699 44.333 -15.667 67 -27s43 -25.666 61 -42.999s32.333 -38.5 43 -63.5s15 -54.167 13 -87.5
c-1.33301 -29.333 -8.16602 -54.5 -20.499 -75.5s-28 -38.167 -47 -51.5s-40 -23.166 -63 -29.499s-45.5 -9.5 -67.5 -9.5c-39.333 0 -76.166 9.5 -110.499 28.5s-61.166 48.167 -80.499 87.5l19 11c18 -36 42.5 -62.333 73.5 -79s63.833 -25.334 98.5 -26.001
c50 -0.666992 91.167 11.833 123.5 37.5s49.833 61.834 52.5 108.501c1.33301 31.333 -3.16699 58.166 -13.5 80.499s-23.833 41.5 -40.5 57.5s-35.167 29 -55.5 39s-40.166 17.667 -59.499 23c-20 5.33301 -40.333 12.666 -61 21.999s-39.5 21.166 -56.5 35.499
s-30.667 31.833 -41 52.5s-15.166 45.334 -14.499 74.001c1.33301 27.333 7.16602 51.166 17.499 71.499s23.833 37.166 40.5 50.499s35.5 23.333 56.5 30s42.5 10 64.5 10c34 0 65 -7 93 -21s51.667 -37 71 -69l-19 -9c-18.667 28.667 -39.5 48.834 -62.5 60.501
s-51.5 17.5 -85.5 17.5c-18.667 0 -37 -2.66699 -55 -8s-34 -13.833 -48 -25.5s-25.667 -26.334 -35 -44.001s-14.666 -38.834 -15.999 -63.501z" />
    <glyph glyph-name="uni0054" unicode="T" horiz-adv-x="451" 
d="M25 700v-21h190v-679h22v679h189v21h-401z" />
    <glyph glyph-name="uni0055" unicode="U" horiz-adv-x="653" 
d="M120 700l21.999 -0.00292969v-516c0 -28 5.33301 -52.667 16 -74s24.5 -39.166 41.5 -53.499s36.5 -25.166 58.5 -32.499s44.333 -11 67 -11c23.333 0 46 3.5 68 10.5s41.833 17.5 59.5 31.5s32 31.833 43 53.5s16.833 46.834 17.5 75.501v516h22v-516
c0 -32 -6 -60 -18 -84s-27.833 -44 -47.5 -60s-42.167 -27.833 -67.5 -35.5s-51 -11.5 -77 -11.5s-51.167 4 -75.5 12s-46.166 20 -65.499 36s-34.833 35.833 -46.5 59.5s-17.5 51.5 -17.5 83.5v516z" />
    <glyph glyph-name="uni0056" unicode="V" horiz-adv-x="627" 
d="M315 13l-249 687h-23l255 -702h36l250 702h-23l-243 -687h-3z" />
    <glyph glyph-name="uni0057" unicode="W" horiz-adv-x="950" 
d="M287 11h-2l-197 689h-22l201 -701h37l174 560l174 -560h37l201 701h-22l-197 -689h-2l-174 563h-34z" />
    <glyph glyph-name="uni0058" unicode="X" horiz-adv-x="643" 
d="M579 700h-25l-227 -334l-226 335h-24l238 -351l-244 -350h23l233 333l231 -333h24l-243 349z" />
    <glyph glyph-name="uni0059" unicode="Y" horiz-adv-x="567" 
d="M531 700h-24l-222 -397l-221 397h-25l235 -416v-284h21v283z" />
    <glyph glyph-name="uni005A" unicode="Z" horiz-adv-x="568" 
d="M476 679l-411 -659v-20h442v21h-417l412 660v19h-401v-21h375z" />
    <glyph glyph-name="uni005B" unicode="[" horiz-adv-x="311" 
d="M267 772h-133v-841h129v20h-108v801h112v20z" />
    <glyph glyph-name="uni005C" unicode="\" horiz-adv-x="400" 
d="M318 -56h22l-283 828h-22z" />
    <glyph glyph-name="uni005D" unicode="]" horiz-adv-x="312" 
d="M50 752h112v-801h-108v-20h129v841h-133v-20z" />
    <glyph glyph-name="uni005E" unicode="^" horiz-adv-x="609" 
d="M111 324h22l172 352l173 -352h22l-187 376h-16z" />
    <glyph glyph-name="uni005F" unicode="_" horiz-adv-x="547" 
d="M52 -9v-21h459v21h-459z" />
    <glyph glyph-name="uni0060" unicode="`" horiz-adv-x="468" 
d="M250 752h21l-57 99h-30z" />
    <glyph glyph-name="uni0061" unicode="a" 
d="M462 0l-21 -0.00195312v66c-14 -14.667 -28.5 -26.834 -43.5 -36.501s-29.833 -17.167 -44.5 -22.5s-29 -9.16602 -43 -11.499s-26.667 -3.5 -38 -3.5c-45.333 -0.666992 -83.166 7 -113.499 23s-53 36 -68 60s-22.5 50.167 -22.5 78.5s7.83301 54.666 23.5 78.999
s39.334 44.666 71.001 60.999s71.167 24.833 118.5 25.5c17.333 0 41 -3.16699 71 -9.5s59.333 -18.166 88 -35.499v55c0 30 -4.66699 55.5 -14 76.5s-22 37.833 -38 50.5s-34.5 21.834 -55.5 27.501s-42.833 8.5 -65.5 8.5c-25.333 0 -49.333 -3.33301 -72 -10
s-45.334 -17.667 -68.001 -33l-11 16c22.667 17.333 47 29.5 73 36.5s52.333 10.5 79 10.5c25.333 0 49.666 -3.33301 72.999 -10s44 -17.167 62 -31.5s32.333 -33.166 43 -56.499s16 -51.666 16 -84.999v-329zM440 92.998l-0.000976562 159.001
c-27.333 16.667 -54.666 28.5 -81.999 35.5s-52.666 10.5 -75.999 10.5c-42.667 0 -78.167 -7 -106.5 -21s-49.5 -31.667 -63.5 -53s-21.167 -44.333 -21.5 -69s6.16699 -47.667 19.5 -69s33.5 -39 60.5 -53s60.833 -21 101.5 -21c28 0 57.667 7.16699 89 21.5
s57.666 34.166 78.999 59.499z" />
    <glyph glyph-name="uni0062" unicode="b" horiz-adv-x="591" 
d="M285 509c52 0 95.1699 -12.666 129.503 -37.999s60.166 -57 77.499 -95s26.166 -79 26.499 -123s-7.83398 -85 -24.501 -123s-41.667 -69.833 -75 -95.5s-75.333 -38.834 -126 -39.501c-36 0 -66.167 5.16699 -90.5 15.5s-48.5 29.5 -72.5 57.5v-68h-21v701h22v-257
c21.333 22.667 46 39.167 74 49.5s54.667 15.5 80 15.5zM283.003 14.001c47.333 1.33301 86.833 13.3291 118.5 35.9961s55.667 50.834 72 84.501s24.833 70.334 25.5 110.001s-6.33301 76.834 -21 111.501s-37 64.334 -67 89.001s-67.667 39 -113 43
c-34.667 0 -65.5 -5.16699 -92.5 -15.5s-52.167 -28.833 -75.5 -55.5v-323c21.333 -26 44.333 -45.833 69 -59.5s52.667 -20.5 84 -20.5z" />
    <glyph glyph-name="uni0063" unicode="c" horiz-adv-x="534" 
d="M308 497c-26.667 0 -53.6641 -4.66797 -80.9971 -14.001s-52 -24 -74 -44s-40.167 -45.667 -54.5 -77s-21.5 -69 -21.5 -113c0 -32.667 5.5 -63.334 16.5 -92.001s26.667 -53.667 47 -75s44.666 -38.166 72.999 -50.499s59.833 -18.5 94.5 -18.5
c29.333 0 57.5 4.66699 84.5 14s52.167 23.666 75.5 42.999l12 -15c-23.333 -20.667 -49.5 -36 -78.5 -46s-60.167 -15 -93.5 -15c-38.667 0 -73.5 7 -104.5 21s-57.5 32.667 -79.5 56s-39 50.5 -51 81.5s-18 63.5 -18 97.5c0 38 6.16699 73.167 18.5 105.5
s29.666 60.333 51.999 84s49 42.334 80 56.001s65.5 20.5 103.5 20.5c33.333 0 63.666 -5 90.999 -15s53 -25.667 77 -47l-13 -14c-24.667 22.667 -50.667 37.834 -78 45.501s-53.333 11.5 -78 11.5z" />
    <glyph glyph-name="uni0064" unicode="d" horiz-adv-x="587" 
d="M303 509c25.333 0 51.8359 -4.83301 79.5029 -14.5s52.167 -25.834 73.5 -48.501v255h22v-701h-21v68c-24 -28 -48.167 -47.167 -72.5 -57.5s-54.5 -15.5 -90.5 -15.5c-50 0.666992 -91.833 13.834 -125.5 39.501s-58.834 57.5 -75.501 95.5s-24.834 79 -24.501 123
s9.16602 85 26.499 123s43.333 69.667 78 95s78 38 130 38zM304.003 14c31.333 0 59.334 6.83594 84.001 20.5029s47.667 33.5 69 59.5v324c-23.333 26.667 -48.333 45 -75 55s-57.334 15 -92.001 15c-45.333 -4 -83 -18.333 -113 -43s-52.333 -54.334 -67 -89.001
s-21.667 -71.834 -21 -111.501s9 -76.334 25 -110.001s39.833 -62 71.5 -85s71.167 -34.833 118.5 -35.5z" />
    <glyph glyph-name="uni0065" unicode="e" horiz-adv-x="611" 
d="M307 14c30 0 59.3359 4.66895 88.0029 14.002s55 28 79 56l15 -14c-14.667 -14.667 -28.667 -26.834 -42 -36.501s-27 -17.5 -41 -23.5s-29 -10.167 -45 -12.5s-34 -3.5 -54 -3.5c-38.667 0 -73.167 7.83301 -103.5 23.5s-56.166 36.167 -77.499 61.5
s-37.5 54.166 -48.5 86.499s-16.5 64.833 -16.5 97.5c0 34 5.66699 66.167 17 96.5s27.666 57 48.999 80s47.166 41.167 77.499 54.5s64.166 20 101.499 20c35.333 0 68.333 -6.83301 99 -20.5s57 -32.167 79 -55.5s38.667 -50.833 50 -82.5s15 -65.5 11 -101.5h-463
c1.33301 -32.667 7.66602 -63.5 18.999 -92.5s26.833 -54.5 46.5 -76.5s43.167 -39.333 70.5 -52s57 -19 89 -19zM82.0029 274.002l444.999 0.00195312c0 36 -6.5 67.667 -19.5 95s-30 50.166 -51 68.499s-44.667 32.166 -71 41.499s-52.833 14.333 -79.5 15
c-30 0 -58.333 -5.16699 -85 -15.5s-50 -24.833 -70 -43.5s-36.167 -41.667 -48.5 -69s-19.166 -58 -20.499 -92z" />
    <glyph glyph-name="uni0066" unicode="f" horiz-adv-x="303" 
d="M279 701v-19.999c-4 0.666992 -8 1.16699 -12 1.5s-7.66699 0.5 -11 0.5c-34 0 -61 -9.5 -81 -28.5s-30 -46.167 -30 -81.5v-66h132v-18h-132v-489h-22v489h-92v18h92v66c0 22.667 3.5 42.167 10.5 58.5s16.5 29.666 28.5 39.999s26 18 42 23s33 7.5 51 7.5h12
c4 0 8 -0.333008 12 -1z" />
    <glyph glyph-name="uni0067" unicode="g" horiz-adv-x="589" 
d="M304 509c26.667 0 53.502 -4.83594 80.502 -14.5029s51.5 -26.5 73.5 -50.5v63h22v-523c0 -58.667 -16.667 -104.334 -50 -137.001s-79 -49 -137 -49c-36.667 0 -68.334 4.83301 -95.001 14.5s-54.667 27.167 -84 52.5l14 17c26 -23.333 52.5 -39.666 79.5 -48.999
s57.5 -14 91.5 -14c21.333 0 41.666 3.33301 60.999 10s36.333 16.834 51 30.501s26.334 30.834 35.001 51.501s13 45 13 73v77c-12.667 -15.333 -25.334 -27.333 -38.001 -36s-25.334 -15.334 -38.001 -20.001s-25.5 -7.5 -38.5 -8.5s-26.5 -1.5 -40.5 -1.5
c-38 0.666992 -71.667 8.33398 -101 23.001s-53.666 33.834 -72.999 57.501s-34 50.5 -44 80.5s-15 61 -15 93s4.83301 63.5 14.5 94.5s24.167 58.833 43.5 83.5s43.5 44.5 72.5 59.5s63.167 22.5 102.5 22.5zM306.002 13.9971c31.333 0 59.332 5.83496 83.999 17.502
s47.667 30.5 69 56.5v329c-23.333 26.667 -48.5 45.167 -75.5 55.5s-57.833 15.5 -92.5 15.5c-33.333 -2.66699 -62.666 -11.334 -87.999 -26.001s-46.333 -33.167 -63 -55.5s-29.167 -47.166 -37.5 -74.499s-12.5 -55.333 -12.5 -84s4.5 -57 13.5 -85
s22.5 -52.833 40.5 -74.5s40.5 -39.334 67.5 -53.001s58.5 -20.834 94.5 -21.501z" />
    <glyph glyph-name="uni0068" unicode="h" horiz-adv-x="606" 
d="M504 294l0.000976562 -293.995h-22v294c0 31.333 -5.5 59.166 -16.5 83.499s-25.667 44.666 -44 60.999s-39.333 28.833 -63 37.5s-47.834 13 -72.501 13c-29.333 0 -57.5 -5.83301 -84.5 -17.5s-50.833 -29.834 -71.5 -54.501v-417h-21v700h22v-256
c18 18.667 40 34.167 66 46.5s54 18.5 84 18.5c32 0 61.667 -5 89 -15s51 -24.333 71 -43s35.5 -41.334 46.5 -68.001s16.5 -56.334 16.5 -89.001z" />
    <glyph glyph-name="uni0069" unicode="i" horiz-adv-x="241" 
d="M131 0v508h-22v-508h22zM132 700h-23v-84h23v84z" />
    <glyph glyph-name="uni006A" unicode="j" horiz-adv-x="241" 
d="M-8 -201l0.000976562 19c37.333 0 66.166 8.16699 86.499 24.5s30.5 43.5 30.5 81.5v583h22v-583c0 -45.333 -12.667 -77.5 -38 -96.5s-59 -28.5 -101 -28.5zM132.001 700v-84h-23v84h23z" />
    <glyph glyph-name="uni006B" unicode="k" horiz-adv-x="518" 
d="M107 700h21v-475l290 282h27l-215 -211l116 -148l116 -148h-24l-223 282l-87 -82v-200h-21v700z" />
    <glyph glyph-name="uni006C" unicode="l" horiz-adv-x="272" 
d="M211 18l0.000976562 -19c-34.667 0 -61.334 8.5 -80.001 25.5s-28 47.167 -28 90.5v585h22v-585c0 -34 6.66699 -58.667 20 -74s35.333 -23 66 -23z" />
    <glyph glyph-name="uni006D" unicode="m" horiz-adv-x="923" 
d="M291 511c17.333 0 35.1738 -1.83203 53.5068 -5.49902s35.5 -10.334 51.5 -20.001s30 -22.334 42 -38.001s20.333 -35.5 25 -59.5c6 26 15.833 47 29.5 63s28.834 28.5 45.501 37.5s33.667 15 51 18s33 4.5 47 4.5c25.333 0 49.166 -3.33301 71.499 -10
s42 -17.667 59 -33s30.333 -35.666 40 -60.999s14.5 -57 14.5 -95v-312h-22v312c0 34.667 -4.33301 63.5 -13 86.5s-20.334 41.333 -35.001 55s-31.834 23.334 -51.501 29.001s-40.834 8.5 -63.501 8.5s-43.834 -3.16699 -63.501 -9.5s-36.834 -16.5 -51.501 -30.5
s-26.167 -32.167 -34.5 -54.5s-12.5 -49.833 -12.5 -82.5v-314h-22v314c0 33.333 -4.16699 61.166 -12.5 83.499s-19.833 40.5 -34.5 54.5s-31.834 24.167 -51.501 30.5s-40.834 9.5 -63.501 9.5c-30 -0.666992 -59 -7.5 -87 -20.5s-52.333 -33.833 -73 -62.5v-409h-21v507
h22v-70c17.333 23.333 40.333 41.5 69 54.5s59 19.5 91 19.5z" />
    <glyph glyph-name="uni006E" unicode="n" horiz-adv-x="616" 
d="M291 512c30 0 58.5 -4.83301 85.5 -14.5s50.5 -23.5 70.5 -41.5s35.833 -40.167 47.5 -66.5s17.5 -56.166 17.5 -89.499v-300h-22v300c0 31.333 -5.66699 58.833 -17 82.5s-26.166 43.5 -44.499 59.5s-39.333 28.167 -63 36.5s-48.167 12.5 -73.5 12.5
c-30 0 -59.167 -6 -87.5 -18s-52.833 -30.333 -73.5 -55v-418h-21v507h22v-61c19.333 19.333 42.666 35.166 69.999 47.499s57 18.5 89 18.5z" />
    <glyph glyph-name="uni006F" unicode="o" horiz-adv-x="634" 
d="M568 252c0 -41.333 -6.83301 -78.1689 -20.5 -110.502s-32.167 -59.5 -55.5 -81.5s-50.333 -38.833 -81 -50.5s-63 -17.5 -97 -17.5s-66.333 6 -97 18s-57.667 29.333 -81 52s-41.833 50 -55.5 82s-20.5 68 -20.5 108c0 39.333 6.83301 75 20.5 107
s32.167 59.5 55.5 82.5s50.333 40.667 81 53s63 18.5 97 18.5s66.333 -6.16699 97 -18.5s57.667 -29.666 81 -51.999s41.833 -49.666 55.5 -81.999s20.5 -68.5 20.5 -108.5zM81 251.997c0 -42 7.16699 -78.1641 21.5 -108.497s32.833 -55.5 55.5 -75.5
s47.834 -34.667 75.501 -44s54.5 -14 80.5 -14c26.667 0 53.834 4.5 81.501 13.5s52.834 23.167 75.501 42.5s41.167 44.333 55.5 75s21.5 67.667 21.5 111c0 41.333 -7.16699 77.166 -21.5 107.499s-32.833 55.5 -55.5 75.5s-47.834 35 -75.501 45s-54.834 15 -81.501 15
c-26 0 -52.833 -4.83301 -80.5 -14.5s-52.834 -24.334 -75.501 -44.001s-41.167 -44.834 -55.5 -75.501s-21.5 -67 -21.5 -109z" />
    <glyph glyph-name="uni0070" unicode="p" horiz-adv-x="590" 
d="M285 -6c-25.333 0 -52.002 5.16699 -80.002 15.5s-52.667 26.833 -74 49.5v-260h-22v708h21v-68c22.667 26.667 47 45.167 73 55.5s53.667 15.5 83 15.5c36.667 0 69.334 -6.66699 98.001 -20s53 -31.333 73 -54s35.333 -49.5 46 -80.5s16.334 -63.833 17.001 -98.5
c0.666992 -32.667 -3.66602 -64.667 -12.999 -96s-23.833 -59.333 -43.5 -84s-44.334 -44.667 -74.001 -60s-64.5 -23 -104.5 -23zM284.998 490c-31.333 0 -60.6689 -7.33691 -88.002 -22.0039s-49.666 -33.667 -66.999 -57v-325c23.333 -26.667 48.5 -45.167 75.5 -55.5
s57.833 -15.5 92.5 -15.5c34 2.66699 63.667 11.334 89 26.001s46.333 33.334 63 56.001s29.167 47.834 37.5 75.501s12.166 55.834 11.499 84.501c0 31.333 -5.16699 61 -15.5 89s-24.666 52.667 -42.999 74s-40.666 38.333 -66.999 51s-55.833 19 -88.5 19z" />
    <glyph glyph-name="uni0071" unicode="q" horiz-adv-x="584" 
d="M298 -6c-39.333 0 -73.667 7.5 -103 22.5s-53.666 34.667 -72.999 59s-34 51.833 -44 82.5s-15 62 -15 94c0 36 5.16699 69.667 15.5 101s25.666 58.833 45.999 82.5s45.166 42.167 74.499 55.5s62.666 20 99.999 20c28.667 0 55.834 -5.16699 81.501 -15.5
s49.834 -28.5 72.501 -54.5v66h21v-708h-22v260c-21.333 -22.667 -46 -39.167 -74 -49.5s-54.667 -15.5 -80 -15.5zM83.999 252c0 -28 4.33203 -55.666 12.999 -82.999s21.334 -52 38.001 -74s37.5 -40.167 62.5 -54.5s54.167 -22.833 87.5 -25.5
c34.667 0 65.5 5.16699 92.5 15.5s52.167 28.833 75.5 55.5v327c-17.333 23.333 -39.5 42.166 -66.5 56.499s-56.5 21.5 -88.5 21.5c-33.333 0 -63.333 -6.5 -90 -19.5s-49.167 -30.5 -67.5 -52.5s-32.333 -47.5 -42 -76.5s-14.5 -59.167 -14.5 -90.5z" />
    <glyph glyph-name="uni0072" unicode="r" horiz-adv-x="404" 
d="M102 507l19 0.00195312l1 -100c14 36 35.5 62.167 64.5 78.5s59.5 24.5 91.5 24.5c38 0 71.667 -9.66699 101 -29l-9 -16c-28 17.333 -58.333 26 -91 26c-20 0 -39.5 -3.66699 -58.5 -11s-35.667 -17.833 -50 -31.5s-25.833 -30.334 -34.5 -50.001
s-13 -41.834 -13 -66.501v-332h-21v507z" />
    <glyph glyph-name="uni0073" unicode="s" horiz-adv-x="439" 
d="M223 269c19.333 -4 37.832 -9.66602 55.499 -16.999s33.167 -16.5 46.5 -27.5s23.833 -24.333 31.5 -40s11.5 -33.5 11.5 -53.5c0 -22.667 -4.33301 -42.667 -13 -60s-20.167 -31.833 -34.5 -43.5s-30.666 -20.334 -48.999 -26.001s-37.166 -8.5 -56.499 -8.5
c-28 0 -55 5.16699 -81 15.5s-47.667 26.833 -65 49.5c5.33301 5.33301 9 9.33301 11 12l2 2c18.667 -22.667 39.667 -38.167 63 -46.5s46.666 -12.5 69.999 -12.5c16.667 0 32.834 2.33301 48.501 7s29.667 12 42 22s22.333 22.333 30 37s11.5 32 11.5 52
c0 18.667 -4 35 -12 49s-18 25.667 -30 35s-25.667 16.833 -41 22.5s-30.666 9.83398 -45.999 12.501c-17.333 2.66699 -34 7.66699 -50 15s-30 16.5 -42 27.5s-21.667 24 -29 39s-11 31.5 -11 49.5c0 21.333 4 40.166 12 56.499s18.833 30 32.5 41s29.334 19.5 47.001 25.5
s36.167 9 55.5 9c22 0 41.667 -2.83301 59 -8.5s34.666 -15.834 51.999 -30.501l-10 -14c-17.333 12.667 -32.833 21.5 -46.5 26.5s-31.167 7.5 -52.5 7.5c-16.667 0 -32.834 -2.5 -48.501 -7.5s-29.334 -12.167 -41.001 -21.5s-21 -21.166 -28 -35.499
s-10.5 -30.833 -10.5 -49.5s3.66699 -34.5 11 -47.5s16.666 -23.833 27.999 -32.5s23.833 -15.5 37.5 -20.5s26.834 -8.5 39.501 -10.5z" />
    <glyph glyph-name="uni0074" unicode="t" horiz-adv-x="320" 
d="M257 17l-0.000976562 -18c-3.33301 -0.666992 -6.66602 -1 -9.99902 -1h-10c-36 0 -64 10.833 -84 32.5s-30 52.5 -30 92.5v367h-98v17h98v122l21 7v-129h115v-17h-115v-367c0 -39.333 9.5 -66.833 28.5 -82.5s47.167 -23.5 84.5 -23.5z" />
    <glyph glyph-name="uni0075" unicode="u" horiz-adv-x="612" 
d="M322 -5c-30 0 -58.5 4.83301 -85.5 14.5s-50.5 23.5 -70.5 41.5s-35.833 40.167 -47.5 66.5s-17.5 56.166 -17.5 89.499v300h21v-300c0 -30.667 5.66699 -58 17 -82s26.166 -44 44.499 -60s39.5 -28.167 63.5 -36.5s48.667 -12.5 74 -12.5c30 0 59.167 6 87.5 18
s52.833 30.333 73.5 55v418h21v-507h-22v61c-19.333 -19.333 -42.666 -35.166 -69.999 -47.499s-57 -18.5 -89 -18.5z" />
    <glyph glyph-name="uni0076" unicode="v" horiz-adv-x="478" 
d="M67 507h-23l179 -509h35l175 509h-23l-169 -498h-1z" />
    <glyph glyph-name="uni0077" unicode="w" horiz-adv-x="715" 
d="M218 11h-2l-143 496h-21l146 -509h39l121 492h2l121 -492h39l146 509h-21l-143 -496h-2l-125 497h-32z" />
    <glyph glyph-name="uni0078" unicode="x" horiz-adv-x="512" 
d="M255 269l-166 238h-25l179 -253l-180 -254h24l168 239l169 -239h25l-182 254l178 253h-24z" />
    <glyph glyph-name="uni0079" unicode="y" horiz-adv-x="503" 
d="M106 -202v18.001c13.333 0 24.5 0.666992 33.5 2s17 4.16602 24 8.49902s13 10.333 18 18s10.167 17.834 15.5 30.501l48 122l-208 510h23l196 -484l188 484h22l-249 -637c-10.667 -28.667 -23.5 -47.834 -38.5 -57.501s-37.5 -14.5 -67.5 -14.5h-5z" />
    <glyph glyph-name="uni007A" unicode="z" horiz-adv-x="457" 
d="M361 487l-298 -464v-23h332v21h-310l300 465v21h-307v-20h283z" />
    <glyph glyph-name="uni007B" unicode="{" horiz-adv-x="312" 
d="M98 349l0.000976562 -1c26.667 -12 45.5 -31.667 56.5 -59s16.5 -57.666 16.5 -90.999v-170c0 -30 6.83301 -50.333 20.5 -61s32.5 -16.334 56.5 -17.001v-17c-37.333 0 -62.833 9 -76.5 27s-20.5 40 -20.5 66v170c0 33.333 -5.33301 62.333 -16 87
s-28.334 41.667 -53.001 51v30c26 9.33301 44 26.833 54 52.5s15 55.5 15 89.5v175c0 27.333 6 49.333 18 66s32.333 25 61 25h18v-16c-28 0 -47.833 -5 -59.5 -15s-17.5 -30 -17.5 -60v-176c0 -43.333 -6 -77.333 -18 -102s-30.333 -42.667 -55 -54z" />
    <glyph glyph-name="uni007C" unicode="|" horiz-adv-x="285" 
d="M129 -149h20v893h-20v-893z" />
    <glyph glyph-name="uni007D" unicode="}" horiz-adv-x="312" 
d="M207 348l0.000976562 1c-24.667 11.333 -43 29.333 -55 54s-18 58.667 -18 102v176c0 30 -5.83301 50 -17.5 60s-31.5 15 -59.5 15v16h18c28.667 0 49 -8.33301 61 -25s18 -38.667 18 -66v-175c0 -34 5 -63.833 15 -89.5s28 -43.167 54 -52.5v-30
c-24.667 -9.33301 -42.334 -26.333 -53.001 -51s-16 -53.667 -16 -87v-170c0 -26 -6.83301 -48 -20.5 -66s-39.167 -27 -76.5 -27v17c24 0.666992 42.833 6.33398 56.5 17.001s20.5 31 20.5 61v170c0 33.333 5.5 63.666 16.5 90.999s29.833 47 56.5 59z" />
    <glyph glyph-name="uni007E" unicode="~" horiz-adv-x="575" 
d="M479 354l15 -8.99902c-15.333 -25.333 -32 -43.5 -50 -54.5s-37.333 -16.5 -58 -16.5c-16 0 -32.667 2.83301 -50 8.5s-35 13.5 -53 23.5c-17.333 9.33301 -33.333 16.666 -48 21.999s-29 8 -43 8c-17.333 0 -34 -4.83301 -50 -14.5s-32.333 -25.834 -49 -48.501l-13 9
c16.667 26 34.167 44.5 52.5 55.5s37.833 16.5 58.5 16.5c16.667 0 33.667 -3 51 -9s35 -13.667 53 -23c16 -9.33301 31.5 -16.666 46.5 -21.999s29.5 -8 43.5 -8c17.333 0 33.833 4.83301 49.5 14.5s30.5 25.5 44.5 47.5z" />
    <glyph glyph-name="uni00A0" unicode="&#xa0;" horiz-adv-x="257" 
 />
    <glyph glyph-name="uni00A1" unicode="&#xa1;" horiz-adv-x="291" 
d="M133 354v-551h21v551h-21zM130 505v-47h26v47h-26z" />
    <glyph glyph-name="uni00A2" unicode="&#xa2;" horiz-adv-x="552" 
d="M307 -1l-0.00488281 98c-36 3.33301 -68 12.833 -96 28.5s-51.5 35.334 -70.5 59.001s-33.5 50 -43.5 79s-15 58.5 -15 88.5c0 31.333 5.33301 61.5 16 90.5s25.834 55 45.501 78s43.334 42.167 71.001 57.5s58.834 24.666 93.501 27.999v93h18v-93
c29.333 -1.33301 56.333 -6.83301 81 -16.5s45.667 -22.167 63 -37.5l-12 -15c-20 18 -42.667 30.333 -68 37s-49 10 -71 10c-28 0 -54.833 -5.5 -80.5 -16.5s-48.5 -26.667 -68.5 -47s-36 -45 -48 -74s-18 -61.167 -18 -96.5c0 -29.333 5.33301 -58 16 -86
s25.5 -52.833 44.5 -74.5s41.667 -39 68 -52s54.833 -19.5 85.5 -19.5c26.667 0.666992 52 4.16699 76 10.5s48.667 20.833 74 43.5l12 -12c-17.333 -19.333 -39.666 -34.5 -66.999 -45.5s-56.666 -16.833 -87.999 -17.5v-98h-18z" />
    <glyph glyph-name="uni00A3" unicode="&#xa3;" horiz-adv-x="592" 
d="M506 572l-18.999 -2.99512c-12.667 42.667 -33.667 72.167 -63 88.5s-62 24.5 -98 24.5c-20 0 -39.5 -3 -58.5 -9s-36 -15.5 -51 -28.5s-27 -30.167 -36 -51.5s-13.5 -47 -13.5 -77v-161h224v-19h-224v-317h353v-19h-435v19h61v317h-59v19h59v161c0 32 5 59.667 15 83
s23.333 42.666 40 57.999s35.667 26.666 57 33.999s43.333 11 66 11c19.333 0 38.166 -1.83301 56.499 -5.5s35.5 -10.334 51.5 -20.001s30.333 -22.834 43 -39.501s23 -38.334 31 -65.001z" />
    <glyph glyph-name="uni00A4" unicode="&#xa4;" horiz-adv-x="833" 
 />
    <glyph glyph-name="uni00A5" unicode="&#xa5;" horiz-adv-x="591" 
d="M125 219v18h165v47l-43 73h-122v18h112l-42.5 77l-47.5 85l-48 85l-44 78h26l220 -398l111 199l111 199h26l-185 -325h111v-18h-121l-43 -74v-46h164v-18h-164v-219h-21v219h-165z" />
    <glyph glyph-name="uni00A6" unicode="&#xa6;" horiz-adv-x="268" 
d="M123 -143h23v390h-23v-390zM146 776h-23v-395h23v395z" />
    <glyph glyph-name="uni00A7" unicode="&#xa7;" horiz-adv-x="456" 
d="M158 465c-19.333 11.333 -33.4922 26.6709 -42.4922 46.0039s-13.5 37.666 -13.5 54.999c0 20.667 4.16699 39.5 12.5 56.5s19.166 31.667 32.499 44s29 21.833 47 28.5s36.333 10 55 10c19.333 0 39.333 -3 60 -9s39.667 -15.667 57 -29l-10 -15
c-16.667 13.333 -34.167 22.166 -52.5 26.499s-37.166 6.83301 -56.499 7.5c-16.667 0 -32.5 -3 -47.5 -9s-28.333 -14.333 -40 -25s-20.834 -23.334 -27.501 -38.001s-10 -30.667 -10 -48c0 -18.667 3.66699 -34.334 11 -47.001s16.666 -23 27.999 -31
s24.333 -14.333 39 -19s29.334 -8 44.001 -10c19.333 -2.66699 37.666 -7 54.999 -13s32.666 -13.833 45.999 -23.5s24 -21.667 32 -36s12 -31.5 12 -51.5c0 -15.333 -4.33301 -33 -13 -53s-27 -37.667 -55 -53c21.333 -16.667 35.666 -32.5 42.999 -47.5
s11 -32.167 11 -51.5c0 -22.667 -5.16699 -42.167 -15.5 -58.5s-23.166 -30 -38.499 -41s-32.333 -19.167 -51 -24.5s-36.334 -8 -53.001 -8c-26.667 0 -51.834 5.16699 -75.501 15.5s-44.167 25.166 -61.5 44.499l15 13c16.667 -16.667 35.667 -29.334 57 -38.001
s43.666 -13 66.999 -13c15.333 0 31 2.33301 47 7s30.5 11.667 43.5 21s23.5 20.833 31.5 34.5s12 29.5 12 47.5c0 19.333 -4.5 35.5 -13.5 48.5s-20 23.833 -33 32.5s-27.167 15.334 -42.5 20.001s-29.333 8.33398 -42 11.001c-17.333 2.66699 -34.333 6.83398 -51 12.501
s-31.334 13.167 -44.001 22.5s-22.834 20.833 -30.501 34.5s-11.5 29.5 -11.5 47.5c0 17.333 5.33301 36.166 16 56.499s29.667 36.833 57 49.5zM229.008 261.005c9.33301 -1.33301 19.833 -3.99805 31.5 -7.99805s24.834 -9 39.501 -15
c19.333 10.667 35.666 24.167 48.999 40.5s20 35.166 20 56.499c0 19.333 -4.5 35.166 -13.5 47.499s-20.167 22.5 -33.5 30.5s-28.166 14.167 -44.499 18.5s-32.166 7.83301 -47.499 10.5l-28 6c-9.33301 2 -18 4.33301 -26 7c-21.333 -10.667 -38.5 -24 -51.5 -40
s-19.167 -34.667 -18.5 -56c0 -18 4.16699 -32.667 12.5 -44s18.666 -20.666 30.999 -27.999s25.666 -12.833 39.999 -16.5s27.5 -6.83398 39.5 -9.50098z" />
    <glyph glyph-name="uni00A8" unicode="&#xa8;" horiz-adv-x="509" 
d="M188 790v37h-34v-37h34zM361 790v37h-34v-37h34z" />
    <glyph glyph-name="uni00A9" unicode="&#xa9;" horiz-adv-x="821" 
d="M69 350c0 50 9 96.333 27 139s42.167 79.334 72.5 110.001s65.833 54.667 106.5 72s83.667 26 129 26c46 0 89.5 -8.66699 130.5 -26s76.667 -41.333 107 -72s54.5 -67.334 72.5 -110.001s27 -89 27 -139s-9 -96.333 -27 -139s-42.167 -79.5 -72.5 -110.5
s-66 -55.333 -107 -73s-84.5 -26.5 -130.5 -26.5c-45.333 0 -88.333 8.83301 -129 26.5s-76.167 42 -106.5 73s-54.5 67.833 -72.5 110.5s-27 89 -27 139zM91 350c0 -48 8.16699 -92 24.5 -132s38.833 -74.5 67.5 -103.5s62 -51.667 100 -68s78.333 -24.5 121 -24.5
c43.333 0 84.166 8.16699 122.499 24.5s71.833 39 100.5 68s51.167 63.5 67.5 103.5s24.5 84 24.5 132s-8.16699 92 -24.5 132s-38.833 74.333 -67.5 103s-62.167 51 -100.5 67s-79.166 24 -122.499 24c-42.667 0 -83 -8 -121 -24s-71.333 -38.333 -100 -67
s-51.167 -63 -67.5 -103s-24.5 -84 -24.5 -132zM413 194c22 0 40.3369 2.83203 55.0039 8.49902s31 14.834 49 27.501l12 -15c-16.667 -13.333 -35.334 -23.666 -56.001 -30.999s-40.667 -11 -60 -11c-29.333 0 -56.833 7.16699 -82.5 21.5s-46.167 34.5 -61.5 60.5
c-7.33301 13.333 -13 28 -17 44s-6.16699 32.333 -6.5 49s1.16699 33.167 4.5 49.5s8.66602 31.166 15.999 44.499c15.333 28 35.833 49.5 61.5 64.5s54.167 22.5 85.5 22.5c19.333 0 38.333 -2.83301 57 -8.5s35.667 -14.834 51 -27.501l-10 -15c-30 20 -62.667 30 -98 30
c-30 0 -55.5 -6.83301 -76.5 -20.5s-37.5 -31.167 -49.5 -52.5c-14 -27.333 -21 -57.166 -21 -89.499s8.33301 -61.5 25 -87.5c13.333 -20.667 30.666 -36.5 51.999 -47.5s44.666 -16.5 69.999 -16.5z" />
    <glyph glyph-name="uni00AA" unicode="&#xaa;" horiz-adv-x="477" 
d="M391 259v-20h-297v20h297zM363 356v39.998c-15.333 -17.333 -32.333 -30 -51 -38s-37.667 -12 -57 -12c-21.333 0 -42.333 4.33301 -63 13s-39 20.834 -55 36.501s-28.833 34.167 -38.5 55.5s-14.5 44.666 -14.5 69.999c0 24 4.5 46.667 13.5 68s21.167 40.333 36.5 57
s33.333 29.834 54 39.501s42.334 14.834 65.001 15.501c22.667 0 44.667 -1.16699 66 -3.5s42.666 -7.83301 63.999 -16.5v-325h-20zM363 424.998l-0.000976562 243c-21.333 6.66699 -39.833 10.667 -55.5 12s-34.167 2 -55.5 2c-21.333 -2 -41 -7.5 -59 -16.5
s-33.5 -20.667 -46.5 -35s-23.167 -31 -30.5 -50s-11 -39.167 -11 -60.5s4.33301 -41.333 13 -60s20 -35 34 -49s30.167 -25 48.5 -33s36.833 -12 55.5 -12c19.333 0 38.333 4.5 57 13.5s35.334 24.167 50.001 45.5z" />
    <glyph glyph-name="uni00AB" unicode="&#xab;" horiz-adv-x="505" 
d="M237 89h27l-157 193l157 196h-27l-155 -196zM402 89h27l-157 193l157 196h-27l-155 -196z" />
    <glyph glyph-name="uni00AC" unicode="&#xac;" horiz-adv-x="624" 
d="M75 382h419v-215h20v235h-439v-20z" />
    <glyph glyph-name="uni00AD" unicode="&#xad;" horiz-adv-x="441" 
d="M79 285h279v20h-279v-20z" />
    <glyph glyph-name="uni00AE" unicode="&#xae;" horiz-adv-x="831" 
d="M78 350c0 50.667 9 97.167 27 139.5s42.167 79 72.5 110s65.833 55.167 106.5 72.5s84 26 130 26s89.5 -8.66699 130.5 -26s76.833 -41.5 107.5 -72.5s55 -67.667 73 -110s27 -88.833 27 -139.5s-9 -97.334 -27 -140.001s-42.333 -79.5 -73 -110.5
s-66.5 -55.333 -107.5 -73s-84.5 -26.5 -130.5 -26.5s-89.333 8.83301 -130 26.5s-76.167 42 -106.5 73s-54.5 67.833 -72.5 110.5s-27 89.334 -27 140.001zM99 350c0 -48 8.33301 -92.333 25 -133s39.167 -75.5 67.5 -104.5s61.666 -51.667 99.999 -68
s79.166 -24.5 122.499 -24.5c44 0 85.167 8.16699 123.5 24.5s71.833 39 100.5 68s51.334 63.833 68.001 104.5s25 85 25 133s-8.33301 92.167 -25 132.5s-39.334 75 -68.001 104s-62.167 51.5 -100.5 67.5s-79.5 24 -123.5 24c-43.333 0 -84.166 -8 -122.499 -24
s-71.666 -38.5 -99.999 -67.5s-50.833 -63.667 -67.5 -104s-25 -84.5 -25 -132.5zM415 326l122 -152.001h-26l-118 151h-59v-151h-20v357h112c32.667 0 60.167 -8.83301 82.5 -26.5s33.833 -42.5 34.5 -74.5c0 -18 -3.66699 -33.667 -11 -47s-17 -24.166 -29 -32.499
s-25.667 -14.5 -41 -18.5s-31 -6 -47 -6zM334 511.999v-168.999h92c34 0.666992 58.667 10.167 74 28.5s23 38.166 23 59.499c0 22 -7.66699 41 -23 57s-40 24 -74 24h-92z" />
    <glyph glyph-name="uni00AF" unicode="&#xaf;" horiz-adv-x="509" 
d="M136 766h241v19h-241v-19z" />
    <glyph glyph-name="uni00B0" unicode="&#xb0;" horiz-adv-x="392" 
d="M191 496c-14.667 0 -28.334 2.83301 -41.001 8.5s-23.834 13.167 -33.501 22.5s-17.167 20.333 -22.5 33s-8 26.334 -8 41.001s2.66699 28.334 8 41.001s12.833 23.834 22.5 33.501s20.834 17.167 33.501 22.5s26.334 8 41.001 8s28.5 -2.66699 41.5 -8
s24.167 -12.833 33.5 -22.5s16.833 -20.834 22.5 -33.501s8.5 -26.334 8.5 -41.001s-2.83301 -28.334 -8.5 -41.001s-13.167 -23.667 -22.5 -33s-20.5 -16.833 -33.5 -22.5s-26.833 -8.5 -41.5 -8.5zM191 513c12 0 23.333 2.5 34 7.5s19.834 11.5 27.501 19.5
s13.834 17.333 18.501 28s7 21.667 7 33s-2.33301 22.166 -7 32.499s-10.834 19.5 -18.501 27.5s-16.834 14.5 -27.501 19.5s-22 7.5 -34 7.5s-23.333 -2.5 -34 -7.5s-19.834 -11.5 -27.501 -19.5s-13.834 -17.167 -18.501 -27.5s-7 -21.166 -7 -32.499
s2.33301 -22.333 7 -33s10.834 -20 18.501 -28s16.834 -14.5 27.501 -19.5s22 -7.5 34 -7.5z" />
    <glyph glyph-name="uni00B1" unicode="&#xb1;" horiz-adv-x="631" 
d="M101 27v-19h425v19h-425zM101 369h198v-206h21v206h198v20h-198v199h-21v-199h-198v-20z" />
    <glyph glyph-name="uni00B2" unicode="&#xb2;" horiz-adv-x="405" 
d="M291 545l-191.998 -185.001h250v-21h-269l-12 20l87 83l57 55.5l38 37l28 26.5c19.333 18 31.5 36.833 36.5 56.5s4.16699 37.834 -2.5 54.501s-18.667 30.834 -36 42.501s-38.666 18.5 -63.999 20.5c-26 0 -48.167 -3.83301 -66.5 -11.5s-35.833 -21.834 -52.5 -42.501
l-16 12c18 24.667 37.833 41.167 59.5 49.5s47.167 12.5 76.5 12.5c29.333 -1.33301 54.166 -9 74.499 -23s34.666 -31.333 42.999 -52s9.66602 -43 3.99902 -67s-20.167 -46.667 -43.5 -68z" />
    <glyph glyph-name="uni00B3" unicode="&#xb3;" horiz-adv-x="416" 
d="M346 424c0 -19.333 -4.17188 -36.6768 -12.5049 -52.0098s-19.166 -28.166 -32.499 -38.499s-28.5 -18.166 -45.5 -23.499s-34.167 -8 -51.5 -8c-25.333 0 -49.666 6.33301 -72.999 19s-43.333 30.667 -60 54l15 11c15.333 -21.333 32.166 -37.166 50.499 -47.499
s41.5 -15.5 69.5 -15.5c14 0 28 2.33301 42 7s26.833 11.334 38.5 20.001s21 19.334 28 32.001s10.5 27 10.5 43s-3.16699 30.333 -9.5 43s-14.666 23.334 -24.999 32.001s-22.166 15.334 -35.499 20.001s-27 7 -41 7h-37v19h37c12.667 0 24.834 1.66699 36.501 5
s22 8.33301 31 15s16.333 15.334 22 26.001s8.5 23 8.5 37c0 14.667 -3 27.834 -9 39.501s-14 21.5 -24 29.5s-21.333 14.167 -34 18.5s-25.667 6.5 -39 6.5c-21.333 0 -39.833 -3.5 -55.5 -10.5s-30.5 -19.833 -44.5 -38.5l-14 11c28.667 38.667 66.334 58 113.001 58
c16 0 31.667 -2.66699 47 -8s29 -12.833 41 -22.5s21.667 -21.5 29 -35.5s11 -30 11 -48c0 -22 -7 -41.833 -21 -59.5s-30 -28.5 -48 -32.5v-1c14 -4 26.167 -10.333 36.5 -19s19 -18.167 26 -28.5s12 -21.166 15 -32.499s4.5 -22 4.5 -32z" />
    <glyph glyph-name="uni00B4" unicode="&#xb4;" horiz-adv-x="485" 
d="M291 851h-30l-57 -99h21z" />
    <glyph glyph-name="uni00B5" unicode="&#xb5;" horiz-adv-x="551" 
d="M448 507l0.00292969 -507.999h-22l1 132c-10 -22.667 -22.5 -40.834 -37.5 -54.501s-30.333 -24.334 -46 -32.001s-30.667 -12.667 -45 -15s-25.5 -3.5 -33.5 -3.5c-6.66699 0 -16.334 1 -29.001 3s-26 6.16699 -40 12.5s-27.333 15.333 -40 27s-22 27.167 -28 46.5v-313
h-20v705h22v-310c0 -18.667 2.5 -37 7.5 -55s13 -34 24 -48s24.833 -25.333 41.5 -34s37 -13 61 -13c21.333 0 41.666 4 60.999 12s36.666 19.667 51.999 35s27.5 34.833 36.5 58.5s13.5 50.834 13.5 81.501v273h21z" />
    <glyph glyph-name="uni00B5" unicode="&#x3bc;" horiz-adv-x="551" 
d="M448 507l0.00292969 -507.999h-22l1 132c-10 -22.667 -22.5 -40.834 -37.5 -54.501s-30.333 -24.334 -46 -32.001s-30.667 -12.667 -45 -15s-25.5 -3.5 -33.5 -3.5c-6.66699 0 -16.334 1 -29.001 3s-26 6.16699 -40 12.5s-27.333 15.333 -40 27s-22 27.167 -28 46.5v-313
h-20v705h22v-310c0 -18.667 2.5 -37 7.5 -55s13 -34 24 -48s24.833 -25.333 41.5 -34s37 -13 61 -13c21.333 0 41.666 4 60.999 12s36.666 19.667 51.999 35s27.5 34.833 36.5 58.5s13.5 50.834 13.5 81.501v273h21z" />
    <glyph glyph-name="uni00B6" unicode="&#xb6;" horiz-adv-x="566" 
d="M267 -111v432c-34.667 1.33301 -64.834 7.66602 -90.501 18.999s-47.167 25.833 -64.5 43.5s-30.333 37.334 -39 59.001s-13 43.5 -13 65.5c0 24 4.33301 47.5 13 70.5s21.667 43.5 39 61.5s38.833 32.5 64.5 43.5s55.834 16.5 90.501 16.5h194v-811h-20v792h-154v-792
h-20z" />
    <glyph glyph-name="uni00B7" unicode="&#xb7;" horiz-adv-x="270" 
d="M116 279h28v29h-28v-29z" />
    <glyph glyph-name="uni00B8" unicode="&#xb8;" horiz-adv-x="509" 
d="M283 5l-32.9961 -58c17.333 0 31.666 -2.33301 42.999 -7s20.166 -10.5 26.499 -17.5s10.666 -14.833 12.999 -23.5s2.83301 -16.667 1.5 -24c-3.33301 -17.333 -12.333 -30.333 -27 -39s-32.667 -13 -54 -13c-9.33301 0 -19.333 1.33301 -30 4
s-21.667 7.33398 -33 14.001l3 17c7.33301 -4.66699 16.166 -8.33398 26.499 -11.001s20.833 -4 31.5 -4c15.333 0 29 2.83301 41 8.5s19 14.5 21 26.5c1.33301 8.66699 0 16.5 -4 23.5s-9.66699 12.667 -17 17s-16 7.66602 -26 9.99902s-20 3.5 -30 3.5
c-6.66699 0 -11.667 -0.333008 -15 -1c6.66699 13.333 13.5 25.833 20.5 37.5s13.833 23.834 20.5 36.501h21z" />
    <glyph glyph-name="uni00B9" unicode="&#xb9;" horiz-adv-x="295" 
d="M136 270h21v430h-85v-19h64v-411z" />
    <glyph glyph-name="uni00BA" unicode="&#xba;" horiz-adv-x="477" 
d="M109 303v21h263v-21h-263zM238 425c-19.333 0 -37.3359 3.33301 -54.0029 10s-31 16 -43 28s-21.5 26.333 -28.5 43s-10.5 35 -10.5 55c0 19.333 3.5 37 10.5 53s16.5 30 28.5 42s26.333 21.333 43 28s34.334 10 53.001 10c19.333 0 37.333 -3.33301 54 -10
s31.167 -16 43.5 -28s22 -26 29 -42s10.5 -33.667 10.5 -53c0 -20 -3.5 -38.333 -10.5 -55s-16.667 -31 -29 -43s-26.666 -21.333 -42.999 -28s-34.166 -10 -53.499 -10zM237.997 444c15.333 0 30 2.83301 44 8.5s26.167 13.667 36.5 24s18.5 22.666 24.5 36.999
s9 30.166 9 47.499s-3 33 -9 47s-14.167 26 -24.5 36s-22.5 17.667 -36.5 23s-28.667 8 -44 8c-16 0 -30.833 -2.66699 -44.5 -8s-25.834 -13 -36.501 -23s-19 -22 -25 -36s-9 -29.667 -9 -47s3 -33.166 9 -47.499s14.333 -26.666 25 -36.999s22.834 -18.333 36.501 -24
s28.5 -8.5 44.5 -8.5z" />
    <glyph glyph-name="uni00BB" unicode="&#xbb;" horiz-adv-x="519" 
d="M119 477h-27l157 -193l-157 -196h27l155 196zM284 477h-27l157 -193l-157 -196h27l155 196z" />
    <glyph glyph-name="uni00BC" unicode="&#xbc;" horiz-adv-x="893" 
d="M150 298v383h-64v19h85v-402h-21zM236 -23h-24l185 384.5l185 384.5h24l-185 -384.5zM768 419v-298h46v-21h-46v-100h-22v100h-218l-16 23l221 296h35zM536 121h211v283z" />
    <glyph glyph-name="uni00BD" unicode="&#xbd;" horiz-adv-x="928" 
d="M222 -23h-24l370 769h24zM777 206l-191.998 -185.001h250v-21h-269l-12 20l87 83l57 55.5l38 37l28 26.5c19.333 18 31.5 36.833 36.5 56.5s4.16699 37.834 -2.5 54.501s-18.667 30.834 -36 42.501s-38.666 18.5 -63.999 20.5c-26 0 -48.167 -3.83301 -66.5 -11.5
s-35.833 -21.834 -52.5 -42.501l-16 12c18 24.667 37.833 41.167 59.5 49.5s47.167 12.5 76.5 12.5c29.333 -1.33301 54.166 -9 74.499 -23s34.666 -31.333 42.999 -52s9.66602 -43 3.99902 -67s-20.167 -46.667 -43.5 -68zM141.002 297.999v383h-64v19h85v-402h-21z" />
    <glyph glyph-name="uni00BE" unicode="&#xbe;" horiz-adv-x="946" 
d="M806 419v-298h46v-21h-46v-100h-22v100h-218l-16 23l221 296h35zM574 121h211v283zM324 424c0 -19.333 -4.17188 -36.6768 -12.5049 -52.0098s-19.166 -28.166 -32.499 -38.499s-28.5 -18.166 -45.5 -23.499s-34.167 -8 -51.5 -8c-25.333 0 -49.666 6.33301 -72.999 19
s-43.333 30.667 -60 54l15 11c15.333 -21.333 32.166 -37.166 50.499 -47.499s41.5 -15.5 69.5 -15.5c14 0 28 2.33301 42 7s26.833 11.334 38.5 20.001s21 19.334 28 32.001s10.5 27 10.5 43s-3.16699 30.333 -9.5 43s-14.666 23.334 -24.999 32.001
s-22.166 15.334 -35.499 20.001s-27 7 -41 7h-37v19h37c12.667 0 24.834 1.66699 36.501 5s22 8.33301 31 15s16.333 15.334 22 26.001s8.5 23 8.5 37c0 14.667 -3 27.834 -9 39.501s-14 21.5 -24 29.5s-21.333 14.167 -34 18.5s-25.667 6.5 -39 6.5
c-21.333 0 -39.833 -3.5 -55.5 -10.5s-30.5 -19.833 -44.5 -38.5l-14 11c28.667 38.667 66.334 58 113.001 58c16 0 31.667 -2.66699 47 -8s29 -12.833 41 -22.5s21.667 -21.5 29 -35.5s11 -30 11 -48c0 -22 -7 -41.833 -21 -59.5s-30 -28.5 -48 -32.5v-1
c14 -4 26.167 -10.333 36.5 -19s19 -18.167 26 -28.5s12 -21.166 15 -32.499s4.5 -22 4.5 -32zM287.995 -23.0107h-24l370 769h24z" />
    <glyph glyph-name="uni00BF" unicode="&#xbf;" horiz-adv-x="491" 
d="M427 -110l15 -12.9961c-22 -26.667 -46.5 -44.834 -73.5 -54.501s-56.5 -14.5 -88.5 -14.5c-24.667 0 -49.334 4.66699 -74.001 14s-46.5 22.666 -65.5 39.999s-34.333 38 -46 62s-17.5 51 -17.5 81c0.666992 55.333 19.167 100.833 55.5 136.5s85.5 58.167 147.5 67.5
c0 12.667 0.166992 26.667 0.5 42s0.5 31.166 0.5 47.499s0.166992 32.166 0.5 47.499s0.5 29.333 0.5 42h19v-196c-26 -2.66699 -51.333 -8.5 -76 -17.5s-46.5 -21.333 -65.5 -37s-34.167 -34.667 -45.5 -57s-16.666 -47.833 -15.999 -76.5
c0.666992 -28 6.33398 -53 17.001 -75s24.667 -40.5 42 -55.5s36.666 -26.333 57.999 -34s43 -11.5 65 -11.5c27.333 0 53.5 4 78.5 12s47.833 24.667 68.5 50zM277 515.004h25v-48h-25v48z" />
    <glyph glyph-name="uni00C0" unicode="&#xc0;" horiz-adv-x="631" 
d="M42 0h24l88 248h323l91 -248h24l-256 703h-40zM308 764h21l-57 99h-30zM322 684l149 -415h-309l148 415h12z" />
    <glyph glyph-name="uni00C1" unicode="&#xc1;" horiz-adv-x="631" 
d="M42 0h24l88 248h323l91 -248h24l-256 703h-40zM391 865h-30l-57 -99h21zM322 684l149 -415h-309l148 415h12z" />
    <glyph glyph-name="uni00C2" unicode="&#xc2;" horiz-adv-x="631" 
d="M42 0h24l88 248h323l91 -248h24l-256 703h-40zM387 751h23l-82 96h-26l-82 -96h23l72 79zM322 684l149 -415h-309l148 415h12z" />
    <glyph glyph-name="uni00C3" unicode="&#xc3;" horiz-adv-x="631" 
d="M42 0l254 703h40l256 -703h-24l-91 248h-323l-88 -248h-24zM322 684h-12l-148 -415h309zM415 811l10.9971 -7.99902c-8 -13.333 -16.667 -23 -26 -29s-19.666 -9 -30.999 -9c-8 0 -16 2 -24 6s-15.833 8.16699 -23.5 12.5l-23 12.5c-7.66699 4 -15.167 6 -22.5 6
s-14.666 -1.33301 -21.999 -4s-14.666 -9.66699 -21.999 -21l-12 7c7.33301 16 16.666 26.167 27.999 30.5s21 6.5 29 6.5s16 -2 24 -6s15.833 -8.16699 23.5 -12.5l23 -12.5c7.66699 -4 15.5 -6 23.5 -6c6.66699 0 13.834 1.66699 21.501 5s15.167 10.666 22.5 21.999z" />
    <glyph glyph-name="uni00C4" unicode="&#xc4;" horiz-adv-x="631" 
d="M42 0h24l88 248h323l91 -248h24l-256 703h-40zM246 764v37h-34v-37h34zM419 764v37h-34v-37h34zM322 684l149 -415h-309l148 415h12z" />
    <glyph glyph-name="uni00C5" unicode="&#xc5;" horiz-adv-x="631" 
d="M317 795l1.99707 -0.00292969c16 0 28.333 -4.5 37 -13.5s13.834 -19.333 15.501 -31s-0.166016 -23.167 -5.49902 -34.5s-14 -19.666 -26 -24.999l252 -691h-24l-91 248h-323l-88 -248h-24l250 691c-12.667 5.33301 -21.667 13.833 -27 25.5s-7 23.334 -5 35.001
s7.83301 21.834 17.5 30.501s22.834 13 39.501 13zM321.997 683.997h-12l-148 -415h309zM316.997 777.997c-13.333 0 -23.333 -3.83301 -30 -11.5s-10 -16.167 -10 -25.5s3.33301 -18 10 -26s16.667 -12 30 -12s23.333 4 30 12s10 16.667 10 26s-3.33301 17.833 -10 25.5
s-16.667 11.5 -30 11.5z" />
    <glyph glyph-name="uni00C6" unicode="&#xc6;" horiz-adv-x="859" 
d="M435 700l-367 -700h24l137 261h228v-261h328v18h-308v326h305v18h-305v319h308v19h-350zM457 683v-403h-219l210 403h9z" />
    <glyph glyph-name="uni00C7" unicode="&#xc7;" horiz-adv-x="729" 
d="M418 -7l-25 -44.9971c17.333 0 31.666 -2.33301 42.999 -7s20.166 -10.5 26.499 -17.5s10.666 -14.833 12.999 -23.5s2.83301 -16.667 1.5 -24c-3.33301 -17.333 -12.333 -30.333 -27 -39s-32.667 -13 -54 -13c-9.33301 0 -19.333 1.33301 -30 4
s-21.667 7.33398 -33 14.001l3 17c7.33301 -4.66699 16.166 -8.33398 26.499 -11.001s20.833 -4 31.5 -4c15.333 0 29 2.83301 41 8.5s19 14.5 21 26.5c1.33301 8.66699 0 16.5 -4 23.5s-9.66699 12.667 -17 17s-16 7.66602 -26 9.99902s-20 3.5 -30 3.5
c-6.66699 0 -11.667 -0.333008 -15 -1c5.33301 11.333 11 21.833 17 31.5s11.667 19.834 17 30.501c-52 1.33301 -98.833 11.5 -140.5 30.5s-77 44.5 -106 76.5s-51.333 69.167 -67 111.5s-23.5 87.166 -23.5 134.499s7.83301 92.666 23.5 135.999s38.334 81.5 68.001 114.5
s66.167 59.333 109.5 79s92.666 29.5 147.999 29.5c52 0 96.167 -8.33301 132.5 -25s70.5 -42.334 102.5 -77.001l-13 -14c-14 14 -28.167 27 -42.5 39s-30.166 22.167 -47.499 30.5s-36.666 14.833 -57.999 19.5s-46 7 -74 7c-47.333 0 -91 -8.16699 -131 -24.5
s-74.5 -39.166 -103.5 -68.499s-51.667 -64.833 -68 -106.5s-24.5 -88.167 -24.5 -139.5c0 -46.667 7.83301 -90.167 23.5 -130.5s37.834 -75.5 66.501 -105.5s63.167 -53.667 103.5 -71s84.833 -26 133.5 -26c44.667 0 87.667 9.16699 129 27.5
s77.666 46.166 108.999 83.499l15 -13c-31.333 -38 -67.666 -67 -108.999 -87s-86.666 -30.667 -135.999 -32z" />
    <glyph glyph-name="uni00C8" unicode="&#xc8;" horiz-adv-x="527" 
d="M449 700h-343v-700h343v21h-321v333h317v20h-316v305h320v21zM287 764h21l-57 99h-30z" />
    <glyph glyph-name="uni00C9" unicode="&#xc9;" horiz-adv-x="527" 
d="M449 700h-343v-700h343v21h-321v333h317v20h-316v305h320v21zM345 859h-30l-57 -99h21z" />
    <glyph glyph-name="uni00CA" unicode="&#xca;" horiz-adv-x="527" 
d="M449 700h-343v-700h343v21h-321v333h317v20h-316v305h320v21zM352 764h23l-82 96h-26l-82 -96h23l72 79z" />
    <glyph glyph-name="uni00CB" unicode="&#xcb;" horiz-adv-x="527" 
d="M449 700h-343v-700h343v21h-321v333h317v20h-316v305h320v21zM212 778v37h-34v-37h34zM385 778v37h-34v-37h34z" />
    <glyph glyph-name="uni00CC" unicode="&#xcc;" horiz-adv-x="281" 
d="M130 0h22v700h-22v-700zM129 749h21l-57 99h-30z" />
    <glyph glyph-name="uni00CD" unicode="&#xcd;" horiz-adv-x="281" 
d="M216 848h-30l-57 -99h21zM130 700h22v-700h-22v700z" />
    <glyph glyph-name="uni00CE" unicode="&#xce;" horiz-adv-x="281" 
d="M130 0h22v700h-22v-700zM212 749h23l-82 96h-26l-82 -96h23l72 79z" />
    <glyph glyph-name="uni00CF" unicode="&#xcf;" horiz-adv-x="281" 
d="M130 0h22v700h-22v-700zM72 749v37h-34v-37h34zM245 749v37h-34v-37h34z" />
    <glyph glyph-name="uni00D0" unicode="&#xd0;" horiz-adv-x="725" 
d="M61 338l0.000976562 20h68v342h189c55.333 0 103.666 -10.167 144.999 -30.5s75.666 -46.833 102.999 -79.5s48 -70 62 -112s21 -84.833 21 -128.5s-7 -86.5 -21 -128.5s-34.833 -79.333 -62.5 -112s-62.167 -59 -103.5 -79s-89.666 -30 -144.999 -30h-188v338h-68z
M151.001 21l165 -0.000976562c52 0 97.5 9.33301 136.5 28s71.5 43.334 97.5 74.001s45.5 65.667 58.5 105s19.5 79.666 19.5 120.999s-6.5 81.833 -19.5 121.5s-32.333 74.834 -58 105.501s-58 55.5 -97 74.5s-84.167 28.5 -135.5 28.5h-167v-321h148v-20h-148v-317z" />
    <glyph glyph-name="uni00D1" unicode="&#xd1;" horiz-adv-x="729" 
d="M579 12h2v688h22v-701h-41l-408 688h-2v-687h-22v701h40zM458 794l10.9971 -7.99902c-8 -13.333 -16.667 -23 -26 -29s-19.666 -9 -30.999 -9c-8 0 -16 2 -24 6s-15.833 8.16699 -23.5 12.5l-23 12.5c-7.66699 4 -15.167 6 -22.5 6s-14.666 -1.33301 -21.999 -4
s-14.666 -9.66699 -21.999 -21l-12 7c7.33301 16 16.666 26.167 27.999 30.5s21 6.5 29 6.5s16 -2 24 -6s15.833 -8.16699 23.5 -12.5l23 -12.5c7.66699 -4 15.5 -6 23.5 -6c6.66699 0 13.834 1.66699 21.501 5s15.167 10.666 22.5 21.999z" />
    <glyph glyph-name="uni00D2" unicode="&#xd2;" horiz-adv-x="849" 
d="M423 711c52 -0.666992 99.833 -10.333 143.5 -29s81 -44.167 112 -76.5s55.167 -70.333 72.5 -114s26 -91.167 26 -142.5c0 -61.333 -10.667 -114.666 -32 -159.999s-49 -82.833 -83 -112.5s-72 -51.834 -114 -66.501s-83.667 -22 -125 -22s-83 7.33301 -125 22
s-79.833 36.834 -113.5 66.501s-61 67.167 -82 112.5s-31.5 98.666 -31.5 159.999c0 54.667 9.16699 104.334 27.5 149.001s43.333 82.667 75 114s69 55.666 112 72.999s88.833 26 137.5 26zM423 691.001c-46 0 -89.1641 -8.16895 -129.497 -24.502
s-75.333 -39.333 -105 -69s-53 -65.5 -70 -107.5s-25.5 -89 -25.5 -141c0 -57.333 9.83301 -107.333 29.5 -150s45.167 -78.167 76.5 -106.5s66.666 -49.5 105.999 -63.5s78.666 -21 117.999 -21s78.666 6.83301 117.999 20.5s74.833 34.667 106.5 63
s57.5 63.833 77.5 106.5s30 93 30 151c0 48 -8 92.833 -24 134.5s-38.667 77.834 -68 108.501s-64.333 54.834 -105 72.501s-85.667 26.5 -135 26.5zM413.003 759.999l-66 99h30l57 -99h-21z" />
    <glyph glyph-name="uni00D3" unicode="&#xd3;" horiz-adv-x="849" 
d="M423 691c-46 0 -89.1641 -8.16895 -129.497 -24.502s-75.333 -39.333 -105 -69s-53 -65.5 -70 -107.5s-25.5 -89 -25.5 -141c0 -57.333 9.83301 -107.333 29.5 -150s45.167 -78.167 76.5 -106.5s66.666 -49.5 105.999 -63.5s78.666 -21 117.999 -21
s78.666 6.83301 117.999 20.5s74.833 34.667 106.5 63s57.5 63.833 77.5 106.5s30 93 30 151c0 48 -8 92.833 -24 134.5s-38.667 77.834 -68 108.501s-64.333 54.834 -105 72.501s-85.667 26.5 -135 26.5zM423.003 710.998c52 -0.666992 99.833 -10.333 143.5 -29
s81 -44.167 112 -76.5s55.167 -70.333 72.5 -114s26 -91.167 26 -142.5c0 -61.333 -10.667 -114.666 -32 -159.999s-49 -82.833 -83 -112.5s-72 -51.834 -114 -66.501s-83.667 -22 -125 -22s-83 7.33301 -125 22s-79.833 36.834 -113.5 66.501s-61 67.167 -82 112.5
s-31.5 98.666 -31.5 159.999c0 54.667 9.16699 104.334 27.5 149.001s43.333 82.667 75 114s69 55.666 112 72.999s88.833 26 137.5 26zM497.003 858.999l-66 -99h-21l57 99h30z" />
    <glyph glyph-name="uni00D4" unicode="&#xd4;" horiz-adv-x="849" 
d="M423 711c52 -0.666992 99.833 -10.333 143.5 -29s81 -44.167 112 -76.5s55.167 -70.333 72.5 -114s26 -91.167 26 -142.5c0 -61.333 -10.667 -114.666 -32 -159.999s-49 -82.833 -83 -112.5s-72 -51.834 -114 -66.501s-83.667 -22 -125 -22s-83 7.33301 -125 22
s-79.833 36.834 -113.5 66.501s-61 67.167 -82 112.5s-31.5 98.666 -31.5 159.999c0 54.667 9.16699 104.334 27.5 149.001s43.333 82.667 75 114s69 55.666 112 72.999s88.833 26 137.5 26zM423 691.001c-46 0 -89.1641 -8.16895 -129.497 -24.502
s-75.333 -39.333 -105 -69s-53 -65.5 -70 -107.5s-25.5 -89 -25.5 -141c0 -57.333 9.83301 -107.333 29.5 -150s45.167 -78.167 76.5 -106.5s66.666 -49.5 105.999 -63.5s78.666 -21 117.999 -21s78.666 6.83301 117.999 20.5s74.833 34.667 106.5 63
s57.5 63.833 77.5 106.5s30 93 30 151c0 48 -8 92.833 -24 134.5s-38.667 77.834 -68 108.501s-64.333 54.834 -105 72.501s-85.667 26.5 -135 26.5zM492.003 751.999l-72 79l-72 -79h-23l82 96h26l82 -96h-23z" />
    <glyph glyph-name="uni00D5" unicode="&#xd5;" horiz-adv-x="849" 
d="M423 711c52 -0.666992 99.833 -10.333 143.5 -29s81 -44.167 112 -76.5s55.167 -70.333 72.5 -114s26 -91.167 26 -142.5c0 -61.333 -10.667 -114.666 -32 -159.999s-49 -82.833 -83 -112.5s-72 -51.834 -114 -66.501s-83.667 -22 -125 -22s-83 7.33301 -125 22
s-79.833 36.834 -113.5 66.501s-61 67.167 -82 112.5s-31.5 98.666 -31.5 159.999c0 54.667 9.16699 104.334 27.5 149.001s43.333 82.667 75 114s69 55.666 112 72.999s88.833 26 137.5 26zM423 691.001c-46 0 -89.1641 -8.16895 -129.497 -24.502
s-75.333 -39.333 -105 -69s-53 -65.5 -70 -107.5s-25.5 -89 -25.5 -141c0 -57.333 9.83301 -107.333 29.5 -150s45.167 -78.167 76.5 -106.5s66.666 -49.5 105.999 -63.5s78.666 -21 117.999 -21s78.666 6.83301 117.999 20.5s74.833 34.667 106.5 63
s57.5 63.833 77.5 106.5s30 93 30 151c0 48 -8 92.833 -24 134.5s-38.667 77.834 -68 108.501s-64.333 54.834 -105 72.501s-85.667 26.5 -135 26.5zM525.003 805.999l12.9971 -7.99902c-8 -13.333 -17 -23 -27 -29s-20.667 -9 -32 -9c-8 0 -16 2 -24 6
s-15.833 8.16699 -23.5 12.5l-23 12.5c-7.66699 4 -15.167 6 -22.5 6s-14.666 -1.33301 -21.999 -4s-14.666 -9.66699 -21.999 -21l-14 7c7.33301 16 17 26.167 29 30.5s22 6.5 30 6.5s16 -2 24 -6s15.833 -8.16699 23.5 -12.5l23 -12.5c7.66699 -4 15.5 -6 23.5 -6
c6.66699 0 13.834 1.66699 21.501 5s15.167 10.666 22.5 21.999z" />
    <glyph glyph-name="uni00D6" unicode="&#xd6;" horiz-adv-x="849" 
d="M423 711c52 -0.666992 99.833 -10.333 143.5 -29s81 -44.167 112 -76.5s55.167 -70.333 72.5 -114s26 -91.167 26 -142.5c0 -61.333 -10.667 -114.666 -32 -159.999s-49 -82.833 -83 -112.5s-72 -51.834 -114 -66.501s-83.667 -22 -125 -22s-83 7.33301 -125 22
s-79.833 36.834 -113.5 66.501s-61 67.167 -82 112.5s-31.5 98.666 -31.5 159.999c0 54.667 9.16699 104.334 27.5 149.001s43.333 82.667 75 114s69 55.666 112 72.999s88.833 26 137.5 26zM423 691.001c-46 0 -89.1641 -8.16895 -129.497 -24.502
s-75.333 -39.333 -105 -69s-53 -65.5 -70 -107.5s-25.5 -89 -25.5 -141c0 -57.333 9.83301 -107.333 29.5 -150s45.167 -78.167 76.5 -106.5s66.666 -49.5 105.999 -63.5s78.666 -21 117.999 -21s78.666 6.83301 117.999 20.5s74.833 34.667 106.5 63
s57.5 63.833 77.5 106.5s30 93 30 151c0 48 -8 92.833 -24 134.5s-38.667 77.834 -68 108.501s-64.333 54.834 -105 72.501s-85.667 26.5 -135 26.5zM357.003 764.999h-34v37h34v-37zM530.003 764.999h-34v37h34v-37z" />
    <glyph glyph-name="uni00D7" unicode="&#xd7;" horiz-adv-x="503" 
d="M86 442l151 -151l-154 -154l14 -13l153 155l150 -151l13 12l-151 150l146 146l-14 12l-144 -144l-150 150z" />
    <glyph glyph-name="uni00D8" unicode="&#xd8;" horiz-adv-x="849" 
d="M600 666l48 81.002h23l-54 -91c50 -32 89.167 -74.5 117.5 -127.5s42.5 -112.833 42.5 -179.5c0 -61.333 -10.667 -114.666 -32 -159.999s-49 -83 -83 -113s-72 -52.333 -114 -67s-83.667 -22 -125 -22c-30 0 -59.833 3.5 -89.5 10.5s-58.5 18.167 -86.5 33.5l-43 -73
h-25l50 84c-22.667 14 -43.667 31 -63 51s-36 42.667 -50 68s-25 53.666 -33 84.999s-12 65.666 -12 102.999c0 54.667 9.16699 104.334 27.5 149.001s43.333 82.667 75 114s69 55.666 112 72.999s88.833 26 137.5 26c33.333 -0.666992 64.833 -4.83398 94.5 -12.501
s57.167 -18.5 82.5 -32.5zM423 691.002c-46 0 -89.167 -8.16602 -129.5 -24.499s-75.333 -39.333 -105 -69s-53 -65.5 -70 -107.5s-25.5 -89 -25.5 -141c0 -68.667 14 -127 42 -175s63 -85.667 105 -113l349 587c-48 27.333 -103.333 41.666 -166 42.999zM423 8.00293
c39.333 0 78.667 6.83301 118 20.5s74.833 34.667 106.5 63s57.5 63.833 77.5 106.5s30 93 30 151c0 62 -13.167 118.167 -39.5 168.5s-62.833 90.5 -109.5 120.5l-348 -588c26 -14 53 -24.5 81 -31.5s56 -10.5 84 -10.5z" />
    <glyph glyph-name="uni00D9" unicode="&#xd9;" horiz-adv-x="653" 
d="M120 700l21.999 -0.00292969v-516c0 -28 5.33301 -52.667 16 -74s24.5 -39.166 41.5 -53.499s36.5 -25.166 58.5 -32.499s44.333 -11 67 -11c23.333 0 46 3.5 68 10.5s41.833 17.5 59.5 31.5s32 31.833 43 53.5s16.833 46.834 17.5 75.501v516h22v-516
c0 -32 -6 -60 -18 -84s-27.833 -44 -47.5 -60s-42.167 -27.833 -67.5 -35.5s-51 -11.5 -77 -11.5s-51.167 4 -75.5 12s-46.166 20 -65.499 36s-34.833 35.833 -46.5 59.5s-17.5 51.5 -17.5 83.5v516zM330.999 762.997l-66 99h30l57 -99h-21z" />
    <glyph glyph-name="uni00DA" unicode="&#xda;" horiz-adv-x="653" 
d="M120 700l21.999 -0.00292969v-516c0 -28 5.33301 -52.667 16 -74s24.5 -39.166 41.5 -53.499s36.5 -25.166 58.5 -32.499s44.333 -11 67 -11c23.333 0 46 3.5 68 10.5s41.833 17.5 59.5 31.5s32 31.833 43 53.5s16.833 46.834 17.5 75.501v516h22v-516
c0 -32 -6 -60 -18 -84s-27.833 -44 -47.5 -60s-42.167 -27.833 -67.5 -35.5s-51 -11.5 -77 -11.5s-51.167 4 -75.5 12s-46.166 20 -65.499 36s-34.833 35.833 -46.5 59.5s-17.5 51.5 -17.5 83.5v516zM390.999 860.997l-66 -99h-21l57 99h30z" />
    <glyph glyph-name="uni00DB" unicode="&#xdb;" horiz-adv-x="653" 
d="M120 700l21.999 -0.00292969v-516c0 -28 5.33301 -52.667 16 -74s24.5 -39.166 41.5 -53.499s36.5 -25.166 58.5 -32.499s44.333 -11 67 -11c23.333 0 46 3.5 68 10.5s41.833 17.5 59.5 31.5s32 31.833 43 53.5s16.833 46.834 17.5 75.501v516h22v-516
c0 -32 -6 -60 -18 -84s-27.833 -44 -47.5 -60s-42.167 -27.833 -67.5 -35.5s-51 -11.5 -77 -11.5s-51.167 4 -75.5 12s-46.166 20 -65.499 36s-34.833 35.833 -46.5 59.5s-17.5 51.5 -17.5 83.5v516zM404.999 757.997l-72 79l-72 -79h-23l82 96h26l82 -96h-23z" />
    <glyph glyph-name="uni00DC" unicode="&#xdc;" horiz-adv-x="653" 
d="M120 700l21.999 -0.00292969v-516c0 -28 5.33301 -52.667 16 -74s24.5 -39.166 41.5 -53.499s36.5 -25.166 58.5 -32.499s44.333 -11 67 -11c23.333 0 46 3.5 68 10.5s41.833 17.5 59.5 31.5s32 31.833 43 53.5s16.833 46.834 17.5 75.501v516h22v-516
c0 -32 -6 -60 -18 -84s-27.833 -44 -47.5 -60s-42.167 -27.833 -67.5 -35.5s-51 -11.5 -77 -11.5s-51.167 4 -75.5 12s-46.166 20 -65.499 36s-34.833 35.833 -46.5 59.5s-17.5 51.5 -17.5 83.5v516zM258.999 766.997h-34v37h34v-37zM431.999 766.997h-34v37h34v-37z" />
    <glyph glyph-name="uni00DD" unicode="&#xdd;" horiz-adv-x="567" 
d="M350 866h-30l-57 -99h21zM295 283v-283h-21v284l-235 416h25l221 -397l222 397h24z" />
    <glyph glyph-name="uni00DE" unicode="&#xde;" horiz-adv-x="577" 
d="M147 167l-0.000976562 -167h-22v701h22v-139h160c34.667 0 65 -5.83301 91 -17.5s47.833 -26.834 65.5 -45.501s30.834 -40 39.501 -64s13 -48.333 13 -73c0 -25.333 -4.33301 -49.666 -13 -72.999s-21.667 -44 -39 -62s-39 -32.5 -65 -43.5s-56.333 -16.5 -91 -16.5
h-161zM146.999 187l159.997 -0.00195312c32.667 0 60.834 5.33301 84.501 16s43 24.334 58 41.001s26.167 35.334 33.5 56.001s11 41.334 11 62.001s-3.66699 41.667 -11 63s-18.666 40.666 -33.999 57.999s-34.666 31.5 -57.999 42.5s-51.333 16.5 -84 16.5h-160v-355z" />
    <glyph glyph-name="uni00DF" unicode="&#xdf;" horiz-adv-x="571" 
d="M338 379l-0.00292969 -0.995117c28 -3.33301 52.333 -11.333 73 -24s37.834 -27.834 51.501 -45.501s23.834 -36.667 30.501 -57s10 -40.166 10 -59.499c0 -33.333 -5.66699 -62.333 -17 -87s-26.5 -45 -45.5 -61s-41 -28 -66 -36s-50.833 -12 -77.5 -12
c-28 0 -56.667 4.66699 -86 14v21c16 -6.66699 28.833 -10.834 38.5 -12.501s22.834 -2.5 39.501 -2.5c32 0 60 4.83301 84 14.5s44 22.5 60 38.5s28 34.5 36 55.5s12 42.833 12 65.5c0 22 -4.16699 43.5 -12.5 64.5s-20.5 39.667 -36.5 56s-36 29.666 -60 39.999
s-51.667 15.5 -83 15.5h-50v22h50c25.333 0.666992 47.333 5.83398 66 15.501s34 22 46 37s20.667 31.5 26 49.5s7.33301 35.333 6 52c0 22.667 -4.16699 43 -12.5 61s-19.5 33.167 -33.5 45.5s-29.833 21.666 -47.5 27.999s-35.834 9.5 -54.501 9.5
c-19.333 0 -38.333 -3 -57 -9s-35.334 -15 -50.001 -27s-26.5 -27.5 -35.5 -46.5s-13.5 -41.5 -13.5 -67.5v-536h-22v536c0 27.333 5 51.5 15 72.5s23.333 38.833 40 53.5s35.834 25.667 57.501 33s43.5 11 65.5 11s43.167 -3.5 63.5 -10.5s38.5 -17.5 54.5 -31.5
s28.833 -31.333 38.5 -52s14.5 -44.334 14.5 -71.001c0 -6 -0.666992 -16.333 -2 -31s-5.66602 -30.334 -12.999 -47.001s-19 -32.834 -35 -48.501s-38.667 -27.5 -68 -35.5z" />
    <glyph glyph-name="uni00E0" unicode="&#xe0;" 
d="M462 0l-21 -0.00195312v66c-14 -14.667 -28.5 -26.834 -43.5 -36.501s-29.833 -17.167 -44.5 -22.5s-29 -9.16602 -43 -11.499s-26.667 -3.5 -38 -3.5c-45.333 -0.666992 -83.166 7 -113.499 23s-53 36 -68 60s-22.5 50.167 -22.5 78.5s7.83301 54.666 23.5 78.999
s39.334 44.666 71.001 60.999s71.167 24.833 118.5 25.5c17.333 0 41 -3.16699 71 -9.5s59.333 -18.166 88 -35.499v55c0 30 -4.66699 55.5 -14 76.5s-22 37.833 -38 50.5s-34.5 21.834 -55.5 27.501s-42.833 8.5 -65.5 8.5c-25.333 0 -49.333 -3.33301 -72 -10
s-45.334 -17.667 -68.001 -33l-11 16c22.667 17.333 47 29.5 73 36.5s52.333 10.5 79 10.5c25.333 0 49.666 -3.33301 72.999 -10s44 -17.167 62 -31.5s32.333 -33.166 43 -56.499s16 -51.666 16 -84.999v-329zM440 92.998l-0.000976562 159.001
c-27.333 16.667 -54.666 28.5 -81.999 35.5s-52.666 10.5 -75.999 10.5c-42.667 0 -78.167 -7 -106.5 -21s-49.5 -31.667 -63.5 -53s-21.167 -44.333 -21.5 -69s6.16699 -47.667 19.5 -69s33.5 -39 60.5 -53s60.833 -21 101.5 -21c28 0 57.667 7.16699 89 21.5
s57.666 34.166 78.999 59.499zM295.999 619.999l-66 99h30l57 -99h-21z" />
    <glyph glyph-name="uni00E1" unicode="&#xe1;" 
d="M462 0l-21 -0.00195312v66c-14 -14.667 -28.5 -26.834 -43.5 -36.501s-29.833 -17.167 -44.5 -22.5s-29 -9.16602 -43 -11.499s-26.667 -3.5 -38 -3.5c-45.333 -0.666992 -83.166 7 -113.499 23s-53 36 -68 60s-22.5 50.167 -22.5 78.5s7.83301 54.666 23.5 78.999
s39.334 44.666 71.001 60.999s71.167 24.833 118.5 25.5c17.333 0 41 -3.16699 71 -9.5s59.333 -18.166 88 -35.499v55c0 30 -4.66699 55.5 -14 76.5s-22 37.833 -38 50.5s-34.5 21.834 -55.5 27.501s-42.833 8.5 -65.5 8.5c-25.333 0 -49.333 -3.33301 -72 -10
s-45.334 -17.667 -68.001 -33l-11 16c22.667 17.333 47 29.5 73 36.5s52.333 10.5 79 10.5c25.333 0 49.666 -3.33301 72.999 -10s44 -17.167 62 -31.5s32.333 -33.166 43 -56.499s16 -51.666 16 -84.999v-329zM440 92.998l-0.000976562 159.001
c-27.333 16.667 -54.666 28.5 -81.999 35.5s-52.666 10.5 -75.999 10.5c-42.667 0 -78.167 -7 -106.5 -21s-49.5 -31.667 -63.5 -53s-21.167 -44.333 -21.5 -69s6.16699 -47.667 19.5 -69s33.5 -39 60.5 -53s60.833 -21 101.5 -21c28 0 57.667 7.16699 89 21.5
s57.666 34.166 78.999 59.499zM349.999 711.999l-66 -99h-21l57 99h30z" />
    <glyph glyph-name="uni00E2" unicode="&#xe2;" 
d="M462 0l-21 -0.00195312v66c-14 -14.667 -28.5 -26.834 -43.5 -36.501s-29.833 -17.167 -44.5 -22.5s-29 -9.16602 -43 -11.499s-26.667 -3.5 -38 -3.5c-45.333 -0.666992 -83.166 7 -113.499 23s-53 36 -68 60s-22.5 50.167 -22.5 78.5s7.83301 54.666 23.5 78.999
s39.334 44.666 71.001 60.999s71.167 24.833 118.5 25.5c17.333 0 41 -3.16699 71 -9.5s59.333 -18.166 88 -35.499v55c0 30 -4.66699 55.5 -14 76.5s-22 37.833 -38 50.5s-34.5 21.834 -55.5 27.501s-42.833 8.5 -65.5 8.5c-25.333 0 -49.333 -3.33301 -72 -10
s-45.334 -17.667 -68.001 -33l-11 16c22.667 17.333 47 29.5 73 36.5s52.333 10.5 79 10.5c25.333 0 49.666 -3.33301 72.999 -10s44 -17.167 62 -31.5s32.333 -33.166 43 -56.499s16 -51.666 16 -84.999v-329zM440 92.998l-0.000976562 159.001
c-27.333 16.667 -54.666 28.5 -81.999 35.5s-52.666 10.5 -75.999 10.5c-42.667 0 -78.167 -7 -106.5 -21s-49.5 -31.667 -63.5 -53s-21.167 -44.333 -21.5 -69s6.16699 -47.667 19.5 -69s33.5 -39 60.5 -53s60.833 -21 101.5 -21c28 0 57.667 7.16699 89 21.5
s57.666 34.166 78.999 59.499zM362.999 610.999l-72 79l-72 -79h-23l82 96h26l82 -96h-23z" />
    <glyph glyph-name="uni00E3" unicode="&#xe3;" 
d="M462 0l-21 -0.00195312v66c-14 -14.667 -28.5 -26.834 -43.5 -36.501s-29.833 -17.167 -44.5 -22.5s-29 -9.16602 -43 -11.499s-26.667 -3.5 -38 -3.5c-45.333 -0.666992 -83.166 7 -113.499 23s-53 36 -68 60s-22.5 50.167 -22.5 78.5s7.83301 54.666 23.5 78.999
s39.334 44.666 71.001 60.999s71.167 24.833 118.5 25.5c17.333 0 41 -3.16699 71 -9.5s59.333 -18.166 88 -35.499v55c0 30 -4.66699 55.5 -14 76.5s-22 37.833 -38 50.5s-34.5 21.834 -55.5 27.501s-42.833 8.5 -65.5 8.5c-25.333 0 -49.333 -3.33301 -72 -10
s-45.334 -17.667 -68.001 -33l-11 16c22.667 17.333 47 29.5 73 36.5s52.333 10.5 79 10.5c25.333 0 49.666 -3.33301 72.999 -10s44 -17.167 62 -31.5s32.333 -33.166 43 -56.499s16 -51.666 16 -84.999v-329zM440 92.998l-0.000976562 159.001
c-27.333 16.667 -54.666 28.5 -81.999 35.5s-52.666 10.5 -75.999 10.5c-42.667 0 -78.167 -7 -106.5 -21s-49.5 -31.667 -63.5 -53s-21.167 -44.333 -21.5 -69s6.16699 -47.667 19.5 -69s33.5 -39 60.5 -53s60.833 -21 101.5 -21c28 0 57.667 7.16699 89 21.5
s57.666 34.166 78.999 59.499zM380.999 681.999l10.9971 -7.99902c-8 -13.333 -16.667 -23 -26 -29s-19.666 -9 -30.999 -9c-8 0 -16 2 -24 6s-15.833 8.16699 -23.5 12.5l-23 12.5c-7.66699 4 -15.167 6 -22.5 6s-14.666 -1.33301 -21.999 -4s-14.666 -9.66699 -21.999 -21
l-12 7c7.33301 16 16.666 26.167 27.999 30.5s21 6.5 29 6.5s16 -2 24 -6s15.833 -8.16699 23.5 -12.5l23 -12.5c7.66699 -4 15.5 -6 23.5 -6c6.66699 0 13.834 1.66699 21.501 5s15.167 10.666 22.5 21.999z" />
    <glyph glyph-name="uni00E4" unicode="&#xe4;" 
d="M462 0l-21 -0.00195312v66c-14 -14.667 -28.5 -26.834 -43.5 -36.501s-29.833 -17.167 -44.5 -22.5s-29 -9.16602 -43 -11.499s-26.667 -3.5 -38 -3.5c-45.333 -0.666992 -83.166 7 -113.499 23s-53 36 -68 60s-22.5 50.167 -22.5 78.5s7.83301 54.666 23.5 78.999
s39.334 44.666 71.001 60.999s71.167 24.833 118.5 25.5c17.333 0 41 -3.16699 71 -9.5s59.333 -18.166 88 -35.499v55c0 30 -4.66699 55.5 -14 76.5s-22 37.833 -38 50.5s-34.5 21.834 -55.5 27.501s-42.833 8.5 -65.5 8.5c-25.333 0 -49.333 -3.33301 -72 -10
s-45.334 -17.667 -68.001 -33l-11 16c22.667 17.333 47 29.5 73 36.5s52.333 10.5 79 10.5c25.333 0 49.666 -3.33301 72.999 -10s44 -17.167 62 -31.5s32.333 -33.166 43 -56.499s16 -51.666 16 -84.999v-329zM440 92.998l-0.000976562 159.001
c-27.333 16.667 -54.666 28.5 -81.999 35.5s-52.666 10.5 -75.999 10.5c-42.667 0 -78.167 -7 -106.5 -21s-49.5 -31.667 -63.5 -53s-21.167 -44.333 -21.5 -69s6.16699 -47.667 19.5 -69s33.5 -39 60.5 -53s60.833 -21 101.5 -21c28 0 57.667 7.16699 89 21.5
s57.666 34.166 78.999 59.499zM220.999 646.999h-34v37h34v-37zM393.999 646.999h-34v37h34v-37z" />
    <glyph glyph-name="uni00E5" unicode="&#xe5;" 
d="M462 0l-21 -0.00195312v66c-14 -14.667 -28.5 -26.834 -43.5 -36.501s-29.833 -17.167 -44.5 -22.5s-29 -9.16602 -43 -11.499s-26.667 -3.5 -38 -3.5c-45.333 -0.666992 -83.166 7 -113.499 23s-53 36 -68 60s-22.5 50.167 -22.5 78.5s7.83301 54.666 23.5 78.999
s39.334 44.666 71.001 60.999s71.167 24.833 118.5 25.5c17.333 0 41 -3.16699 71 -9.5s59.333 -18.166 88 -35.499v55c0 30 -4.66699 55.5 -14 76.5s-22 37.833 -38 50.5s-34.5 21.834 -55.5 27.501s-42.833 8.5 -65.5 8.5c-25.333 0 -49.333 -3.33301 -72 -10
s-45.334 -17.667 -68.001 -33l-11 16c22.667 17.333 47 29.5 73 36.5s52.333 10.5 79 10.5c25.333 0 49.666 -3.33301 72.999 -10s44 -17.167 62 -31.5s32.333 -33.166 43 -56.499s16 -51.666 16 -84.999v-329zM440 92.998l-0.000976562 159.001
c-27.333 16.667 -54.666 28.5 -81.999 35.5s-52.666 10.5 -75.999 10.5c-42.667 0 -78.167 -7 -106.5 -21s-49.5 -31.667 -63.5 -53s-21.167 -44.333 -21.5 -69s6.16699 -47.667 19.5 -69s33.5 -39 60.5 -53s60.833 -21 101.5 -21c28 0 57.667 7.16699 89 21.5
s57.666 34.166 78.999 59.499zM291.999 710.999c18.667 0.666992 32.665 -4.66602 41.998 -15.999s14 -23.833 14 -37.5s-4.66699 -26.167 -14 -37.5s-23.333 -17 -42 -17c-19.333 0 -33.666 5.66699 -42.999 17s-14 23.833 -14 37.5s4.83301 26.167 14.5 37.5
s23.834 16.666 42.501 15.999zM291.997 693.999c-13.333 0 -23.333 -3.83301 -30 -11.5s-10 -16.167 -10 -25.5s3.33301 -18 10 -26s16.667 -12 30 -12s23.333 4 30 12s10 16.667 10 26s-3.33301 17.833 -10 25.5s-16.667 11.5 -30 11.5z" />
    <glyph glyph-name="uni00E6" unicode="&#xe6;" horiz-adv-x="1007" 
d="M694 14c30 0 59.332 4.66895 87.999 14.002s55 28 79 56l15 -14c-14.667 -14.667 -28.667 -26.834 -42 -36.501s-27 -17.5 -41 -23.5s-29 -10.167 -45 -12.5s-34 -3.5 -54 -3.5c-43.333 0 -81.333 9.5 -114 28.5s-59.667 43.5 -81 73.5
c-18.667 -22 -38.5 -39.667 -59.5 -53s-41.5 -23.666 -61.5 -30.999s-38.667 -12.333 -56 -15s-31.666 -4 -42.999 -4c-45.333 -0.666992 -83.166 7 -113.499 23s-53 36 -68 60s-22.5 50 -22.5 78s7.83301 54.167 23.5 78.5s39.334 44.666 71.001 60.999
s71.167 24.833 118.5 25.5c17.333 0 41.166 -3.16699 71.499 -9.5s59.833 -18.166 88.5 -35.499v52c0 30 -4.83301 55.5 -14.5 76.5s-22.5 38 -38.5 51s-34.5 22.5 -55.5 28.5s-42.833 9 -65.5 9c-25.333 0 -49.333 -3.33301 -72 -10s-45.334 -17.667 -68.001 -33l-11 16
c22.667 17.333 47 29.5 73 36.5s52.333 10.5 79 10.5c22.667 0 44.834 -2.83301 66.501 -8.5s41.167 -14.834 58.5 -27.501s32 -28.667 44 -48s19.333 -43 22 -71c17.333 50 45.5 88.833 84.5 116.5s86.5 41.834 142.5 42.501c35.333 0 68.333 -6.83301 99 -20.5
s57 -32.334 79 -56.001s38.667 -51.334 50 -83.001s15 -65.5 11 -101.5h-463c1.33301 -32.667 7.66602 -63.5 18.999 -92.5s26.833 -54.5 46.5 -76.5s43.167 -39.333 70.5 -52s57 -19 89 -19zM447.999 252.002c-27.333 16.667 -54.832 28.502 -82.499 35.502
s-53.167 10.5 -76.5 10.5c-42.667 0 -78.167 -7 -106.5 -21s-49.5 -31.5 -63.5 -52.5s-21.167 -43.833 -21.5 -68.5s6.16699 -47.5 19.5 -68.5s33.5 -38.5 60.5 -52.5s60.833 -21 101.5 -21c15.333 0 32.166 2.16699 50.499 6.5s37 10.666 56 18.999
s37.333 18.666 55 30.999s33.5 26.833 47.5 43.5c-12 20.667 -21.5 42.667 -28.5 66s-10.833 47.333 -11.5 72zM469 274.004l444.999 0.00195312c0 36 -6.5 67.667 -19.5 95s-30 50.166 -51 68.499s-44.667 32.166 -71 41.499s-52.833 14.333 -79.5 15
c-30 0 -58.333 -5.16699 -85 -15.5s-50 -24.833 -70 -43.5s-36.167 -41.667 -48.5 -69s-19.166 -58 -20.499 -92z" />
    <glyph glyph-name="uni00E7" unicode="&#xe7;" horiz-adv-x="534" 
d="M321 -7l-25.9941 -43.999c16.667 0 30.667 -2.16699 42 -6.5s20.166 -9.83301 26.499 -16.5s10.666 -14 12.999 -22s2.83301 -15.333 1.5 -22c-3.33301 -16 -12.333 -28 -27 -36s-32.334 -12 -53.001 -12c-9.33301 0 -19.333 1.16699 -30 3.5s-21.334 6.5 -32.001 12.5
l2 16c7.33301 -4.66699 16.166 -8 26.499 -10s20.5 -3 30.5 -3c15.333 0 29 2.5 41 7.5s19 13.167 21 24.5c1.33301 8 0.166016 15.167 -3.50098 21.5s-9.16699 11.666 -16.5 15.999s-15.833 7.5 -25.5 9.5s-19.5 3 -29.5 3c-6.66699 0 -11.667 -0.333008 -15 -1l34 59
c-37.333 0.666992 -71.166 7.66699 -101.499 21s-56.166 31.333 -77.499 54s-37.833 49.5 -49.5 80.5s-17.5 64.833 -17.5 101.5c0 38 6.16699 73.167 18.5 105.5s29.666 60.333 51.999 84s49 42.334 80 56.001s65.5 20.5 103.5 20.5c34.667 0 65 -3.83301 91 -11.5
s51.667 -23.167 77 -46.5l-13 -14c-26 24 -52 38.667 -78 44s-52 8 -78 8c-26.667 0 -53.667 -4.5 -81 -13.5s-52 -23.5 -74 -43.5s-40.167 -45.667 -54.5 -77s-21.5 -69 -21.5 -113c0 -34.667 5.5 -66.5 16.5 -95.5s26.667 -54 47 -75s44.666 -37.167 72.999 -48.5
s59.833 -17 94.5 -17c29.333 0 57.5 3.66699 84.5 11s52.167 22.666 75.5 45.999l12 -15c-23.333 -22 -47.833 -37.5 -73.5 -46.5s-54.167 -14.167 -85.5 -15.5z" />
    <glyph glyph-name="uni00E8" unicode="&#xe8;" horiz-adv-x="611" 
d="M307 14c30 0 59.3359 4.66895 88.0029 14.002s55 28 79 56l15 -14c-14.667 -14.667 -28.667 -26.834 -42 -36.501s-27 -17.5 -41 -23.5s-29 -10.167 -45 -12.5s-34 -3.5 -54 -3.5c-38.667 0 -73.167 7.83301 -103.5 23.5s-56.166 36.167 -77.499 61.5
s-37.5 54.166 -48.5 86.499s-16.5 64.833 -16.5 97.5c0 34 5.66699 66.167 17 96.5s27.666 57 48.999 80s47.166 41.167 77.499 54.5s64.166 20 101.499 20c35.333 0 68.333 -6.83301 99 -20.5s57 -32.167 79 -55.5s38.667 -50.833 50 -82.5s15 -65.5 11 -101.5h-463
c1.33301 -32.667 7.66602 -63.5 18.999 -92.5s26.833 -54.5 46.5 -76.5s43.167 -39.333 70.5 -52s57 -19 89 -19zM82.0029 274.002l444.999 0.00195312c0 36 -6.5 67.667 -19.5 95s-30 50.166 -51 68.499s-44.667 32.166 -71 41.499s-52.833 14.333 -79.5 15
c-30 0 -58.333 -5.16699 -85 -15.5s-50 -24.833 -70 -43.5s-36.167 -41.667 -48.5 -69s-19.166 -58 -20.499 -92zM308.002 609.004l-66 99h30l57 -99h-21z" />
    <glyph glyph-name="uni00E9" unicode="&#xe9;" horiz-adv-x="611" 
d="M307 14c30 0 59.3359 4.66895 88.0029 14.002s55 28 79 56l15 -14c-14.667 -14.667 -28.667 -26.834 -42 -36.501s-27 -17.5 -41 -23.5s-29 -10.167 -45 -12.5s-34 -3.5 -54 -3.5c-38.667 0 -73.167 7.83301 -103.5 23.5s-56.166 36.167 -77.499 61.5
s-37.5 54.166 -48.5 86.499s-16.5 64.833 -16.5 97.5c0 34 5.66699 66.167 17 96.5s27.666 57 48.999 80s47.166 41.167 77.499 54.5s64.166 20 101.499 20c35.333 0 68.333 -6.83301 99 -20.5s57 -32.167 79 -55.5s38.667 -50.833 50 -82.5s15 -65.5 11 -101.5h-463
c1.33301 -32.667 7.66602 -63.5 18.999 -92.5s26.833 -54.5 46.5 -76.5s43.167 -39.333 70.5 -52s57 -19 89 -19zM82.0029 274.002l444.999 0.00195312c0 36 -6.5 67.667 -19.5 95s-30 50.166 -51 68.499s-44.667 32.166 -71 41.499s-52.833 14.333 -79.5 15
c-30 0 -58.333 -5.16699 -85 -15.5s-50 -24.833 -70 -43.5s-36.167 -41.667 -48.5 -69s-19.166 -58 -20.499 -92zM378.002 705.004l-66 -99h-21l57 99h30z" />
    <glyph glyph-name="uni00EA" unicode="&#xea;" horiz-adv-x="611" 
d="M307 14c30 0 59.3359 4.66895 88.0029 14.002s55 28 79 56l15 -14c-14.667 -14.667 -28.667 -26.834 -42 -36.501s-27 -17.5 -41 -23.5s-29 -10.167 -45 -12.5s-34 -3.5 -54 -3.5c-38.667 0 -73.167 7.83301 -103.5 23.5s-56.166 36.167 -77.499 61.5
s-37.5 54.166 -48.5 86.499s-16.5 64.833 -16.5 97.5c0 34 5.66699 66.167 17 96.5s27.666 57 48.999 80s47.166 41.167 77.499 54.5s64.166 20 101.499 20c35.333 0 68.333 -6.83301 99 -20.5s57 -32.167 79 -55.5s38.667 -50.833 50 -82.5s15 -65.5 11 -101.5h-463
c1.33301 -32.667 7.66602 -63.5 18.999 -92.5s26.833 -54.5 46.5 -76.5s43.167 -39.333 70.5 -52s57 -19 89 -19zM82.0029 274.002l444.999 0.00195312c0 36 -6.5 67.667 -19.5 95s-30 50.166 -51 68.499s-44.667 32.166 -71 41.499s-52.833 14.333 -79.5 15
c-30 0 -58.333 -5.16699 -85 -15.5s-50 -24.833 -70 -43.5s-36.167 -41.667 -48.5 -69s-19.166 -58 -20.499 -92zM390.002 609.004l-72 79l-72 -79h-23l82 96h26l82 -96h-23z" />
    <glyph glyph-name="uni00EB" unicode="&#xeb;" horiz-adv-x="611" 
d="M307 14c30 0 59.3359 4.66895 88.0029 14.002s55 28 79 56l15 -14c-14.667 -14.667 -28.667 -26.834 -42 -36.501s-27 -17.5 -41 -23.5s-29 -10.167 -45 -12.5s-34 -3.5 -54 -3.5c-38.667 0 -73.167 7.83301 -103.5 23.5s-56.166 36.167 -77.499 61.5
s-37.5 54.166 -48.5 86.499s-16.5 64.833 -16.5 97.5c0 34 5.66699 66.167 17 96.5s27.666 57 48.999 80s47.166 41.167 77.499 54.5s64.166 20 101.499 20c35.333 0 68.333 -6.83301 99 -20.5s57 -32.167 79 -55.5s38.667 -50.833 50 -82.5s15 -65.5 11 -101.5h-463
c1.33301 -32.667 7.66602 -63.5 18.999 -92.5s26.833 -54.5 46.5 -76.5s43.167 -39.333 70.5 -52s57 -19 89 -19zM82.0029 274.002l444.999 0.00195312c0 36 -6.5 67.667 -19.5 95s-30 50.166 -51 68.499s-44.667 32.166 -71 41.499s-52.833 14.333 -79.5 15
c-30 0 -58.333 -5.16699 -85 -15.5s-50 -24.833 -70 -43.5s-36.167 -41.667 -48.5 -69s-19.166 -58 -20.499 -92zM246.002 655.004h-34v37h34v-37zM419.002 655.004h-34v37h34v-37z" />
    <glyph glyph-name="uni00EC" unicode="&#xec;" horiz-adv-x="240" 
d="M127 0v508h-22v-508h22zM109 593h21l-57 99h-30z" />
    <glyph glyph-name="uni00ED" unicode="&#xed;" horiz-adv-x="240" 
d="M192 693h-30l-57 -99h21zM105 0v508h22v-508h-22z" />
    <glyph glyph-name="uni00EE" unicode="&#xee;" horiz-adv-x="240" 
d="M127 0v508h-22v-508h22zM189 594h23l-82 96h-26l-82 -96h23l72 79z" />
    <glyph glyph-name="uni00EF" unicode="&#xef;" horiz-adv-x="240" 
d="M127 0v508h-22v-508h22zM48 654v37h-34v-37h34zM221 654v37h-34v-37h34z" />
    <glyph glyph-name="uni00F0" unicode="&#xf0;" horiz-adv-x="603" 
d="M220 528l-12.002 13.9951l122 82c-32.667 18.667 -63 31.334 -91 38.001s-55.667 10.334 -83 11.001c0 2 0.166992 5 0.5 9s0.5 6.66699 0.5 8c36.667 -0.666992 70 -5.16699 100 -13.5s60.333 -22.166 91 -41.499l93 54l12 -13l-89 -53
c30.667 -20.667 56 -44.334 76 -71.001s35.833 -55.5 47.5 -86.5s19.834 -63.667 24.501 -98s7 -69.5 7 -105.5v-32c0 -29.333 -4.66699 -58 -14 -86s-23.333 -53 -42 -75s-42.334 -39.833 -71.001 -53.5s-62.334 -20.5 -101.001 -20.5s-72.667 7 -102 21
s-53.666 32.333 -72.999 55s-33.833 47.834 -43.5 75.501s-14.167 54.834 -13.5 81.501c0.666992 26 6.16699 51.833 16.5 77.5s25.333 48.834 45 69.501s43.834 37.167 72.501 49.5s61.334 18.5 98.001 18.5c16 0 33.5 -2 52.5 -6s38 -11 57 -21s37.167 -23.667 54.5 -41
s32 -39.666 44 -66.999c-2.66699 66.667 -16.5 126.167 -41.5 178.5s-61.5 94.166 -109.5 125.499zM290.998 422.995c-34 0 -63.8291 -5.66797 -89.4961 -17.001s-47.334 -26.333 -65.001 -45s-31.167 -39.667 -40.5 -63s-14.333 -47 -15 -71s3.33301 -48.5 12 -73.5
s21.834 -47.667 39.501 -68s39.667 -37.166 66 -50.499s57.166 -20 92.499 -20s66.166 6.5 92.499 19.5s48 29.667 65 50s29.667 43 38 68s12.166 49.833 11.499 74.5c-0.666992 23.333 -5.33398 46.666 -14.001 69.999s-21.667 44.333 -39 63s-38.833 33.834 -64.5 45.501
s-55.5 17.5 -89.5 17.5z" />
    <glyph glyph-name="uni00F1" unicode="&#xf1;" horiz-adv-x="616" 
d="M291 512c30 0 58.5 -4.83301 85.5 -14.5s50.5 -23.5 70.5 -41.5s35.833 -40.167 47.5 -66.5s17.5 -56.166 17.5 -89.499v-300h-22v300c0 31.333 -5.66699 58.833 -17 82.5s-26.166 43.5 -44.499 59.5s-39.333 28.167 -63 36.5s-48.167 12.5 -73.5 12.5
c-30 0 -59.167 -6 -87.5 -18s-52.833 -30.333 -73.5 -55v-418h-21v507h22v-61c19.333 19.333 42.666 35.166 69.999 47.499s57 18.5 89 18.5zM400 676l10.9971 -7.99902c-8 -13.333 -16.667 -23 -26 -29s-19.666 -9 -30.999 -9c-8 0 -16 2 -24 6s-15.833 8.16699 -23.5 12.5
l-23 12.5c-7.66699 4 -15.167 6 -22.5 6s-14.666 -1.33301 -21.999 -4s-14.666 -9.66699 -21.999 -21l-12 7c7.33301 16 16.666 26.167 27.999 30.5s21 6.5 29 6.5s16 -2 24 -6s15.833 -8.16699 23.5 -12.5l23 -12.5c7.66699 -4 15.5 -6 23.5 -6
c6.66699 0 13.834 1.66699 21.501 5s15.167 10.666 22.5 21.999z" />
    <glyph glyph-name="uni00F2" unicode="&#xf2;" horiz-adv-x="634" 
d="M568 252c0 -41.333 -6.83301 -78.1689 -20.5 -110.502s-32.167 -59.5 -55.5 -81.5s-50.333 -38.833 -81 -50.5s-63 -17.5 -97 -17.5s-66.333 6 -97 18s-57.667 29.333 -81 52s-41.833 50 -55.5 82s-20.5 68 -20.5 108c0 39.333 6.83301 75 20.5 107
s32.167 59.5 55.5 82.5s50.333 40.667 81 53s63 18.5 97 18.5s66.333 -6.16699 97 -18.5s57.667 -29.666 81 -51.999s41.833 -49.666 55.5 -81.999s20.5 -68.5 20.5 -108.5zM81 251.997c0 -42 7.16699 -78.1641 21.5 -108.497s32.833 -55.5 55.5 -75.5
s47.834 -34.667 75.501 -44s54.5 -14 80.5 -14c26.667 0 53.834 4.5 81.501 13.5s52.834 23.167 75.501 42.5s41.167 44.333 55.5 75s21.5 67.667 21.5 111c0 41.333 -7.16699 77.166 -21.5 107.499s-32.833 55.5 -55.5 75.5s-47.834 35 -75.501 45s-54.834 15 -81.501 15
c-26 0 -52.833 -4.83301 -80.5 -14.5s-52.834 -24.334 -75.501 -44.001s-41.167 -44.834 -55.5 -75.501s-21.5 -67 -21.5 -109zM320 594l-66 99h30l57 -99h-21z" />
    <glyph glyph-name="uni00F3" unicode="&#xf3;" horiz-adv-x="634" 
d="M81 252c0 -42 7.16699 -78.1641 21.5 -108.497s32.833 -55.5 55.5 -75.5s47.834 -34.667 75.501 -44s54.5 -14 80.5 -14c26.667 0 53.834 4.5 81.501 13.5s52.834 23.167 75.501 42.5s41.167 44.333 55.5 75s21.5 67.667 21.5 111
c0 41.333 -7.16699 77.166 -21.5 107.499s-32.833 55.5 -55.5 75.5s-47.834 35 -75.501 45s-54.834 15 -81.501 15c-26 0 -52.833 -4.83301 -80.5 -14.5s-52.834 -24.334 -75.501 -44.001s-41.167 -44.834 -55.5 -75.501s-21.5 -67 -21.5 -109zM568 252.003
c0 -41.333 -6.83301 -78.1689 -20.5 -110.502s-32.167 -59.5 -55.5 -81.5s-50.333 -38.833 -81 -50.5s-63 -17.5 -97 -17.5s-66.333 6 -97 18s-57.667 29.333 -81 52s-41.833 50 -55.5 82s-20.5 68 -20.5 108c0 39.333 6.83301 75 20.5 107s32.167 59.5 55.5 82.5
s50.333 40.667 81 53s63 18.5 97 18.5s66.333 -6.16699 97 -18.5s57.667 -29.666 81 -51.999s41.833 -49.666 55.5 -81.999s20.5 -68.5 20.5 -108.5zM381 689l-66 -99h-21l57 99h30z" />
    <glyph glyph-name="uni00F4" unicode="&#xf4;" horiz-adv-x="634" 
d="M568 252c0 -41.333 -6.83301 -78.1689 -20.5 -110.502s-32.167 -59.5 -55.5 -81.5s-50.333 -38.833 -81 -50.5s-63 -17.5 -97 -17.5s-66.333 6 -97 18s-57.667 29.333 -81 52s-41.833 50 -55.5 82s-20.5 68 -20.5 108c0 39.333 6.83301 75 20.5 107
s32.167 59.5 55.5 82.5s50.333 40.667 81 53s63 18.5 97 18.5s66.333 -6.16699 97 -18.5s57.667 -29.666 81 -51.999s41.833 -49.666 55.5 -81.999s20.5 -68.5 20.5 -108.5zM81 251.997c0 -42 7.16699 -78.1641 21.5 -108.497s32.833 -55.5 55.5 -75.5
s47.834 -34.667 75.501 -44s54.5 -14 80.5 -14c26.667 0 53.834 4.5 81.501 13.5s52.834 23.167 75.501 42.5s41.167 44.333 55.5 75s21.5 67.667 21.5 111c0 41.333 -7.16699 77.166 -21.5 107.499s-32.833 55.5 -55.5 75.5s-47.834 35 -75.501 45s-54.834 15 -81.501 15
c-26 0 -52.833 -4.83301 -80.5 -14.5s-52.834 -24.334 -75.501 -44.001s-41.167 -44.834 -55.5 -75.501s-21.5 -67 -21.5 -109zM391 594l-72 79l-72 -79h-23l82 96h26l82 -96h-23z" />
    <glyph glyph-name="uni00F5" unicode="&#xf5;" horiz-adv-x="634" 
d="M568 252c0 -41.333 -6.83301 -78.1689 -20.5 -110.502s-32.167 -59.5 -55.5 -81.5s-50.333 -38.833 -81 -50.5s-63 -17.5 -97 -17.5s-66.333 6 -97 18s-57.667 29.333 -81 52s-41.833 50 -55.5 82s-20.5 68 -20.5 108c0 39.333 6.83301 75 20.5 107
s32.167 59.5 55.5 82.5s50.333 40.667 81 53s63 18.5 97 18.5s66.333 -6.16699 97 -18.5s57.667 -29.666 81 -51.999s41.833 -49.666 55.5 -81.999s20.5 -68.5 20.5 -108.5zM81 251.997c0 -42 7.16699 -78.1641 21.5 -108.497s32.833 -55.5 55.5 -75.5
s47.834 -34.667 75.501 -44s54.5 -14 80.5 -14c26.667 0 53.834 4.5 81.501 13.5s52.834 23.167 75.501 42.5s41.167 44.333 55.5 75s21.5 67.667 21.5 111c0 41.333 -7.16699 77.166 -21.5 107.499s-32.833 55.5 -55.5 75.5s-47.834 35 -75.501 45s-54.834 15 -81.501 15
c-26 0 -52.833 -4.83301 -80.5 -14.5s-52.834 -24.334 -75.501 -44.001s-41.167 -44.834 -55.5 -75.501s-21.5 -67 -21.5 -109zM413 670l10.9971 -7.99902c-8 -13.333 -16.667 -23 -26 -29s-19.666 -9 -30.999 -9c-8 0 -16 2 -24 6s-15.833 8.16699 -23.5 12.5l-23 12.5
c-7.66699 4 -15.167 6 -22.5 6s-14.666 -1.33301 -21.999 -4s-14.666 -9.66699 -21.999 -21l-12 7c7.33301 16 16.666 26.167 27.999 30.5s21 6.5 29 6.5s16 -2 24 -6s15.833 -8.16699 23.5 -12.5l23 -12.5c7.66699 -4 15.5 -6 23.5 -6c6.66699 0 13.834 1.66699 21.501 5
s15.167 10.666 22.5 21.999z" />
    <glyph glyph-name="uni00F6" unicode="&#xf6;" horiz-adv-x="634" 
d="M568 252c0 -41.333 -6.83301 -78.1689 -20.5 -110.502s-32.167 -59.5 -55.5 -81.5s-50.333 -38.833 -81 -50.5s-63 -17.5 -97 -17.5s-66.333 6 -97 18s-57.667 29.333 -81 52s-41.833 50 -55.5 82s-20.5 68 -20.5 108c0 39.333 6.83301 75 20.5 107
s32.167 59.5 55.5 82.5s50.333 40.667 81 53s63 18.5 97 18.5s66.333 -6.16699 97 -18.5s57.667 -29.666 81 -51.999s41.833 -49.666 55.5 -81.999s20.5 -68.5 20.5 -108.5zM81 251.997c0 -42 7.16699 -78.1641 21.5 -108.497s32.833 -55.5 55.5 -75.5
s47.834 -34.667 75.501 -44s54.5 -14 80.5 -14c26.667 0 53.834 4.5 81.501 13.5s52.834 23.167 75.501 42.5s41.167 44.333 55.5 75s21.5 67.667 21.5 111c0 41.333 -7.16699 77.166 -21.5 107.499s-32.833 55.5 -55.5 75.5s-47.834 35 -75.501 45s-54.834 15 -81.501 15
c-26 0 -52.833 -4.83301 -80.5 -14.5s-52.834 -24.334 -75.501 -44.001s-41.167 -44.834 -55.5 -75.501s-21.5 -67 -21.5 -109zM253 638h-34v37h34v-37zM426 638h-34v37h34v-37z" />
    <glyph glyph-name="uni00F7" unicode="&#xf7;" horiz-adv-x="599" 
d="M81 318h418v21h-418v-21zM276 135h32v38h-32v-38zM276 487h31v37h-31v-37z" />
    <glyph glyph-name="uni00F8" unicode="&#xf8;" horiz-adv-x="634" 
d="M182 27l-41 -67.002h-20l46 76c-32 22 -57.833 51.333 -77.5 88s-29.5 79.334 -29.5 128.001c0 39.333 6.83301 75 20.5 107s32.167 59.5 55.5 82.5s50.333 40.667 81 53s63 18.5 97 18.5c44.667 0 86 -10.333 124 -31l40 66h22l-47 -76
c34 -21.333 61.667 -50.833 83 -88.5s32 -81.5 32 -131.5c0 -41.333 -6.83301 -78.166 -20.5 -110.499s-32.167 -59.5 -55.5 -81.5s-50.333 -38.833 -81 -50.5s-63 -17.5 -97 -17.5c-48.667 0 -92.667 11.667 -132 35zM81 251.998c0 -48 9.00098 -88.3311 27.001 -120.998
s41 -58.667 69 -78l251 412c-18.667 10 -37.667 17.5 -57 22.5s-38.333 7.5 -57 7.5c-26 0 -52.833 -4.83301 -80.5 -14.5s-52.834 -24.334 -75.501 -44.001s-41.167 -44.834 -55.5 -75.501s-21.5 -67 -21.5 -109zM314.001 10c26.667 0 53.832 4.49902 81.499 13.499
s52.834 23.167 75.501 42.5s41.167 44.333 55.5 75s21.5 67.667 21.5 111c0 49.333 -10 90.833 -30 124.5s-45 60.167 -75 79.5l-251 -413c19.333 -11.333 39.5 -19.666 60.5 -24.999s41.5 -8 61.5 -8z" />
    <glyph glyph-name="uni00F9" unicode="&#xf9;" horiz-adv-x="612" 
d="M322 -5c-30 0 -58.5 4.83301 -85.5 14.5s-50.5 23.5 -70.5 41.5s-35.833 40.167 -47.5 66.5s-17.5 56.166 -17.5 89.499v300h21v-300c0 -30.667 5.66699 -58 17 -82s26.166 -44 44.499 -60s39.5 -28.167 63.5 -36.5s48.667 -12.5 74 -12.5c30 0 59.167 6 87.5 18
s52.833 30.333 73.5 55v418h21v-507h-22v61c-19.333 -19.333 -42.666 -35.166 -69.999 -47.499s-57 -18.5 -89 -18.5zM318 599l-66 99h30l57 -99h-21z" />
    <glyph glyph-name="uni00FA" unicode="&#xfa;" horiz-adv-x="612" 
d="M322 -5c-30 0 -58.5 4.83301 -85.5 14.5s-50.5 23.5 -70.5 41.5s-35.833 40.167 -47.5 66.5s-17.5 56.166 -17.5 89.499v300h21v-300c0 -30.667 5.66699 -58 17 -82s26.166 -44 44.499 -60s39.5 -28.167 63.5 -36.5s48.667 -12.5 74 -12.5c30 0 59.167 6 87.5 18
s52.833 30.333 73.5 55v418h21v-507h-22v61c-19.333 -19.333 -42.666 -35.166 -69.999 -47.499s-57 -18.5 -89 -18.5zM365 693l-66 -99h-21l57 99h30z" />
    <glyph glyph-name="uni00FB" unicode="&#xfb;" horiz-adv-x="612" 
d="M322 -5c-30 0 -58.5 4.83301 -85.5 14.5s-50.5 23.5 -70.5 41.5s-35.833 40.167 -47.5 66.5s-17.5 56.166 -17.5 89.499v300h21v-300c0 -30.667 5.66699 -58 17 -82s26.166 -44 44.499 -60s39.5 -28.167 63.5 -36.5s48.667 -12.5 74 -12.5c30 0 59.167 6 87.5 18
s52.833 30.333 73.5 55v418h21v-507h-22v61c-19.333 -19.333 -42.666 -35.166 -69.999 -47.499s-57 -18.5 -89 -18.5zM381 597l-72 79l-72 -79h-23l82 96h26l82 -96h-23z" />
    <glyph glyph-name="uni00FC" unicode="&#xfc;" horiz-adv-x="612" 
d="M322 -5c-30 0 -58.5 4.83301 -85.5 14.5s-50.5 23.5 -70.5 41.5s-35.833 40.167 -47.5 66.5s-17.5 56.166 -17.5 89.499v300h21v-300c0 -30.667 5.66699 -58 17 -82s26.166 -44 44.499 -60s39.5 -28.167 63.5 -36.5s48.667 -12.5 74 -12.5c30 0 59.167 6 87.5 18
s52.833 30.333 73.5 55v418h21v-507h-22v61c-19.333 -19.333 -42.666 -35.166 -69.999 -47.499s-57 -18.5 -89 -18.5zM241 646h-34v37h34v-37zM414 646h-34v37h34v-37z" />
    <glyph glyph-name="uni00FD" unicode="&#xfd;" horiz-adv-x="503" 
d="M323 693l-66 -99h-21l57 99h30zM108 -183c14 0 25.5 1.00195 34.5 3.00195s16.667 5.16699 23 9.5s11.833 10.166 16.5 17.499s9.66699 16.666 15 27.999l48 122l-104 255l-104 255h23l196 -484l188 484h22l-249 -637c-10.667 -30.667 -24.167 -50.167 -40.5 -58.5
s-37.5 -12.5 -63.5 -12.5h-5v18z" />
    <glyph glyph-name="uni00FE" unicode="&#xfe;" horiz-adv-x="583" 
d="M285 -6c-25.333 0 -52.001 5.16699 -80.001 15.5s-52.667 26.833 -74 49.5v-260h-22v901h21v-261c22.667 26.667 47 45.167 73 55.5s53.667 15.5 83 15.5c5.33301 0 10.5 -0.166992 15.5 -0.5s10.167 -0.833008 15.5 -1.5c46.667 -4.66699 85.167 -20.5 115.5 -47.5
s52.833 -59.5 67.5 -97.5s21.334 -78.5 20.001 -121.5s-11 -82.833 -29 -119.5s-44.167 -67.167 -78.5 -91.5s-76.833 -36.5 -127.5 -36.5zM307.999 489c-4 0.666992 -7.83496 1.00293 -11.502 1.00293h-11.5c-31.333 0 -60.666 -7.33301 -87.999 -22
s-49.666 -33.667 -66.999 -57v-325c23.333 -26.667 48.5 -45.167 75.5 -55.5s57.833 -15.5 92.5 -15.5c44 4 80.667 17.667 110 41s51.666 51.666 66.999 84.999s23.333 69.166 24 107.499s-6 74.5 -20 108.5s-35.167 63.167 -63.5 87.5s-64.166 39.166 -107.499 44.499z
" />
    <glyph glyph-name="uni00FF" unicode="&#xff;" horiz-adv-x="503" 
d="M108 -201v18.002c14 0 25.5 1 34.5 3s16.667 5.16699 23 9.5s11.833 10.166 16.5 17.499s9.66699 16.666 15 27.999l48 122l-104 255l-104 255h23l196 -484l188 484h22l-249 -637c-10.667 -30.667 -24.167 -50.167 -40.5 -58.5s-37.5 -12.5 -63.5 -12.5h-5zM194 650.002
h-34v37h34v-37zM367 650.002h-34v37h34v-37z" />
    <glyph glyph-name="uni0100" unicode="&#x100;" horiz-adv-x="632" 
d="M42 0h24l88 248h323l91 -248h24l-256 703h-40zM204 766h216v17h-216v-17zM322 684l149 -415h-309l148 415h12z" />
    <glyph glyph-name="uni0101" unicode="&#x101;" 
d="M462 0h-21v66c-14 -14.667 -28.5 -26.834 -43.5 -36.501s-29.833 -17.167 -44.5 -22.5s-29 -9 -43 -11s-26.667 -3 -38 -3c-45.333 -0.666992 -83.166 7 -113.499 23s-53 36 -68 60s-22.5 50 -22.5 78s7.83301 54.167 23.5 78.5s39.334 44.666 71.001 60.999
s71.167 24.833 118.5 25.5c17.333 0 41 -3.16699 71 -9.5s59.333 -18.166 88 -35.499v52c0 30 -4.66699 55.5 -14 76.5s-22 38 -38 51s-34.5 22.5 -55.5 28.5s-42.833 9 -65.5 9c-25.333 0 -49.333 -3.33301 -72 -10s-45.334 -17.667 -68.001 -33l-11 16
c22.667 17.333 47 29.5 73 36.5s52.333 10.5 79 10.5c25.333 0 49.666 -3.33301 72.999 -10s44 -17.5 62 -32.5s32.333 -34.167 43 -57.5s16 -51.666 16 -84.999v-326zM440 93l-0.000976562 159c-27.333 16.667 -54.666 28.5 -81.999 35.5s-52.666 10.5 -75.999 10.5
c-42.667 0 -78.167 -7 -106.5 -21s-49.5 -31.5 -63.5 -52.5s-21.167 -43.833 -21.5 -68.5s6.16699 -47.5 19.5 -68.5s33.5 -38.5 60.5 -52.5s60.833 -21 101.5 -21c28 0 57.667 6.83301 89 20.5s57.666 33.167 78.999 58.5zM165.999 637v17h216v-17h-216z" />
    <glyph glyph-name="uni0102" unicode="&#x102;" horiz-adv-x="631" 
d="M42 0l254 703h40l256 -703h-24l-91 248h-323l-88 -248h-24zM322 684h-12l-148 -415h309zM400 822l17.002 -0.000976562c-5.33301 -24.667 -17.833 -43 -37.5 -55s-40.834 -18 -63.501 -18s-43.334 6.16699 -62.001 18.5s-29.667 30.833 -33 55.5h17
c3.33301 -19.333 12.833 -33.833 28.5 -43.5s32.5 -14.5 50.5 -14.5c18.667 0 36 4.83301 52 14.5s26.333 23.834 31 42.501z" />
    <glyph glyph-name="uni0103" unicode="&#x103;" 
d="M462 0h-21v66c-14 -14.667 -28.5 -26.834 -43.5 -36.501s-29.833 -17.167 -44.5 -22.5s-29 -9 -43 -11s-26.667 -3 -38 -3c-45.333 -0.666992 -83.166 7 -113.499 23s-53 36 -68 60s-22.5 50 -22.5 78s7.83301 54.167 23.5 78.5s39.334 44.666 71.001 60.999
s71.167 24.833 118.5 25.5c17.333 0 41 -3.16699 71 -9.5s59.333 -18.166 88 -35.499v52c0 30 -4.66699 55.5 -14 76.5s-22 38 -38 51s-34.5 22.5 -55.5 28.5s-42.833 9 -65.5 9c-25.333 0 -49.333 -3.33301 -72 -10s-45.334 -17.667 -68.001 -33l-11 16
c22.667 17.333 47 29.5 73 36.5s52.333 10.5 79 10.5c25.333 0 49.666 -3.33301 72.999 -10s44 -17.5 62 -32.5s32.333 -34.167 43 -57.5s16 -51.666 16 -84.999v-326zM440 93l-0.000976562 159c-27.333 16.667 -54.666 28.5 -81.999 35.5s-52.666 10.5 -75.999 10.5
c-42.667 0 -78.167 -7 -106.5 -21s-49.5 -31.5 -63.5 -52.5s-21.167 -43.833 -21.5 -68.5s6.16699 -47.5 19.5 -68.5s33.5 -38.5 60.5 -52.5s60.833 -21 101.5 -21c28 0 57.667 6.83301 89 20.5s57.666 33.167 78.999 58.5zM361.999 681h17.002
c-4.66699 -24.667 -16.834 -43.167 -36.501 -55.5s-40.834 -18.5 -63.501 -18.5s-43.5 6.16699 -62.5 18.5s-30.167 31.166 -33.5 56.499h17c3.33301 -19.333 12.833 -33.833 28.5 -43.5s32.5 -14.5 50.5 -14.5c18.667 0 36 4.83301 52 14.5s26.333 23.834 31 42.501z" />
    <glyph glyph-name="uni0104" unicode="&#x104;" horiz-adv-x="631" 
d="M42 0l253.999 703.004h40l256 -703c-24.667 -12 -44.667 -25.833 -60 -41.5s-23 -32.834 -23 -51.501c0 -10 2.5 -18.5 7.5 -25.5s11.333 -12.833 19 -17.5s15.834 -8 24.501 -10s16.667 -3.33301 24 -4l-5 -15c-32 2.66699 -55.5 10.667 -70.5 24
s-22.333 28.666 -22 45.999s7.5 34.666 21.5 51.999s34 31.666 60 42.999l-91 248h-323l-88 -248h-24zM321.999 684.004h-12l-148 -415h309z" />
    <glyph glyph-name="uni0105" unicode="&#x105;" 
d="M462 326l0.00585938 -326c-17.333 -9.33301 -33.333 -21.333 -48 -36s-21.334 -31.334 -20.001 -50.001c0.666992 -9.33301 3.66699 -16.833 9 -22.5s11.666 -10 18.999 -13s15.166 -5.16699 23.499 -6.5s16.166 -2.33301 23.499 -3l-5 -13c-32 0 -55.333 5.5 -70 16.5
s-22.334 24.333 -23.001 40s5.16602 31.834 17.499 48.501s29.833 30.667 52.5 42v63c-14 -14.667 -28.5 -26.834 -43.5 -36.501s-29.833 -17.167 -44.5 -22.5s-29 -9 -43 -11s-26.667 -3 -38 -3c-45.333 -0.666992 -83.166 7 -113.499 23s-53 36 -68 60s-22.5 50 -22.5 78
s7.83301 54.167 23.5 78.5s39.334 44.666 71.001 60.999s71.167 24.833 118.5 25.5c17.333 0 41 -3.16699 71 -9.5s59.333 -18.166 88 -35.499v52c0 30 -4.66699 55.5 -14 76.5s-22 38 -38 51s-34.5 22.5 -55.5 28.5s-42.833 9 -65.5 9c-25.333 0 -49.333 -3.33301 -72 -10
s-45.334 -17.667 -68.001 -33l-11 16c22.667 17.333 47 29.5 73 36.5s52.333 10.5 79 10.5c25.333 0 49.666 -3.33301 72.999 -10s44 -17.5 62 -32.5s32.333 -34.167 43 -57.5s16 -51.666 16 -84.999zM440.006 93l-0.000976562 159
c-27.333 16.667 -54.666 28.5 -81.999 35.5s-52.666 10.5 -75.999 10.5c-42.667 0 -78.167 -7 -106.5 -21s-49.5 -31.5 -63.5 -52.5s-21.167 -43.833 -21.5 -68.5s6.16699 -47.5 19.5 -68.5s33.5 -38.5 60.5 -52.5s60.833 -21 101.5 -21c28 0 57.667 6.83301 89 20.5
s57.666 33.167 78.999 58.5z" />
    <glyph glyph-name="uni0106" unicode="&#x106;" horiz-adv-x="729" 
d="M476 856l-66 -99h-21l57 99h30zM632 593c-13.333 13.333 -27.333 25.668 -42 37.001s-30.667 21.166 -48 29.499s-36.833 14.833 -58.5 19.5s-46.167 7 -73.5 7c-47.333 0 -91 -8.16699 -131 -24.5s-74.5 -39.166 -103.5 -68.499s-51.667 -64.833 -68 -106.5
s-24.5 -88.167 -24.5 -139.5c0 -46.667 7.83301 -90.167 23.5 -130.5s37.834 -75.5 66.501 -105.5s63.167 -53.667 103.5 -71s84.833 -26 133.5 -26c44.667 0 87.667 9.16699 129 27.5s77.666 46.166 108.999 83.499l15 -13c-32 -38.667 -69.5 -68.167 -112.5 -88.5
s-89.833 -30.5 -140.5 -30.5c-54 0 -102.5 9.33301 -145.5 28s-79.5 44.167 -109.5 76.5s-53.167 70 -69.5 113s-24.5 88.5 -24.5 136.5c0 47.333 7.83301 92.666 23.5 135.999s38.334 81.5 68.001 114.5s66.167 59.333 109.5 79s92.666 29.5 147.999 29.5
c51.333 0 95.5 -8.16699 132.5 -24.5s71.167 -41.166 102.5 -74.499z" />
    <glyph glyph-name="uni0107" unicode="&#x107;" horiz-adv-x="534" 
d="M370 683l-66 -99h-21l57 99h30zM308 496c-26.667 0 -53.666 -4.50195 -80.999 -13.502s-52 -23.5 -74 -43.5s-40.167 -45.667 -54.5 -77s-21.5 -69 -21.5 -113c0 -34.667 5.5 -66.5 16.5 -95.5s26.667 -54 47 -75s44.666 -37.167 72.999 -48.5s59.833 -17 94.5 -17
c29.333 0 57.5 3.66699 84.5 11s52.167 22.666 75.5 45.999l12 -15c-25.333 -23.333 -51.666 -39.5 -78.999 -48.5s-58.333 -13.5 -93 -13.5c-38.667 0 -73.5 6.5 -104.5 19.5s-57.5 30.833 -79.5 53.5s-39 49.834 -51 81.501s-18 65.834 -18 102.501
c0 38 6.16699 73.167 18.5 105.5s29.666 60.333 51.999 84s49 42.334 80 56.001s65.5 20.5 103.5 20.5c34.667 0 65 -3.83301 91 -11.5s51.667 -23.167 77 -46.5l-13 -14c-26 24 -52 38.667 -78 44s-52 8 -78 8z" />
    <glyph glyph-name="uni0108" unicode="&#x108;" horiz-adv-x="729" 
d="M645 607l-13 -13.998c-13.333 13.333 -27.333 25.666 -42 36.999s-30.667 21.166 -48 29.499s-36.833 14.833 -58.5 19.5s-46.167 7 -73.5 7c-47.333 0 -91 -8.16699 -131 -24.5s-74.5 -39.166 -103.5 -68.499s-51.667 -64.833 -68 -106.5s-24.5 -88.167 -24.5 -139.5
c0 -46.667 7.83301 -90.167 23.5 -130.5s37.834 -75.5 66.501 -105.5s63.167 -53.667 103.5 -71s84.833 -26 133.5 -26c44.667 0 87.667 9.16699 129 27.5s77.666 46.166 108.999 83.499l15 -13c-32 -38.667 -69.5 -68.167 -112.5 -88.5s-89.833 -30.5 -140.5 -30.5
c-54 0 -102.5 9.33301 -145.5 28s-79.5 44.167 -109.5 76.5s-53.167 70 -69.5 113s-24.5 88.5 -24.5 136.5c0 47.333 7.83301 92.666 23.5 135.999s38.334 81.5 68.001 114.5s66.167 59.333 109.5 79s92.666 29.5 147.999 29.5c51.333 0 95.5 -8.16699 132.5 -24.5
s71.167 -41.166 102.5 -74.499zM482 753.002l-72 79l-72 -79h-23l82 96h26l82 -96h-23z" />
    <glyph glyph-name="uni0109" unicode="&#x109;" horiz-adv-x="534" 
d="M308 496c-26.667 0 -53.666 -4.50195 -80.999 -13.502s-52 -23.5 -74 -43.5s-40.167 -45.667 -54.5 -77s-21.5 -69 -21.5 -113c0 -34.667 5.5 -66.5 16.5 -95.5s26.667 -54 47 -75s44.666 -37.167 72.999 -48.5s59.833 -17 94.5 -17c29.333 0 57.5 3.66699 84.5 11
s52.167 22.666 75.5 45.999l12 -15c-25.333 -23.333 -51.666 -39.5 -78.999 -48.5s-58.333 -13.5 -93 -13.5c-38.667 0 -73.5 6.5 -104.5 19.5s-57.5 30.833 -79.5 53.5s-39 49.834 -51 81.501s-18 65.834 -18 102.501c0 38 6.16699 73.167 18.5 105.5
s29.666 60.333 51.999 84s49 42.334 80 56.001s65.5 20.5 103.5 20.5c34.667 0 65 -3.83301 91 -11.5s51.667 -23.167 77 -46.5l-13 -14c-26 24 -52 38.667 -78 44s-52 8 -78 8zM378.001 587.998l-72 79l-72 -79h-23l82 96h26l82 -96h-23z" />
    <glyph glyph-name="uni010A" unicode="&#x10a;" horiz-adv-x="729" 
d="M645 607l-13 -13.998c-13.333 13.333 -27.333 25.666 -42 36.999s-30.667 21.166 -48 29.499s-36.833 14.833 -58.5 19.5s-46.167 7 -73.5 7c-47.333 0 -91 -8.16699 -131 -24.5s-74.5 -39.166 -103.5 -68.499s-51.667 -64.833 -68 -106.5s-24.5 -88.167 -24.5 -139.5
c0 -46.667 7.83301 -90.167 23.5 -130.5s37.834 -75.5 66.501 -105.5s63.167 -53.667 103.5 -71s84.833 -26 133.5 -26c44.667 0 87.667 9.16699 129 27.5s77.666 46.166 108.999 83.499l15 -13c-32 -38.667 -69.5 -68.167 -112.5 -88.5s-89.833 -30.5 -140.5 -30.5
c-54 0 -102.5 9.33301 -145.5 28s-79.5 44.167 -109.5 76.5s-53.167 70 -69.5 113s-24.5 88.5 -24.5 136.5c0 47.333 7.83301 92.666 23.5 135.999s38.334 81.5 68.001 114.5s66.167 59.333 109.5 79s92.666 29.5 147.999 29.5c51.333 0 95.5 -8.16699 132.5 -24.5
s71.167 -41.166 102.5 -74.499zM390 769.002v38h35v-38h-35z" />
    <glyph glyph-name="uni010B" unicode="&#x10b;" horiz-adv-x="534" 
d="M308 496c-26.667 0 -53.666 -4.50195 -80.999 -13.502s-52 -23.5 -74 -43.5s-40.167 -45.667 -54.5 -77s-21.5 -69 -21.5 -113c0 -34.667 5.5 -66.5 16.5 -95.5s26.667 -54 47 -75s44.666 -37.167 72.999 -48.5s59.833 -17 94.5 -17c29.333 0 57.5 3.66699 84.5 11
s52.167 22.666 75.5 45.999l12 -15c-25.333 -23.333 -51.666 -39.5 -78.999 -48.5s-58.333 -13.5 -93 -13.5c-38.667 0 -73.5 6.5 -104.5 19.5s-57.5 30.833 -79.5 53.5s-39 49.834 -51 81.501s-18 65.834 -18 102.501c0 38 6.16699 73.167 18.5 105.5
s29.666 60.333 51.999 84s49 42.334 80 56.001s65.5 20.5 103.5 20.5c34.667 0 65 -3.83301 91 -11.5s51.667 -23.167 77 -46.5l-13 -14c-26 24 -52 38.667 -78 44s-52 8 -78 8zM286.001 626.998v40h35v-40h-35z" />
    <glyph glyph-name="uni010C" unicode="&#x10c;" horiz-adv-x="729" 
d="M645 607l-13 -13.998c-13.333 13.333 -27.333 25.666 -42 36.999s-30.667 21.166 -48 29.499s-36.833 14.833 -58.5 19.5s-46.167 7 -73.5 7c-47.333 0 -91 -8.16699 -131 -24.5s-74.5 -39.166 -103.5 -68.499s-51.667 -64.833 -68 -106.5s-24.5 -88.167 -24.5 -139.5
c0 -46.667 7.83301 -90.167 23.5 -130.5s37.834 -75.5 66.501 -105.5s63.167 -53.667 103.5 -71s84.833 -26 133.5 -26c44.667 0 87.667 9.16699 129 27.5s77.666 46.166 108.999 83.499l15 -13c-32 -38.667 -69.5 -68.167 -112.5 -88.5s-89.833 -30.5 -140.5 -30.5
c-54 0 -102.5 9.33301 -145.5 28s-79.5 44.167 -109.5 76.5s-53.167 70 -69.5 113s-24.5 88.5 -24.5 136.5c0 47.333 7.83301 92.666 23.5 135.999s38.334 81.5 68.001 114.5s66.167 59.333 109.5 79s92.666 29.5 147.999 29.5c51.333 0 95.5 -8.16699 132.5 -24.5
s71.167 -41.166 102.5 -74.499zM339 850.002l72 -79l72 79h23l-82 -96h-26l-82 96h23z" />
    <glyph glyph-name="uni010D" unicode="&#x10d;" horiz-adv-x="534" 
d="M308 496c-26.667 0 -53.666 -4.50195 -80.999 -13.502s-52 -23.5 -74 -43.5s-40.167 -45.667 -54.5 -77s-21.5 -69 -21.5 -113c0 -34.667 5.5 -66.5 16.5 -95.5s26.667 -54 47 -75s44.666 -37.167 72.999 -48.5s59.833 -17 94.5 -17c29.333 0 57.5 3.66699 84.5 11
s52.167 22.666 75.5 45.999l12 -15c-25.333 -23.333 -51.666 -39.5 -78.999 -48.5s-58.333 -13.5 -93 -13.5c-38.667 0 -73.5 6.5 -104.5 19.5s-57.5 30.833 -79.5 53.5s-39 49.834 -51 81.501s-18 65.834 -18 102.501c0 38 6.16699 73.167 18.5 105.5
s29.666 60.333 51.999 84s49 42.334 80 56.001s65.5 20.5 103.5 20.5c34.667 0 65 -3.83301 91 -11.5s51.667 -23.167 77 -46.5l-13 -14c-26 24 -52 38.667 -78 44s-52 8 -78 8zM235.001 681.998l72 -79l72 79h23l-82 -96h-26l-82 96h23z" />
    <glyph glyph-name="uni010E" unicode="&#x10e;" horiz-adv-x="725" 
d="M129 700h189.001c55.333 0 103.666 -10.167 144.999 -30.5s75.666 -46.833 102.999 -79.5s48 -70 62 -112s21 -84.833 21 -128.5s-7 -86.5 -21 -128.5s-34.833 -79.333 -62.5 -112s-62.167 -59 -103.5 -79s-89.666 -30 -144.999 -30h-188v700zM151.001 21
l165 -0.000976562c52 0 97.5 9.33301 136.5 28s71.5 43.334 97.5 74.001s45.5 65.667 58.5 105s19.5 79.666 19.5 120.999s-6.5 81.833 -19.5 121.5s-32.333 74.834 -58 105.501s-58 55.5 -97 74.5s-84.167 28.5 -135.5 28.5h-167v-658zM251.001 846.999l72 -79l72 79h23
l-82 -96h-26l-82 96h23z" />
    <glyph glyph-name="uni010F" unicode="&#x10f;" horiz-adv-x="613" 
d="M305 509c25.333 0 51.8359 -4.83301 79.5029 -14.5s52.167 -25.834 73.5 -48.501v255h22v-701h-21v68c-24 -28 -48.167 -47.167 -72.5 -57.5s-54.5 -15.5 -90.5 -15.5c-50 0.666992 -91.833 13.834 -125.5 39.501s-58.834 57.5 -75.501 95.5s-24.834 79 -24.501 123
s9.16602 85 26.499 123s43.333 69.667 78 95s78 38 130 38zM306.003 14c31.333 0 59.334 6.83594 84.001 20.5029s47.667 33.5 69 59.5v324c-23.333 26.667 -48.333 45 -75 55s-57.334 15 -92.001 15c-45.333 -4 -83 -18.333 -113 -43s-52.333 -54.334 -67 -89.001
s-21.667 -71.834 -21 -111.501s9 -76.334 25 -110.001s39.833 -62 71.5 -85s71.167 -34.833 118.5 -35.5zM592.004 702.003h23.999c5.33301 -19.333 5.83301 -41 1.5 -65s-10.833 -43.333 -19.5 -58h-14c7.33301 21.333 11.833 41.833 13.5 61.5
s-0.166016 40.167 -5.49902 61.5z" />
    <glyph glyph-name="uni0110" unicode="&#x110;" horiz-adv-x="726" 
d="M68 348l0.000976562 16h61v336h189c55.333 0 103.666 -10.167 144.999 -30.5s75.666 -46.833 102.999 -79.5s48 -70 62 -112s21 -84.833 21 -128.5s-7 -86.5 -21 -128.5s-34.833 -79.333 -62.5 -112s-62.167 -59 -103.5 -79s-89.666 -30 -144.999 -30h-188v348h-61z
M151.001 21l165 -0.000976562c52 0 97.5 9.33301 136.5 28s71.5 43.334 97.5 74.001s45.5 65.667 58.5 105s19.5 79.666 19.5 120.999s-6.5 81.833 -19.5 121.5s-32.333 74.834 -58 105.501s-58 55.5 -97 74.5s-84.167 28.5 -135.5 28.5h-167v-315h149v-16h-149v-327z" />
    <glyph glyph-name="uni0111" unicode="&#x111;" horiz-adv-x="588" 
d="M350 602l0.00292969 17h108v82h22v-82h73v-17h-73v-602h-21v68c-24 -28 -48.167 -47.167 -72.5 -57.5s-54.5 -15.5 -90.5 -15.5c-50 0.666992 -91.833 13.834 -125.5 39.501s-58.834 57.5 -75.501 95.5s-24.834 79 -24.501 123s9.16602 85 26.499 123
s43.333 69.667 78 95s78 38 130 38c25.333 0 51.833 -4.83301 79.5 -14.5s52.167 -25.834 73.5 -48.501v156h-108zM306.003 14c31.333 0 59.334 6.83594 84.001 20.5029s47.667 33.5 69 59.5v324c-23.333 26.667 -48.333 45 -75 55s-57.334 15 -92.001 15
c-45.333 -4 -83 -18.333 -113 -43s-52.333 -54.334 -67 -89.001s-21.667 -71.834 -21 -111.501s9 -76.334 25 -110.001s39.833 -62 71.5 -85s71.167 -34.833 118.5 -35.5z" />
    <glyph glyph-name="uni0112" unicode="&#x112;" horiz-adv-x="528" 
d="M469 700h-343v-700h343v21h-321v320h317v20h-316v318h320v21zM200 777h209v20h-209v-20z" />
    <glyph glyph-name="uni0113" unicode="&#x113;" horiz-adv-x="611" 
d="M307 14c30 0 59.3359 4.66895 88.0029 14.002s55 28 79 56l15 -14c-14.667 -14.667 -28.667 -26.834 -42 -36.501s-27 -17.5 -41 -23.5s-29 -10.167 -45 -12.5s-34 -3.5 -54 -3.5c-38.667 0 -73.167 7.83301 -103.5 23.5s-56.166 36.167 -77.499 61.5
s-37.5 54.166 -48.5 86.499s-16.5 64.833 -16.5 97.5c0 34 5.66699 66.333 17 97s27.666 57.334 48.999 80.001s47.166 40.834 77.499 54.501s64.166 20.5 101.499 20.5c35.333 0 68.333 -6.83301 99 -20.5s57 -32.334 79 -56.001s38.667 -51.334 50 -83.001
s15 -65.5 11 -101.5h-463c1.33301 -32.667 7.66602 -63.5 18.999 -92.5s26.833 -54.5 46.5 -76.5s43.167 -39.333 70.5 -52s57 -19 89 -19zM82.0029 274.002l444.999 0.00195312c0 36 -6.5 67.667 -19.5 95s-30 50.166 -51 68.499s-44.667 32.166 -71 41.499
s-52.833 14.333 -79.5 15c-30 0 -58.333 -5.16699 -85 -15.5s-50 -24.833 -70 -43.5s-36.167 -41.667 -48.5 -69s-19.166 -58 -20.499 -92zM204.002 636.004v20h209v-20h-209z" />
    <glyph glyph-name="uni0114" unicode="&#x114;" horiz-adv-x="528" 
d="M469 700v-21h-320v-318h316v-20h-317v-320h321v-21h-343v700h343zM387 824l17.002 -0.000976562c-5.33301 -24.667 -17.833 -43 -37.5 -55s-40.834 -18 -63.501 -18s-43.334 6.16699 -62.001 18.5s-29.667 30.833 -33 55.5h17c3.33301 -19.333 12.833 -33.833 28.5 -43.5
s32.5 -14.5 50.5 -14.5c18.667 0 36 4.83301 52 14.5s26.333 23.834 31 42.501z" />
    <glyph glyph-name="uni0115" unicode="&#x115;" horiz-adv-x="611" 
d="M307 14c30 0 59.3359 4.66895 88.0029 14.002s55 28 79 56l15 -14c-14.667 -14.667 -28.667 -26.834 -42 -36.501s-27 -17.5 -41 -23.5s-29 -10.167 -45 -12.5s-34 -3.5 -54 -3.5c-38.667 0 -73.167 7.83301 -103.5 23.5s-56.166 36.167 -77.499 61.5
s-37.5 54.166 -48.5 86.499s-16.5 64.833 -16.5 97.5c0 34 5.66699 66.333 17 97s27.666 57.334 48.999 80.001s47.166 40.834 77.499 54.501s64.166 20.5 101.499 20.5c35.333 0 68.333 -6.83301 99 -20.5s57 -32.334 79 -56.001s38.667 -51.334 50 -83.001
s15 -65.5 11 -101.5h-463c1.33301 -32.667 7.66602 -63.5 18.999 -92.5s26.833 -54.5 46.5 -76.5s43.167 -39.333 70.5 -52s57 -19 89 -19zM82.0029 274.002l444.999 0.00195312c0 36 -6.5 67.667 -19.5 95s-30 50.166 -51 68.499s-44.667 32.166 -71 41.499
s-52.833 14.333 -79.5 15c-30 0 -58.333 -5.16699 -85 -15.5s-50 -24.833 -70 -43.5s-36.167 -41.667 -48.5 -69s-19.166 -58 -20.499 -92zM388.002 678.004h17.001c-5.33301 -24.667 -18 -43.167 -38 -55.5s-41 -18.5 -63 -18.5c-22.667 0 -43.334 6.16699 -62.001 18.5
s-29.667 31.166 -33 56.499h17c3.33301 -19.333 12.833 -33.833 28.5 -43.5s32.5 -14.5 50.5 -14.5c18.667 0 36 4.83301 52 14.5s26.333 23.834 31 42.501z" />
    <glyph glyph-name="uni0116" unicode="&#x116;" horiz-adv-x="527" 
d="M469 700h-343v-700h343v21h-321v320h317v20h-316v318h320v21zM293 761h31v41h-31v-41z" />
    <glyph glyph-name="uni0117" unicode="&#x117;" horiz-adv-x="611" 
d="M307 14c30 0 59.3359 4.66895 88.0029 14.002s55 28 79 56l15 -14c-14.667 -14.667 -28.667 -26.834 -42 -36.501s-27 -17.5 -41 -23.5s-29 -10.167 -45 -12.5s-34 -3.5 -54 -3.5c-38.667 0 -73.167 7.83301 -103.5 23.5s-56.166 36.167 -77.499 61.5
s-37.5 54.166 -48.5 86.499s-16.5 64.833 -16.5 97.5c0 34 5.66699 66.333 17 97s27.666 57.334 48.999 80.001s47.166 40.834 77.499 54.501s64.166 20.5 101.499 20.5c35.333 0 68.333 -6.83301 99 -20.5s57 -32.334 79 -56.001s38.667 -51.334 50 -83.001
s15 -65.5 11 -101.5h-463c1.33301 -32.667 7.66602 -63.5 18.999 -92.5s26.833 -54.5 46.5 -76.5s43.167 -39.333 70.5 -52s57 -19 89 -19zM82.0029 274.002l444.999 0.00195312c0 36 -6.5 67.667 -19.5 95s-30 50.166 -51 68.499s-44.667 32.166 -71 41.499
s-52.833 14.333 -79.5 15c-30 0 -58.333 -5.16699 -85 -15.5s-50 -24.833 -70 -43.5s-36.167 -41.667 -48.5 -69s-19.166 -58 -20.499 -92zM291.002 635.004v41h31l-1 -41h-30z" />
    <glyph glyph-name="uni0118" unicode="&#x118;" horiz-adv-x="527" 
d="M469 700l0.000976562 -20.999h-320v-318h316v-20h-317v-320h321v-22c-18.667 -6.66699 -34.834 -17.334 -48.501 -32.001s-22.167 -29.5 -25.5 -44.5s-0.333008 -28.167 9 -39.5s27.333 -17 54 -17h6l-7 -16c-2 -0.666992 -6.66699 -1 -14 -1c-6 0 -13 0.666992 -21 2
s-15.5 4 -22.5 8s-13.167 9.5 -18.5 16.5s-9 16.167 -11 27.5c-2 21.333 4.16699 40.333 18.5 57s30.833 30 49.5 40h-312v700h343z" />
    <glyph glyph-name="uni0119" unicode="&#x119;" horiz-adv-x="611" 
d="M307 14c30 0 59.3359 4.66406 88.0029 13.9971s55 28 79 56l15 -14c-15.333 -15.333 -30 -28.166 -44 -38.499s-28.333 -18.166 -43 -23.499c-14 -10 -25 -20.833 -33 -32.5s-12 -22.5 -12 -32.5c0 -27.333 26.667 -42 80 -44l-4.5 -6.5
c-1.66699 -2.33301 -3.16699 -4.83301 -4.5 -7.5c-1.33301 0 -2.66602 -0.333008 -3.99902 -1h-10c-6 0 -13.167 0.5 -21.5 1.5s-16.5 3 -24.5 6s-15 7.5 -21 13.5s-10 14 -12 24c-2 10.667 -0.333008 22.334 5 35.001s14.666 24.334 27.999 35.001
c-9.33301 -1.33301 -19 -2.5 -29 -3.5s-20.667 -1.5 -32 -1.5c-38.667 0 -73.167 7.83301 -103.5 23.5s-56.166 36.167 -77.499 61.5s-37.5 54.166 -48.5 86.499s-16.5 64.833 -16.5 97.5c0 34 5.66699 66.333 17 97s27.666 57.334 48.999 80.001
s47.166 40.834 77.499 54.501s64.166 20.5 101.499 20.5c35.333 0 68.333 -6.83301 99 -20.5s57 -32.334 79 -56.001s38.667 -51.334 50 -83.001s15 -65.5 11 -101.5h-463c1.33301 -32.667 7.66602 -63.5 18.999 -92.5s26.833 -54.5 46.5 -76.5s43.167 -39.333 70.5 -52
s57 -19 89 -19zM82.0029 273.997l444.999 0.00195312c0 36 -6.5 67.667 -19.5 95s-30 50.166 -51 68.499s-44.667 32.166 -71 41.499s-52.833 14.333 -79.5 15c-30 0 -58.333 -5.16699 -85 -15.5s-50 -24.833 -70 -43.5s-36.167 -41.667 -48.5 -69s-19.166 -58 -20.499 -92z
" />
    <glyph glyph-name="uni011A" unicode="&#x11a;" horiz-adv-x="527" 
d="M469 700h-343v-700h343v21h-321v320h317v20h-316v318h320v21zM234 850h-23l82 -96h26l82 96h-23l-72 -79z" />
    <glyph glyph-name="uni011B" unicode="&#x11b;" horiz-adv-x="611" 
d="M307 14c30 0 59.3359 4.66895 88.0029 14.002s55 28 79 56l15 -14c-14.667 -14.667 -28.667 -26.834 -42 -36.501s-27 -17.5 -41 -23.5s-29 -10.167 -45 -12.5s-34 -3.5 -54 -3.5c-38.667 0 -73.167 7.83301 -103.5 23.5s-56.166 36.167 -77.499 61.5
s-37.5 54.166 -48.5 86.499s-16.5 64.833 -16.5 97.5c0 34 5.66699 66.333 17 97s27.666 57.334 48.999 80.001s47.166 40.834 77.499 54.501s64.166 20.5 101.499 20.5c35.333 0 68.333 -6.83301 99 -20.5s57 -32.334 79 -56.001s38.667 -51.334 50 -83.001
s15 -65.5 11 -101.5h-463c1.33301 -32.667 7.66602 -63.5 18.999 -92.5s26.833 -54.5 46.5 -76.5s43.167 -39.333 70.5 -52s57 -19 89 -19zM82.0029 274.002l444.999 0.00195312c0 36 -6.5 67.667 -19.5 95s-30 50.166 -51 68.499s-44.667 32.166 -71 41.499
s-52.833 14.333 -79.5 15c-30 0 -58.333 -5.16699 -85 -15.5s-50 -24.833 -70 -43.5s-36.167 -41.667 -48.5 -69s-19.166 -58 -20.499 -92zM236.002 680.004l72 -79l72 79h23l-82 -96h-26l-82 96h23z" />
    <glyph glyph-name="uni011C" unicode="&#x11c;" horiz-adv-x="821" 
d="M411 705c52.667 0 100.501 -8.49902 143.501 -25.499s81.833 -43.833 116.5 -80.5l-15 -13c-33.333 36 -70 61.5 -110 76.5s-85 22.5 -135 22.5c-48.667 0 -92.834 -9.33301 -132.501 -28s-73.5 -43.5 -101.5 -74.5s-49.667 -66.833 -65 -107.5s-23 -82.667 -23 -126
c0 -41.333 7.66699 -81.833 23 -121.5s37 -75.167 65 -106.5s61.833 -56.5 101.5 -75.5s83.834 -28.5 132.501 -28.5c36 0 71.333 6 106 18s66 29.833 94 53.5s51.333 52.667 70 87s30 73.833 34 118.5h-325v20h349c-2.66699 -45.333 -12.667 -87.333 -30 -126
s-40.333 -72.334 -69 -101.001s-62.334 -51 -101.001 -67s-81.334 -24 -128.001 -24c-53.333 0 -101.333 10.167 -144 30.5s-78.667 47 -108 80s-52 70.667 -68 113s-24 85.5 -24 129.5c0 45.333 7.83301 89.333 23.5 132s38.334 80.667 68.001 114s65.667 60 108 80
s90.5 30 144.5 30zM488.001 756.001l-72 79l-72 -79h-23l82 96h26l82 -96h-23z" />
    <glyph glyph-name="uni011D" unicode="&#x11d;" horiz-adv-x="581" 
d="M298 509c26.667 0 53.5078 -4.83398 80.5078 -14.501s51.5 -26.5 73.5 -50.5v63h22v-523c0 -58.667 -16.667 -104.334 -50 -137.001s-79 -49 -137 -49c-36.667 0 -68.334 4.83301 -95.001 14.5s-54.667 27.167 -84 52.5l14 17c26 -23.333 52.5 -39.666 79.5 -48.999
s57.5 -14 91.5 -14c21.333 0 41.666 3.33301 60.999 10s36.333 16.834 51 30.501s26.334 30.834 35.001 51.501s13 45 13 73v77c-12.667 -14.667 -24.834 -26.334 -36.501 -35.001s-23.834 -15.334 -36.501 -20.001s-26.334 -7.66699 -41.001 -9s-31 -2 -49 -2
c-50 0.666992 -91.833 13.834 -125.5 39.501s-58.834 57.5 -75.501 95.5s-24.834 79 -24.501 123s9.16602 85 26.499 123s43.166 69.667 77.499 95s77.5 38 129.5 38zM300.008 13.999c31.333 0 59.333 5.83594 84 17.5029s47.667 30.5 69 56.5v329
c-23.333 26.667 -48.5 45.167 -75.5 55.5s-57.833 15.5 -92.5 15.5c-45.333 -4 -83 -18.333 -113 -43s-52.333 -54.334 -67 -89.001s-21.667 -71.834 -21 -111.501s9.16699 -76.334 25.5 -110.001s40.333 -62 72 -85s71.167 -34.833 118.5 -35.5zM376.008 593.002l-72 79
l-72 -79h-23l82 96h26l82 -96h-23z" />
    <glyph glyph-name="uni011E" unicode="&#x11e;" horiz-adv-x="821" 
d="M411 705c52.667 0 100.501 -8.49902 143.501 -25.499s81.833 -43.833 116.5 -80.5l-15 -13c-33.333 36 -70 61.5 -110 76.5s-85 22.5 -135 22.5c-48.667 0 -92.834 -9.33301 -132.501 -28s-73.5 -43.5 -101.5 -74.5s-49.667 -66.833 -65 -107.5s-23 -82.667 -23 -126
c0 -41.333 7.66699 -81.833 23 -121.5s37 -75.167 65 -106.5s61.833 -56.5 101.5 -75.5s83.834 -28.5 132.501 -28.5c36 0 71.333 6 106 18s66 29.833 94 53.5s51.333 52.667 70 87s30 73.833 34 118.5h-325v20h349c-2.66699 -45.333 -12.667 -87.333 -30 -126
s-40.333 -72.334 -69 -101.001s-62.334 -51 -101.001 -67s-81.334 -24 -128.001 -24c-53.333 0 -101.333 10.167 -144 30.5s-78.667 47 -108 80s-52 70.667 -68 113s-24 85.5 -24 129.5c0 45.333 7.83301 89.333 23.5 132s38.334 80.667 68.001 114s65.667 60 108 80
s90.5 30 144.5 30zM498.001 830.001l17.002 -0.000976562c-5.33301 -24.667 -17.833 -43 -37.5 -55s-40.834 -18 -63.501 -18s-43.334 6.16699 -62.001 18.5s-29.667 30.833 -33 55.5h17c3.33301 -19.333 12.833 -33.833 28.5 -43.5s32.5 -14.5 50.5 -14.5
c18.667 0 36 4.83301 52 14.5s26.333 23.834 31 42.501z" />
    <glyph glyph-name="uni011F" unicode="&#x11f;" horiz-adv-x="580" 
d="M297 509c26.667 0 53.5078 -4.83398 80.5078 -14.501s51.5 -26.5 73.5 -50.5v63h22v-523c0 -58.667 -16.667 -104.334 -50 -137.001s-79 -49 -137 -49c-36.667 0 -68.334 4.83301 -95.001 14.5s-54.667 27.167 -84 52.5l14 17c26 -23.333 52.5 -39.666 79.5 -48.999
s57.5 -14 91.5 -14c21.333 0 41.666 3.33301 60.999 10s36.333 16.834 51 30.501s26.334 30.834 35.001 51.501s13 45 13 73v77c-12.667 -14.667 -24.834 -26.334 -36.501 -35.001s-23.834 -15.334 -36.501 -20.001s-26.334 -7.66699 -41.001 -9s-31 -2 -49 -2
c-50 0.666992 -91.833 13.834 -125.5 39.501s-58.834 57.5 -75.501 95.5s-24.834 79 -24.501 123s9.16602 85 26.499 123s43.166 69.667 77.499 95s77.5 38 129.5 38zM299.008 13.999c31.333 0 59.333 5.83594 84 17.5029s47.667 30.5 69 56.5v329
c-23.333 26.667 -48.5 45.167 -75.5 55.5s-57.833 15.5 -92.5 15.5c-45.333 -4 -83 -18.333 -113 -43s-52.333 -54.334 -67 -89.001s-21.667 -71.834 -21 -111.501s9.16699 -76.334 25.5 -110.001s40.333 -62 72 -85s71.167 -34.833 118.5 -35.5zM377.008 688.002
l17.001 -0.00195312c-4.66699 -25.333 -16.5 -44.166 -35.5 -56.499s-39.5 -18.5 -61.5 -18.5s-42.5 6.33301 -61.5 19s-30.167 31.667 -33.5 57h17c3.33301 -19.333 12.666 -33.833 27.999 -43.5s31.666 -14.5 48.999 -14.5c18 0 34.833 4.83301 50.5 14.5
s25.834 23.834 30.501 42.501z" />
    <glyph glyph-name="uni0120" unicode="&#x120;" horiz-adv-x="821" 
d="M411 705c52.667 0 100.501 -8.49902 143.501 -25.499s81.833 -43.833 116.5 -80.5l-15 -13c-33.333 36 -70 61.5 -110 76.5s-85 22.5 -135 22.5c-48.667 0 -92.834 -9.33301 -132.501 -28s-73.5 -43.5 -101.5 -74.5s-49.667 -66.833 -65 -107.5s-23 -82.667 -23 -126
c0 -41.333 7.66699 -81.833 23 -121.5s37 -75.167 65 -106.5s61.833 -56.5 101.5 -75.5s83.834 -28.5 132.501 -28.5c36 0 71.333 6 106 18s66 29.833 94 53.5s51.333 52.667 70 87s30 73.833 34 118.5h-325v20h349c-2.66699 -45.333 -12.667 -87.333 -30 -126
s-40.333 -72.334 -69 -101.001s-62.334 -51 -101.001 -67s-81.334 -24 -128.001 -24c-53.333 0 -101.333 10.167 -144 30.5s-78.667 47 -108 80s-52 70.667 -68 113s-24 85.5 -24 129.5c0 45.333 7.83301 89.333 23.5 132s38.334 80.667 68.001 114s65.667 60 108 80
s90.5 30 144.5 30zM399.001 772.001v42h35v-42h-35z" />
    <glyph glyph-name="uni0121" unicode="&#x121;" horiz-adv-x="582" 
d="M296 509c26.667 0 53.5078 -4.83398 80.5078 -14.501s51.5 -26.5 73.5 -50.5v63h22v-523c0 -58.667 -16.667 -104.334 -50 -137.001s-79 -49 -137 -49c-36.667 0 -68.334 4.83301 -95.001 14.5s-54.667 27.167 -84 52.5l14 17c26 -23.333 52.5 -39.666 79.5 -48.999
s57.5 -14 91.5 -14c21.333 0 41.666 3.33301 60.999 10s36.333 16.834 51 30.501s26.334 30.834 35.001 51.501s13 45 13 73v77c-12.667 -14.667 -24.834 -26.334 -36.501 -35.001s-23.834 -15.334 -36.501 -20.001s-26.334 -7.66699 -41.001 -9s-31 -2 -49 -2
c-50 0.666992 -91.833 13.834 -125.5 39.501s-58.834 57.5 -75.501 95.5s-24.834 79 -24.501 123s9.16602 85 26.499 123s43.166 69.667 77.499 95s77.5 38 129.5 38zM298.008 13.999c31.333 0 59.333 5.83594 84 17.5029s47.667 30.5 69 56.5v329
c-23.333 26.667 -48.5 45.167 -75.5 55.5s-57.833 15.5 -92.5 15.5c-45.333 -4 -83 -18.333 -113 -43s-52.333 -54.334 -67 -89.001s-21.667 -71.834 -21 -111.501s9.16699 -76.334 25.5 -110.001s40.333 -62 72 -85s71.167 -34.833 118.5 -35.5zM280.008 636.002v42h33v-42
h-33z" />
    <glyph glyph-name="uni0122" unicode="&#x122;" horiz-adv-x="821" 
d="M411 705c52.667 0 100.501 -8.49902 143.501 -25.499s81.833 -43.833 116.5 -80.5l-15 -13c-33.333 36 -70 61.5 -110 76.5s-85 22.5 -135 22.5c-48.667 0 -92.834 -9.33301 -132.501 -28s-73.5 -43.5 -101.5 -74.5s-49.667 -66.833 -65 -107.5s-23 -82.667 -23 -126
c0 -41.333 7.66699 -81.833 23 -121.5s37 -75.167 65 -106.5s61.833 -56.5 101.5 -75.5s83.834 -28.5 132.501 -28.5c36 0 71.333 6 106 18s66 29.833 94 53.5s51.333 52.667 70 87s30 73.833 34 118.5h-325v20h349c-2.66699 -45.333 -12.667 -87.333 -30 -126
s-40.333 -72.334 -69 -101.001s-62.334 -51 -101.001 -67s-81.334 -24 -128.001 -24c-53.333 0 -101.333 10.167 -144 30.5s-78.667 47 -108 80s-52 70.667 -68 113s-24 85.5 -24 129.5c0 45.333 7.83301 89.333 23.5 132s38.334 80.667 68.001 114s65.667 60 108 80
s90.5 30 144.5 30zM390.001 -53.999h27c4.66699 -18 6 -37.833 4 -59.5s-8.66699 -43.167 -20 -64.5h-17c7.33301 21.333 11.5 42 12.5 62s-1.16699 40.667 -6.5 62z" />
    <glyph glyph-name="uni0123" unicode="&#x123;" horiz-adv-x="582" 
d="M296 509c26.667 0 53.5078 -4.83398 80.5078 -14.501s51.5 -26.5 73.5 -50.5v63h22v-523c0 -58.667 -16.667 -104.334 -50 -137.001s-79 -49 -137 -49c-36.667 0 -68.334 4.83301 -95.001 14.5s-54.667 27.167 -84 52.5l14 17c26 -23.333 52.5 -39.666 79.5 -48.999
s57.5 -14 91.5 -14c21.333 0 41.666 3.33301 60.999 10s36.333 16.834 51 30.501s26.334 30.834 35.001 51.501s13 45 13 73v77c-12.667 -14.667 -24.834 -26.334 -36.501 -35.001s-23.834 -15.334 -36.501 -20.001s-26.334 -7.66699 -41.001 -9s-31 -2 -49 -2
c-50 0.666992 -91.833 13.834 -125.5 39.501s-58.834 57.5 -75.501 95.5s-24.834 79 -24.501 123s9.16602 85 26.499 123s43.166 69.667 77.499 95s77.5 38 129.5 38zM298.008 13.999c31.333 0 59.333 5.83594 84 17.5029s47.667 30.5 69 56.5v329
c-23.333 26.667 -48.5 45.167 -75.5 55.5s-57.833 15.5 -92.5 15.5c-45.333 -4 -83 -18.333 -113 -43s-52.333 -54.334 -67 -89.001s-21.667 -71.834 -21 -111.501s9.16699 -76.334 25.5 -110.001s40.333 -62 72 -85s71.167 -34.833 118.5 -35.5zM325.008 578.002
l-24 -0.00195312c-4.66699 18 -6 37.5 -4 58.5s8.66699 42.167 20 63.5h14c-7.33301 -21.333 -11.5 -41.666 -12.5 -60.999s1.16699 -39.666 6.5 -60.999z" />
    <glyph glyph-name="uni0124" unicode="&#x124;" horiz-adv-x="684" 
d="M535 0h22v700h-22v-340h-385v340h-22v-700h22v339h385v-339zM418 749h23l-82 96h-26l-82 -96h23l72 79z" />
    <glyph glyph-name="uni0125" unicode="&#x125;" horiz-adv-x="606" 
d="M504 294l0.000976562 -293.995h-22v294c0 31.333 -5.5 59.166 -16.5 83.499s-25.667 44.666 -44 60.999s-39.333 28.833 -63 37.5s-47.834 13 -72.501 13c-29.333 0 -57.5 -5.83301 -84.5 -17.5s-50.833 -29.834 -71.5 -54.501v-417h-21v700h22v-256
c18 18.667 40 34.167 66 46.5s54 18.5 84 18.5c32 0 61.667 -5 89 -15s51 -24.333 71 -43s35.5 -41.334 46.5 -68.001s16.5 -56.334 16.5 -89.001zM196.001 749.005l-72 79l-72 -79h-23l82 96h26l82 -96h-23z" />
    <glyph glyph-name="uni0126" unicode="&#x126;" horiz-adv-x="683" 
d="M535 0h22v542h60v19h-60v139h-22v-139h-385v139h-22v-139h-63v-19h63v-542h22v339h385v-339zM150 360v182h385v-182h-385z" />
    <glyph glyph-name="uni0127" unicode="&#x127;" horiz-adv-x="606" 
d="M504 294l0.000976562 -293.995h-22v294c0 31.333 -5.5 59.166 -16.5 83.499s-25.667 44.666 -44 60.999s-39.333 28.833 -63 37.5s-47.834 13 -72.501 13c-29.333 0 -57.5 -5.83301 -84.5 -17.5s-50.833 -29.834 -71.5 -54.501v-417h-21v604h-68v17h68v79h22v-79h131v-17
h-131v-160c18 18.667 40 34.167 66 46.5s54 18.5 84 18.5c32 0 61.667 -5 89 -15s51 -24.333 71 -43s35.5 -41.334 46.5 -68.001s16.5 -56.334 16.5 -89.001z" />
    <glyph glyph-name="uni0128" unicode="&#x128;" horiz-adv-x="281" 
d="M130 0v700h22v-700h-22zM237 797l10.9971 -7.99902c-8 -13.333 -16.667 -23 -26 -29s-19.666 -9 -30.999 -9c-8 0 -16 2 -24 6s-15.833 8.16699 -23.5 12.5l-23 12.5c-7.66699 4 -15.167 6 -22.5 6s-14.666 -1.33301 -21.999 -4s-14.666 -9.66699 -21.999 -21l-12 7
c7.33301 16 16.666 26.167 27.999 30.5s21 6.5 29 6.5s16 -2 24 -6s15.833 -8.16699 23.5 -12.5l23 -12.5c7.66699 -4 15.5 -6 23.5 -6c6.66699 0 13.834 1.66699 21.501 5s15.167 10.666 22.5 21.999z" />
    <glyph glyph-name="uni0129" unicode="&#x129;" horiz-adv-x="241" 
d="M131 0h-22v508h22v-508zM212 656l10.9971 -7.99902c-8 -13.333 -16.667 -23 -26 -29s-19.666 -9 -30.999 -9c-8 0 -16 2 -24 6s-15.833 8.16699 -23.5 12.5l-23 12.5c-7.66699 4 -15.167 6 -22.5 6s-14.666 -1.33301 -21.999 -4s-14.666 -9.66699 -21.999 -21l-12 7
c7.33301 16 16.666 26.167 27.999 30.5s21 6.5 29 6.5s16 -2 24 -6s15.833 -8.16699 23.5 -12.5l23 -12.5c7.66699 -4 15.5 -6 23.5 -6c6.66699 0 13.834 1.66699 21.501 5s15.167 10.666 22.5 21.999z" />
    <glyph glyph-name="uni012A" unicode="&#x12a;" horiz-adv-x="281" 
d="M130 0h22v700h-22v-700zM31 777h214v20h-214v-20z" />
    <glyph glyph-name="uni012B" unicode="&#x12b;" horiz-adv-x="241" 
d="M131 0v508h-22v-508h22zM12 633h214v20h-214v-20z" />
    <glyph glyph-name="uni012C" unicode="&#x12c;" horiz-adv-x="281" 
d="M130 0v700h22v-700h-22zM221 821l17.002 -0.000976562c-5.33301 -24.667 -17.833 -43 -37.5 -55s-40.834 -18 -63.501 -18s-43.334 6.16699 -62.001 18.5s-29.667 30.833 -33 55.5h17c3.33301 -19.333 12.833 -33.833 28.5 -43.5s32.5 -14.5 50.5 -14.5
c18.667 0 36 4.83301 52 14.5s26.333 23.834 31 42.501z" />
    <glyph glyph-name="uni012D" unicode="&#x12d;" horiz-adv-x="241" 
d="M131 0h-22v508h22v-508zM196 691l17 -0.000976562c-5.33301 -24.667 -17.333 -43 -36 -55s-38.667 -18 -60 -18s-41 6.16699 -59 18.5s-28.667 30.833 -32 55.5h17c3.33301 -19.333 12.333 -33.833 27 -43.5s30.334 -14.5 47.001 -14.5
c17.333 0 33.666 4.83301 48.999 14.5s25.333 23.834 30 42.501z" />
    <glyph glyph-name="uni012E" unicode="&#x12e;" horiz-adv-x="281" 
d="M130 3l0.000976562 696.999h22v-700c-15.333 -9.33301 -28.5 -22 -39.5 -38s-16.5 -31.667 -16.5 -47c0 -12 4.16699 -21.833 12.5 -29.5s24.166 -11.5 47.499 -11.5l-3 -16h-12c-23.333 0 -40.5 5.16699 -51.5 15.5s-16.667 22.833 -17 37.5s4.5 30.334 14.5 47.001
s24.333 31.667 43 45z" />
    <glyph glyph-name="uni012F" unicode="&#x12f;" horiz-adv-x="241" 
d="M109 508l22.0039 -0.00292969v-508c-16.667 -10 -30.334 -22 -41.001 -36s-16.5 -27.5 -17.5 -40.5s3.33301 -24 13 -33s26.5 -13.833 50.5 -14.5l-3 -14c-8 0 -16.333 0.333008 -25 1s-16.834 2.33398 -24.501 5.00098s-14.334 6.83398 -20.001 12.501
s-9.83398 13.167 -12.501 22.5c-2.66699 11.333 -2.5 22 0.5 32s7.5 19.167 13.5 27.5s13 15.833 21 22.5s15.667 12.334 23 17.001v506zM104.004 656.997v44h28v-44h-28z" />
    <glyph glyph-name="uni0130" unicode="&#x130;" horiz-adv-x="281" 
d="M130 0h22v700h-22v-700zM125 802h30v42h-30v-42z" />
    <glyph glyph-name="uni0131" unicode="&#x131;" horiz-adv-x="241" 
d="M131 0v508h-22v-508h22z" />
    <glyph glyph-name="uni0132" unicode="&#x132;" horiz-adv-x="603" 
d="M130 0v700h22v-700h-22zM283 17l22.002 0.000976562c20 0 39.5 3.5 58.5 10.5s36.167 17.5 51.5 31.5s27.666 31.167 36.999 51.5s14 43.5 14 69.5v501h-157v19h179v-520c0 -30 -5.33301 -56.5 -16 -79.5s-24.667 -42.333 -42 -58s-36.833 -27.334 -58.5 -35.001
s-43.834 -11.5 -66.501 -11.5h-22v21z" />
    <glyph glyph-name="uni0133" unicode="&#x133;" horiz-adv-x="509" 
d="M131 0h-22v508h22v-508zM256 -201v20c37.333 0 63.833 9.5 79.5 28.5s23.5 44.5 23.5 76.5v583h22v-583c0 -40 -10.833 -70.833 -32.5 -92.5s-52.5 -32.5 -92.5 -32.5zM134 700v-54h-28v54h28zM384 700v-54h-28v54h28z" />
    <glyph glyph-name="uni0134" unicode="&#x134;" horiz-adv-x="545" 
d="M54 140l19.0029 6c15.333 -49.333 38.5 -83.5 69.5 -102.5s65.833 -28.5 104.5 -28.5c20 0 39.5 3.66699 58.5 11s36.167 18 51.5 32s27.666 31.333 36.999 52s14 44 14 70v500h-157v20h179v-520c0 -30 -5.33301 -56.667 -16 -80s-24.667 -42.833 -42 -58.5
s-36.833 -27.5 -58.5 -35.5s-43.834 -12 -66.501 -12c-22 0 -42.833 2.33301 -62.5 7s-37.834 12.5 -54.501 23.5s-31.5 26 -44.5 45s-23.5 42.5 -31.5 70.5zM388.003 755l-72 79l-72 -79h-23l82 96h26l82 -96h-23z" />
    <glyph glyph-name="uni0135" unicode="&#x135;" horiz-adv-x="240" 
d="M6 -201v20c37.333 0 63.833 9.5 79.5 28.5s23.5 44.5 23.5 76.5v583h22v-583c0 -40 -10.833 -70.833 -32.5 -92.5s-52.5 -32.5 -92.5 -32.5zM196 594l-74 79l-74 -79h-21l82 96h26l82 -96h-21z" />
    <glyph glyph-name="uni0136" unicode="&#x136;" horiz-adv-x="630" 
d="M152 700v-401l377 401h27l-285 -307l299 -393h-25l-289 378l-104 -106v-272h-22v700h22zM320 -10h25.001c3.33301 -19.333 3.33301 -39.833 0 -61.5s-10.333 -40.167 -21 -55.5h-14c7.33301 21.333 12.166 40.833 14.499 58.5s0.833008 37.167 -4.5 58.5z" />
    <glyph glyph-name="uni0137" unicode="&#x137;" horiz-adv-x="518" 
d="M107 700h21v-475l290 282h27l-215 -211l232 -296h-24l-223 282l-87 -82v-200h-21v700zM267 -34h22.999c2.66699 -17.333 2.33398 -36.666 -0.999023 -57.999s-9.66602 -39.666 -18.999 -54.999h-13c7.33301 21.333 12.166 40.166 14.499 56.499
s0.833008 35.166 -4.5 56.499z" />
    <glyph glyph-name="uni0138" unicode="&#x138;" horiz-adv-x="518" 
d="M107 507h21v-282l290 282h27l-215 -211l116 -148l116 -148h-24l-223 282l-87 -82v-200h-21v507z" />
    <glyph glyph-name="uni0139" unicode="&#x139;" horiz-adv-x="478" 
d="M447 20h-295v680h-22v-700h317v20zM151 750l65 92h-29l-56 -92h20z" />
    <glyph glyph-name="uni013A" unicode="&#x13a;" horiz-adv-x="273" 
d="M211 18l0.000976562 -19c-34.667 0 -61.334 8.5 -80.001 25.5s-28 47.167 -28 90.5v585h22v-585c0 -34 6.66699 -58.667 20 -74s35.333 -23 66 -23zM187.001 845l-65 -94h-19l55 94h29z" />
    <glyph glyph-name="uni013B" unicode="&#x13b;" horiz-adv-x="478" 
d="M447 20v-20h-317v700h22v-680h295zM290 -40l21.001 -0.00292969c4 -18.667 4.33301 -39.167 1 -61.5s-9.66602 -40.166 -18.999 -53.499h-11c7.33301 20.667 11.666 39.834 12.999 57.501s-0.333984 36.834 -5.00098 57.501z" />
    <glyph glyph-name="uni013C" unicode="&#x13c;" horiz-adv-x="273" 
d="M211 18l0.000976562 -19c-34.667 0 -61.334 8.5 -80.001 25.5s-28 47.167 -28 90.5v585h22v-585c0 -34 6.66699 -58.667 20 -74s35.333 -23 66 -23zM154.001 -47h22c4 -19.333 5 -38.5 3 -57.5s-7.66699 -37.167 -17 -54.5h-13c6 19.333 9.66699 38 11 56
s-0.666992 36.667 -6 56z" />
    <glyph glyph-name="uni013D" unicode="&#x13d;" horiz-adv-x="478" 
d="M447 20v-20h-317v700h22v-680h295zM338 700l21.998 0.00292969c4.66699 -19.333 5.33398 -40.833 2.00098 -64.5s-9.66602 -42.834 -18.999 -57.501h-11c6.66699 21.333 10.667 41.666 12 60.999s-0.666992 39.666 -6 60.999z" />
    <glyph glyph-name="uni013E" unicode="&#x13e;" horiz-adv-x="272" 
d="M211 18l0.000976562 -19c-34.667 0 -61.334 8.5 -80.001 25.5s-28 47.167 -28 90.5v585h22v-585c0 -34 6.66699 -58.667 20 -74s35.333 -23 66 -23zM239.001 701h23c4 -24 4.66699 -45.5 2 -64.5s-8 -37.167 -16 -54.5h-15c5.33301 18.667 8.5 38.667 9.5 60
s-0.166992 41 -3.5 59z" />
    <glyph glyph-name="uni013F" unicode="&#x13f;" horiz-adv-x="478" 
d="M447 20h-295v680h-22v-700h317v20zM305 372h33v37h-33v-37z" />
    <glyph glyph-name="uni0140" unicode="&#x140;" horiz-adv-x="265" 
d="M211 18l0.000976562 -19c-34.667 0 -61.334 8.5 -80.001 25.5s-28 47.167 -28 90.5v585h22v-585c0 -34 6.66699 -58.667 20 -74s35.333 -23 66 -23zM209.001 372v37h33v-37h-33z" />
    <glyph glyph-name="uni0141" unicode="&#x141;" horiz-adv-x="478" 
d="M447 20h-295v329l135 79v23l-135 -80v329h-22v-342l-79 -46v-22l79 46v-336h317v20z" />
    <glyph glyph-name="uni0142" unicode="&#x142;" horiz-adv-x="272" 
d="M211 18l0.000976562 -19c-34.667 0 -61.334 8.5 -80.001 25.5s-28 47.167 -28 90.5v220l-51 -28v23l51 28v342h22v-329l93 52v-23l-93 -52v-233c0 -34 6.66699 -58.667 20 -74s35.333 -23 66 -23z" />
    <glyph glyph-name="uni0143" unicode="&#x143;" horiz-adv-x="729" 
d="M579 12l-409 689h-40v-701h22v687h2l408 -688h41v701h-22v-688h-2zM432 846h-31l-56 -96h19z" />
    <glyph glyph-name="uni0144" unicode="&#x144;" horiz-adv-x="616" 
d="M291 512c30 0 58.5 -4.83301 85.5 -14.5s50.5 -23.5 70.5 -41.5s35.833 -40.167 47.5 -66.5s17.5 -56.166 17.5 -89.499v-300h-22v300c0 31.333 -5.66699 58.833 -17 82.5s-26.166 43.5 -44.499 59.5s-39.333 28.167 -63 36.5s-48.167 12.5 -73.5 12.5
c-30 0 -59.167 -6 -87.5 -18s-52.833 -30.333 -73.5 -55v-418h-21v507h22v-61c19.333 19.333 42.666 35.166 69.999 47.499s57 18.5 89 18.5zM357 695l-66 -96h-19l56 96h29z" />
    <glyph glyph-name="uni0145" unicode="&#x145;" horiz-adv-x="729" 
d="M579 12h2v688h22v-701h-41l-408 688h-2v-687h-22v701h40zM355 -18h26c4.66699 -23.333 5.5 -44.5 2.5 -63.5s-8.83301 -38.167 -17.5 -57.5h-17c7.33301 21.333 11.5 41.5 12.5 60.5s-1.16699 39.167 -6.5 60.5z" />
    <glyph glyph-name="uni0146" unicode="&#x146;" horiz-adv-x="614" 
d="M289 512c30 0 58.5 -4.83301 85.5 -14.5s50.5 -23.5 70.5 -41.5s35.833 -40.167 47.5 -66.5s17.5 -56.166 17.5 -89.499v-300h-22v300c0 31.333 -5.66699 58.833 -17 82.5s-26.166 43.5 -44.499 59.5s-39.333 28.167 -63 36.5s-48.167 12.5 -73.5 12.5
c-30 0 -59.167 -6 -87.5 -18s-52.833 -30.333 -73.5 -55v-418h-21v507h22v-61c19.333 19.333 42.666 35.166 69.999 47.499s57 18.5 89 18.5zM306 -9h24c4.66699 -23.333 5.16699 -45.5 1.5 -66.5s-9.16699 -39.167 -16.5 -54.5h-15c7.33301 21.333 11.5 41.5 12.5 60.5
s-1.16699 39.167 -6.5 60.5z" />
    <glyph glyph-name="uni0147" unicode="&#x147;" horiz-adv-x="729" 
d="M579 12l-409 689h-40v-701h22v687h2l408 -688h41v701h-22v-688h-2zM303 844h-23l82 -96h26l82 96h-23l-72 -79z" />
    <glyph glyph-name="uni0148" unicode="&#x148;" horiz-adv-x="607" 
d="M284 512c30 0 58.5 -4.83301 85.5 -14.5s50.5 -23.5 70.5 -41.5s35.833 -40.167 47.5 -66.5s17.5 -56.166 17.5 -89.499v-300h-22v300c0 31.333 -5.66699 58.833 -17 82.5s-26.166 43.5 -44.499 59.5s-39.333 28.167 -63 36.5s-48.167 12.5 -73.5 12.5
c-30 0 -59.167 -6 -87.5 -18s-52.833 -30.333 -73.5 -55v-418h-21v507h22v-61c19.333 19.333 42.666 35.166 69.999 47.499s57 18.5 89 18.5zM222 692l72 -81l72 81h23l-82 -96h-26l-82 96h23z" />
    <glyph glyph-name="uni0149" unicode="&#x149;" horiz-adv-x="608" 
d="M290 512c30 0 58.5 -4.83301 85.5 -14.5s50.5 -23.5 70.5 -41.5s35.833 -40.167 47.5 -66.5s17.5 -56.166 17.5 -89.499v-300h-22v300c0 31.333 -5.66699 58.833 -17 82.5s-26.166 43.5 -44.499 59.5s-39.333 28.167 -63 36.5s-48.167 12.5 -73.5 12.5
c-30 0 -59.167 -6 -87.5 -18s-52.833 -30.333 -73.5 -55v-418h-21v507h22v-61c19.333 19.333 42.666 35.166 69.999 47.499s57 18.5 89 18.5zM26 699h25c5.33301 -18.667 5.83301 -39.5 1.5 -62.5s-10.5 -41.5 -18.5 -55.5h-15c6 21.333 10 41 12 59s0.333008 37.667 -5 59z
" />
    <glyph glyph-name="uni014A" unicode="&#x14a;" horiz-adv-x="729" 
d="M170 701l411 -668v667h22v-707c0 -45.333 -10 -79.333 -30 -102s-53 -34 -99 -34v20c39.333 0.666992 66.5 9.5 81.5 26.5s22.5 46.833 22.5 89.5v6h-1l-423 688h-2v-687h-22v701h40z" />
    <glyph glyph-name="uni014B" unicode="&#x14b;" horiz-adv-x="607" 
d="M285 512c30 0 58.5 -4.83301 85.5 -14.5s50.5 -23.5 70.5 -41.5s35.833 -40.167 47.5 -66.5s17.5 -56.166 17.5 -89.499v-359c0 -88.667 -37.667 -133 -113 -133c-2.66699 0 -5.33398 0.166992 -8.00098 0.5s-5.66699 0.5 -9 0.5v17c40.667 0 68.834 9.33301 84.501 28
s23.5 47.667 23.5 87v359c0 31.333 -5.66699 58.833 -17 82.5s-26.166 43.5 -44.499 59.5s-39.333 28.167 -63 36.5s-48.167 12.5 -73.5 12.5c-30 0 -59.167 -6 -87.5 -18s-52.833 -30.333 -73.5 -55v-418h-21v507h22v-61c19.333 19.333 42.666 35.166 69.999 47.499
s57 18.5 89 18.5z" />
    <glyph glyph-name="uni014C" unicode="&#x14c;" horiz-adv-x="848" 
d="M423 711c52 -0.666992 99.833 -10.333 143.5 -29s81 -44.167 112 -76.5s55.167 -70.333 72.5 -114s26 -91.167 26 -142.5c0 -61.333 -10.667 -114.666 -32 -159.999s-49 -82.833 -83 -112.5s-72 -51.834 -114 -66.501s-83.667 -22 -125 -22s-83 7.33301 -125 22
s-79.833 36.834 -113.5 66.501s-61 67.167 -82 112.5s-31.5 98.666 -31.5 159.999c0 54.667 9.16699 104.334 27.5 149.001s43.333 82.667 75 114s69 55.666 112 72.999s88.833 26 137.5 26zM423 691.001c-46 0 -89.1641 -8.16895 -129.497 -24.502
s-75.333 -39.333 -105 -69s-53 -65.5 -70 -107.5s-25.5 -89 -25.5 -141c0 -57.333 9.83301 -107.333 29.5 -150s45.167 -78.167 76.5 -106.5s66.666 -49.5 105.999 -63.5s78.666 -21 117.999 -21s78.666 6.83301 117.999 20.5s74.833 34.667 106.5 63
s57.5 63.833 77.5 106.5s30 93 30 151c0 48 -8 92.833 -24 134.5s-38.667 77.834 -68 108.501s-64.333 54.834 -105 72.501s-85.667 26.5 -135 26.5zM314.003 791.999v19h219v-19h-219z" />
    <glyph glyph-name="uni014D" unicode="&#x14d;" horiz-adv-x="634" 
d="M568 252c0 -41.333 -6.83301 -78.1689 -20.5 -110.502s-32.167 -59.5 -55.5 -81.5s-50.333 -38.833 -81 -50.5s-63 -17.5 -97 -17.5s-66.333 6 -97 18s-57.667 29.333 -81 52s-41.833 50 -55.5 82s-20.5 68 -20.5 108c0 39.333 6.83301 75 20.5 107
s32.167 59.5 55.5 82.5s50.333 40.667 81 53s63 18.5 97 18.5s66.333 -6.16699 97 -18.5s57.667 -29.666 81 -51.999s41.833 -49.666 55.5 -81.999s20.5 -68.5 20.5 -108.5zM81 251.997c0 -42 7.16699 -78.1641 21.5 -108.497s32.833 -55.5 55.5 -75.5
s47.834 -34.667 75.501 -44s54.5 -14 80.5 -14c26.667 0 53.834 4.5 81.501 13.5s52.834 23.167 75.501 42.5s41.167 44.333 55.5 75s21.5 67.667 21.5 111c0 41.333 -7.16699 77.166 -21.5 107.499s-32.833 55.5 -55.5 75.5s-47.834 35 -75.501 45s-54.834 15 -81.501 15
c-26 0 -52.833 -4.83301 -80.5 -14.5s-52.834 -24.334 -75.501 -44.001s-41.167 -44.834 -55.5 -75.501s-21.5 -67 -21.5 -109zM207 631v19h219v-19h-219z" />
    <glyph glyph-name="uni014E" unicode="&#x14e;" horiz-adv-x="848" 
d="M423 711c52 -0.666992 99.833 -10.333 143.5 -29s81 -44.167 112 -76.5s55.167 -70.333 72.5 -114s26 -91.167 26 -142.5c0 -61.333 -10.667 -114.666 -32 -159.999s-49 -82.833 -83 -112.5s-72 -51.834 -114 -66.501s-83.667 -22 -125 -22s-83 7.33301 -125 22
s-79.833 36.834 -113.5 66.501s-61 67.167 -82 112.5s-31.5 98.666 -31.5 159.999c0 54.667 9.16699 104.334 27.5 149.001s43.333 82.667 75 114s69 55.666 112 72.999s88.833 26 137.5 26zM423 691.001c-46 0 -89.1641 -8.16895 -129.497 -24.502
s-75.333 -39.333 -105 -69s-53 -65.5 -70 -107.5s-25.5 -89 -25.5 -141c0 -57.333 9.83301 -107.333 29.5 -150s45.167 -78.167 76.5 -106.5s66.666 -49.5 105.999 -63.5s78.666 -21 117.999 -21s78.666 6.83301 117.999 20.5s74.833 34.667 106.5 63
s57.5 63.833 77.5 106.5s30 93 30 151c0 48 -8 92.833 -24 134.5s-38.667 77.834 -68 108.501s-64.333 54.834 -105 72.501s-85.667 26.5 -135 26.5zM502.003 835.999l17.002 -0.000976562c-5.33301 -24.667 -17.833 -43 -37.5 -55s-40.834 -18 -63.501 -18
s-43.334 6.16699 -62.001 18.5s-29.667 30.833 -33 55.5h17c3.33301 -19.333 12.833 -33.833 28.5 -43.5s32.5 -14.5 50.5 -14.5c18.667 0 36 4.83301 52 14.5s26.333 23.834 31 42.501z" />
    <glyph glyph-name="uni014F" unicode="&#x14f;" horiz-adv-x="634" 
d="M568 252c0 -41.333 -6.83301 -78.1689 -20.5 -110.502s-32.167 -59.5 -55.5 -81.5s-50.333 -38.833 -81 -50.5s-63 -17.5 -97 -17.5s-66.333 6 -97 18s-57.667 29.333 -81 52s-41.833 50 -55.5 82s-20.5 68 -20.5 108c0 39.333 6.83301 75 20.5 107
s32.167 59.5 55.5 82.5s50.333 40.667 81 53s63 18.5 97 18.5s66.333 -6.16699 97 -18.5s57.667 -29.666 81 -51.999s41.833 -49.666 55.5 -81.999s20.5 -68.5 20.5 -108.5zM81 251.997c0 -42 7.16699 -78.1641 21.5 -108.497s32.833 -55.5 55.5 -75.5
s47.834 -34.667 75.501 -44s54.5 -14 80.5 -14c26.667 0 53.834 4.5 81.501 13.5s52.834 23.167 75.501 42.5s41.167 44.333 55.5 75s21.5 67.667 21.5 111c0 41.333 -7.16699 77.166 -21.5 107.499s-32.833 55.5 -55.5 75.5s-47.834 35 -75.501 45s-54.834 15 -81.501 15
c-26 0 -52.833 -4.83301 -80.5 -14.5s-52.834 -24.334 -75.501 -44.001s-41.167 -44.834 -55.5 -75.501s-21.5 -67 -21.5 -109zM402 675l17.002 -0.000976562c-5.33301 -24.667 -17.833 -43 -37.5 -55s-40.834 -18 -63.501 -18s-43.334 6.16699 -62.001 18.5
s-29.667 30.833 -33 55.5h17c3.33301 -19.333 12.833 -33.833 28.5 -43.5s32.5 -14.5 50.5 -14.5c18.667 0 36 4.83301 52 14.5s26.333 23.834 31 42.501z" />
    <glyph glyph-name="uni0150" unicode="&#x150;" horiz-adv-x="848" 
d="M423 711c52 -0.666992 99.833 -10.333 143.5 -29s81 -44.167 112 -76.5s55.167 -70.333 72.5 -114s26 -91.167 26 -142.5c0 -61.333 -10.667 -114.666 -32 -159.999s-49 -82.833 -83 -112.5s-72 -51.834 -114 -66.501s-83.667 -22 -125 -22s-83 7.33301 -125 22
s-79.833 36.834 -113.5 66.501s-61 67.167 -82 112.5s-31.5 98.666 -31.5 159.999c0 54.667 9.16699 104.334 27.5 149.001s43.333 82.667 75 114s69 55.666 112 72.999s88.833 26 137.5 26zM423 691.001c-46 0 -89.1641 -8.16895 -129.497 -24.502
s-75.333 -39.333 -105 -69s-53 -65.5 -70 -107.5s-25.5 -89 -25.5 -141c0 -57.333 9.83301 -107.333 29.5 -150s45.167 -78.167 76.5 -106.5s66.666 -49.5 105.999 -63.5s78.666 -21 117.999 -21s78.666 6.83301 117.999 20.5s74.833 34.667 106.5 63
s57.5 63.833 77.5 106.5s30 93 30 151c0 48 -8 92.833 -24 134.5s-38.667 77.834 -68 108.501s-64.333 54.834 -105 72.501s-85.667 26.5 -135 26.5zM343.003 758.999l49 89h31l-59 -89h-21zM455.003 758.999l49 89h31l-59 -89h-21z" />
    <glyph glyph-name="uni0151" unicode="&#x151;" horiz-adv-x="634" 
d="M568 252c0 -41.333 -6.83301 -78.1689 -20.5 -110.502s-32.167 -59.5 -55.5 -81.5s-50.333 -38.833 -81 -50.5s-63 -17.5 -97 -17.5s-66.333 6 -97 18s-57.667 29.333 -81 52s-41.833 50 -55.5 82s-20.5 68 -20.5 108c0 39.333 6.83301 75 20.5 107
s32.167 59.5 55.5 82.5s50.333 40.667 81 53s63 18.5 97 18.5s66.333 -6.16699 97 -18.5s57.667 -29.666 81 -51.999s41.833 -49.666 55.5 -81.999s20.5 -68.5 20.5 -108.5zM81 251.997c0 -42 7.16699 -78.1641 21.5 -108.497s32.833 -55.5 55.5 -75.5
s47.834 -34.667 75.501 -44s54.5 -14 80.5 -14c26.667 0 53.834 4.5 81.501 13.5s52.834 23.167 75.501 42.5s41.167 44.333 55.5 75s21.5 67.667 21.5 111c0 41.333 -7.16699 77.166 -21.5 107.499s-32.833 55.5 -55.5 75.5s-47.834 35 -75.501 45s-54.834 15 -81.501 15
c-26 0 -52.833 -4.83301 -80.5 -14.5s-52.834 -24.334 -75.501 -44.001s-41.167 -44.834 -55.5 -75.501s-21.5 -67 -21.5 -109zM235 597l49 89h31l-59 -89h-21zM347 597l49 89h31l-59 -89h-21z" />
    <glyph glyph-name="uni0152" unicode="&#x152;" horiz-adv-x="922" 
d="M856 697l0.00195312 -19.999h-316v-304h312v-20h-313v-333h317v-20h-354c-30.667 -7.33301 -59 -11 -85 -11c-44.667 0 -87.834 7.5 -129.501 22.5s-78.667 37.5 -111 67.5s-58.333 67.667 -78 113s-29.5 98.666 -29.5 159.999c0 50.667 8.16699 97.667 24.5 141
s39.666 81 69.999 113s67 57 110 75s90.833 27 143.5 27c28.667 0 57.667 -3.66699 87 -11h352zM91.002 352.001c0 -58.667 9.16699 -109.5 27.5 -152.5s42.5 -78.667 72.5 -107s64.667 -49.333 104 -63s80 -20.5 122 -20.5c16.667 0 33.5 1.33301 50.5 4
s34.167 6.66699 51.5 12v648c-34 10.667 -68 16 -102 16c-41.333 0 -81.5 -6.83301 -120.5 -20.5s-73.833 -34.334 -104.5 -62.001s-55.167 -62.667 -73.5 -105s-27.5 -92.166 -27.5 -149.499z" />
    <glyph glyph-name="uni0153" unicode="&#x153;" horiz-adv-x="1103" 
d="M798 14c30 0 59.3379 4.66699 88.0049 14s55 28 79 56l15 -14c-14.667 -14.667 -28.667 -26.834 -42 -36.501s-27 -17.5 -41 -23.5s-29 -10.167 -45 -12.5s-34 -3.5 -54 -3.5c-30 0 -57.833 5 -83.5 15s-48.334 23.333 -68.001 40s-36.5 36.334 -50.5 59.001
s-24.667 46.334 -32 71.001c-7.33301 -30 -18.833 -56.667 -34.5 -80s-34.334 -42.833 -56.001 -58.5s-45.834 -27.667 -72.501 -36s-54.334 -12.5 -83.001 -12.5c-34 0 -66.333 6 -97 18s-57.667 29.333 -81 52s-41.833 50 -55.5 82s-20.5 68 -20.5 108
c0 39.333 6.83301 75 20.5 107s32.167 59.5 55.5 82.5s50.333 40.667 81 53s63 18.5 97 18.5c28 0 54.833 -4.16699 80.5 -12.5s49.167 -20.166 70.5 -35.499s39.833 -34.166 55.5 -56.499s27.5 -47.5 35.5 -75.5c6.66699 26 17 50 31 72s31 41.167 51 57.5
s43.167 29.166 69.5 38.499s54.833 14 85.5 14c35.333 0 68.333 -6.83301 99 -20.5s57 -32.334 79 -56.001s38.667 -51.334 50 -83.001s15 -65.5 11 -101.5h-464c1.33301 -32.667 7.66602 -63.5 18.999 -92.5s27 -54.5 47 -76.5s43.667 -39.333 71 -52s57 -19 89 -19z
M85.0049 252c0 -42 7.16504 -78.1641 21.498 -108.497s32.833 -55.5 55.5 -75.5s47.834 -34.667 75.501 -44s54.5 -14 80.5 -14c26.667 0 53.834 4.5 81.501 13.5s52.834 23.167 75.501 42.5s41.167 44.333 55.5 75s21.5 67.667 21.5 111v12
c-1.33301 39.333 -9.5 73.333 -24.5 102s-33.667 52.667 -56 72s-47 33.666 -74 42.999s-53.5 14 -79.5 14s-52.833 -4.83301 -80.5 -14.5s-52.834 -24.334 -75.501 -44.001s-41.167 -44.834 -55.5 -75.501s-21.5 -67 -21.5 -109zM572.003 274.003l445.998 0.00195312
c0 36 -6.5 67.667 -19.5 95s-30 50.166 -51 68.499s-44.667 32.166 -71 41.499s-52.833 14.333 -79.5 15c-30 0 -58.333 -5.16699 -85 -15.5s-50.167 -24.833 -70.5 -43.5s-36.666 -41.667 -48.999 -69s-19.166 -58 -20.499 -92z" />
    <glyph glyph-name="uni0154" unicode="&#x154;" horiz-adv-x="616" 
d="M298 310l244 -309.998h-26l-244 309h-120v-309h-22v700h194c30.667 0 58.667 -4.16699 84 -12.5s47.333 -20.5 66 -36.5s33.167 -35.833 43.5 -59.5s15.833 -50.834 16.5 -81.501c0 -30 -4 -57.167 -12 -81.5s-20.667 -45.333 -38 -63s-39.333 -31.334 -66 -41.001
s-58.667 -14.5 -96 -14.5h-24zM152 330.002h167c129.333 0 194 60 194 180c0 28.667 -4.83301 53.667 -14.5 75s-23 39 -40 53s-37 24.5 -60 31.5s-48.167 10.5 -75.5 10.5h-171v-350zM370 837.002l-64 -91h-17l53 91h28z" />
    <glyph glyph-name="uni0155" unicode="&#x155;" horiz-adv-x="404" 
d="M102 507l19 0.00195312l1 -96c15.333 34 37.5 59.167 66.5 75.5s59.5 24.5 91.5 24.5c18 0 35.5 -2.5 52.5 -7.5s32.5 -12.5 46.5 -22.5l-9 -16c-28 17.333 -58.333 26 -91 26c-20 0 -39.5 -3.66699 -58.5 -11s-35.667 -17.833 -50 -31.5s-25.833 -30.334 -34.5 -50.001
s-13 -41.834 -13 -66.501v-332h-21v507zM295 695.002l-64 -91h-17l53 91h28z" />
    <glyph glyph-name="uni0156" unicode="&#x156;" horiz-adv-x="616" 
d="M298 310l244 -309.998h-26l-244 309h-120v-309h-22v700h194c30.667 0 58.667 -4.16699 84 -12.5s47.333 -20.5 66 -36.5s33.167 -35.833 43.5 -59.5s15.833 -50.834 16.5 -81.501c0 -30 -4 -57.167 -12 -81.5s-20.667 -45.333 -38 -63s-39.333 -31.334 -66 -41.001
s-58.667 -14.5 -96 -14.5h-24zM152 330.002h167c129.333 0 194 60 194 180c0 28.667 -4.83301 53.667 -14.5 75s-23 39 -40 53s-37 24.5 -60 31.5s-48.167 10.5 -75.5 10.5h-171v-350zM321 -11.998l24 0.000976562c5.33301 -21.333 6.5 -41 3.5 -59
s-9.16699 -37.667 -18.5 -59h-15c6.66699 18.667 10.667 38.167 12 58.5s-0.666992 40.166 -6 59.499z" />
    <glyph glyph-name="uni0157" unicode="&#x157;" horiz-adv-x="404" 
d="M102 507l19 0.00195312l1 -96c15.333 34 37.5 59.167 66.5 75.5s59.5 24.5 91.5 24.5c18 0 35.5 -2.5 52.5 -7.5s32.5 -12.5 46.5 -22.5l-9 -16c-28 17.333 -58.333 26 -91 26c-20 0 -39.5 -3.66699 -58.5 -11s-35.667 -17.833 -50 -31.5s-25.833 -30.334 -34.5 -50.001
s-13 -41.834 -13 -66.501v-332h-21v507zM99 -20.998l23.001 -0.00292969c4.66699 -19.333 5.66699 -38.666 3 -57.999s-8.33398 -38.666 -17.001 -57.999h-15c6.66699 18.667 10.667 37.834 12 57.501s-0.666992 39.167 -6 58.5z" />
    <glyph glyph-name="uni0158" unicode="&#x158;" horiz-adv-x="616" 
d="M298 310l244 -309.998h-26l-244 309h-120v-309h-22v700h194c30.667 0 58.667 -4.16699 84 -12.5s47.333 -20.5 66 -36.5s33.167 -35.833 43.5 -59.5s15.833 -50.834 16.5 -81.501c0 -30 -4 -57.167 -12 -81.5s-20.667 -45.333 -38 -63s-39.333 -31.334 -66 -41.001
s-58.667 -14.5 -96 -14.5h-24zM152 330.002h167c129.333 0 194 60 194 180c0 28.667 -4.83301 53.667 -14.5 75s-23 39 -40 53s-37 24.5 -60 31.5s-48.167 10.5 -75.5 10.5h-171v-350zM230 846.002l72 -79l72 79h23l-82 -96h-26l-82 96h23z" />
    <glyph glyph-name="uni0159" unicode="&#x159;" horiz-adv-x="404" 
d="M102 507l19 0.00195312l1 -96c15.333 34 37.5 59.167 66.5 75.5s59.5 24.5 91.5 24.5c18 0 35.5 -2.5 52.5 -7.5s32.5 -12.5 46.5 -22.5l-9 -16c-28 17.333 -58.333 26 -91 26c-20 0 -39.5 -3.66699 -58.5 -11s-35.667 -17.833 -50 -31.5s-25.833 -30.334 -34.5 -50.001
s-13 -41.834 -13 -66.501v-332h-21v507zM167 688.002l72 -79l72 79h23l-82 -96h-26l-82 96h23z" />
    <glyph glyph-name="uni015A" unicode="&#x15a;" 
d="M125 545c-0.666992 -27.333 4.16211 -50.4961 14.4951 -69.4961s23.5 -34.667 39.5 -47s33.333 -22.333 52 -30s36 -13.834 52 -18.501c22 -6.66699 44.333 -15.667 67 -27s43 -25.666 61 -42.999s32.333 -38.5 43 -63.5s15 -54.167 13 -87.5
c-1.33301 -29.333 -8.16602 -54.5 -20.499 -75.5s-28 -38.167 -47 -51.5s-40 -23.166 -63 -29.499s-45.5 -9.5 -67.5 -9.5c-39.333 0 -76.166 9.5 -110.499 28.5s-61.166 48.167 -80.499 87.5l19 11c18 -36 42.5 -62.333 73.5 -79s63.833 -25.334 98.5 -26.001
c50 -0.666992 91.167 11.833 123.5 37.5s49.833 61.834 52.5 108.501c1.33301 31.333 -3.16699 58.166 -13.5 80.499s-23.833 41.5 -40.5 57.5s-35.167 29 -55.5 39s-40.166 17.667 -59.499 23c-20 5.33301 -40.333 12.666 -61 21.999s-39.5 21.166 -56.5 35.499
s-30.667 31.833 -41 52.5s-15.166 45.334 -14.499 74.001c1.33301 27.333 7.16602 51.166 17.499 71.499s23.833 37.166 40.5 50.499s35.5 23.333 56.5 30s42.5 10 64.5 10c34 0 65 -7 93 -21s51.667 -37 71 -69l-19 -9c-18.667 28.667 -39.5 48.834 -62.5 60.501
s-51.5 17.5 -85.5 17.5c-18.667 0 -37 -2.66699 -55 -8s-34 -13.833 -48 -25.5s-25.667 -26.334 -35 -44.001s-14.666 -38.834 -15.999 -63.501zM353.996 853.004l-63 -95h-18l55 95h26z" />
    <glyph glyph-name="uni015B" unicode="&#x15b;" horiz-adv-x="439" 
d="M223 269c19.333 -4 37.832 -9.66602 55.499 -16.999s33.167 -16.5 46.5 -27.5s23.833 -24.333 31.5 -40s11.5 -33.5 11.5 -53.5c0 -22.667 -4.33301 -42.667 -13 -60s-20.167 -31.833 -34.5 -43.5s-30.666 -20.334 -48.999 -26.001s-37.166 -8.5 -56.499 -8.5
c-28 0 -55 5.16699 -81 15.5s-47.667 26.833 -65 49.5c5.33301 5.33301 9 9.33301 11 12l2 2c18.667 -22.667 39.667 -38.167 63 -46.5s46.666 -12.5 69.999 -12.5c16.667 0 32.834 2.33301 48.501 7s29.667 12 42 22s22.333 22.333 30 37s11.5 32 11.5 52
c0 18.667 -4 35 -12 49s-18 25.667 -30 35s-25.667 16.833 -41 22.5s-30.666 9.83398 -45.999 12.501c-17.333 2.66699 -34 7.66699 -50 15s-30 16.5 -42 27.5s-21.667 24 -29 39s-11 31.5 -11 49.5c0 21.333 4 40.166 12 56.499s18.833 30 32.5 41s29.334 19.5 47.001 25.5
s36.167 9 55.5 9c22 0 41.667 -2.83301 59 -8.5s34.666 -15.834 51.999 -30.501l-10 -14c-17.333 12.667 -32.833 21.5 -46.5 26.5s-31.167 7.5 -52.5 7.5c-16.667 0 -32.834 -2.5 -48.501 -7.5s-29.334 -12.167 -41.001 -21.5s-21 -21.166 -28 -35.499
s-10.5 -30.833 -10.5 -49.5s3.66699 -34.5 11 -47.5s16.666 -23.833 27.999 -32.5s23.833 -15.5 37.5 -20.5s26.834 -8.5 39.501 -10.5zM282.999 678.001l-63 -95h-18l55 95h26z" />
    <glyph glyph-name="uni015C" unicode="&#x15c;" 
d="M125 545c-0.666992 -27.333 4.16211 -50.4961 14.4951 -69.4961s23.5 -34.667 39.5 -47s33.333 -22.333 52 -30s36 -13.834 52 -18.501c22 -6.66699 44.333 -15.667 67 -27s43 -25.666 61 -42.999s32.333 -38.5 43 -63.5s15 -54.167 13 -87.5
c-1.33301 -29.333 -8.16602 -54.5 -20.499 -75.5s-28 -38.167 -47 -51.5s-40 -23.166 -63 -29.499s-45.5 -9.5 -67.5 -9.5c-39.333 0 -76.166 9.5 -110.499 28.5s-61.166 48.167 -80.499 87.5l19 11c18 -36 42.5 -62.333 73.5 -79s63.833 -25.334 98.5 -26.001
c50 -0.666992 91.167 11.833 123.5 37.5s49.833 61.834 52.5 108.501c1.33301 31.333 -3.16699 58.166 -13.5 80.499s-23.833 41.5 -40.5 57.5s-35.167 29 -55.5 39s-40.166 17.667 -59.499 23c-20 5.33301 -40.333 12.666 -61 21.999s-39.5 21.166 -56.5 35.499
s-30.667 31.833 -41 52.5s-15.166 45.334 -14.499 74.001c1.33301 27.333 7.16602 51.166 17.499 71.499s23.833 37.166 40.5 50.499s35.5 23.333 56.5 30s42.5 10 64.5 10c34 0 65 -7 93 -21s51.667 -37 71 -69l-19 -9c-18.667 28.667 -39.5 48.834 -62.5 60.501
s-51.5 17.5 -85.5 17.5c-18.667 0 -37 -2.66699 -55 -8s-34 -13.833 -48 -25.5s-25.667 -26.334 -35 -44.001s-14.666 -38.834 -15.999 -63.501zM357.996 754.004l-72 79l-72 -79h-23l82 96h26l82 -96h-23z" />
    <glyph glyph-name="uni015D" unicode="&#x15d;" horiz-adv-x="439" 
d="M223 269c19.333 -4 37.832 -9.66602 55.499 -16.999s33.167 -16.5 46.5 -27.5s23.833 -24.333 31.5 -40s11.5 -33.5 11.5 -53.5c0 -22.667 -4.33301 -42.667 -13 -60s-20.167 -31.833 -34.5 -43.5s-30.666 -20.334 -48.999 -26.001s-37.166 -8.5 -56.499 -8.5
c-28 0 -55 5.16699 -81 15.5s-47.667 26.833 -65 49.5c5.33301 5.33301 9 9.33301 11 12l2 2c18.667 -22.667 39.667 -38.167 63 -46.5s46.666 -12.5 69.999 -12.5c16.667 0 32.834 2.33301 48.501 7s29.667 12 42 22s22.333 22.333 30 37s11.5 32 11.5 52
c0 18.667 -4 35 -12 49s-18 25.667 -30 35s-25.667 16.833 -41 22.5s-30.666 9.83398 -45.999 12.501c-17.333 2.66699 -34 7.66699 -50 15s-30 16.5 -42 27.5s-21.667 24 -29 39s-11 31.5 -11 49.5c0 21.333 4 40.166 12 56.499s18.833 30 32.5 41s29.334 19.5 47.001 25.5
s36.167 9 55.5 9c22 0 41.667 -2.83301 59 -8.5s34.666 -15.834 51.999 -30.501l-10 -14c-17.333 12.667 -32.833 21.5 -46.5 26.5s-31.167 7.5 -52.5 7.5c-16.667 0 -32.834 -2.5 -48.501 -7.5s-29.334 -12.167 -41.001 -21.5s-21 -21.166 -28 -35.499
s-10.5 -30.833 -10.5 -49.5s3.66699 -34.5 11 -47.5s16.666 -23.833 27.999 -32.5s23.833 -15.5 37.5 -20.5s26.834 -8.5 39.501 -10.5zM301.999 583.001l-72 79l-72 -79h-23l82 96h26l82 -96h-23z" />
    <glyph glyph-name="uni015E" unicode="&#x15e;" 
d="M125 545c-0.666992 -27.333 4.16309 -50.498 14.4961 -69.498s23.5 -34.667 39.5 -47s33.333 -22.333 52 -30s36 -13.834 52 -18.501c22 -6.66699 44.333 -15.667 67 -27s43 -25.666 61 -42.999s32.333 -38.5 43 -63.5s15 -54.167 13 -87.5
c-1.33301 -28 -7.5 -52 -18.5 -72s-25.167 -36.667 -42.5 -50s-36.5 -23.5 -57.5 -30.5s-42.167 -11.167 -63.5 -12.5l-15 -33c30 -0.666992 51.833 -7.16699 65.5 -19.5s20.5 -25.833 20.5 -40.5s-6.5 -28 -19.5 -40s-31.833 -18 -56.5 -18c-10 0 -20.667 1.33301 -32 4
s-22.666 7.33398 -33.999 14.001l3 15c10 -5.33301 20 -9.16602 30 -11.499s19.667 -3.5 29 -3.5c22 0 37.833 4.5 47.5 13.5s13.834 18.667 12.501 29s-8 20 -20 29s-28.667 13.5 -50 13.5h-12c-4 0 -7.66699 -0.333008 -11 -1l25 48
c-39.333 0.666992 -76 10.334 -110 29.001s-60.667 47.667 -80 87l19 11c18 -36 42.5 -62.333 73.5 -79s63.833 -25.334 98.5 -26.001c50 -0.666992 91.167 11.833 123.5 37.5s49.833 61.834 52.5 108.501c1.33301 31.333 -3.16699 58.166 -13.5 80.499
s-23.833 41.5 -40.5 57.5s-35.167 29 -55.5 39s-40.166 17.667 -59.499 23c-20 5.33301 -40.333 12.666 -61 21.999s-39.5 21.166 -56.5 35.499s-30.667 31.833 -41 52.5s-15.166 45.334 -14.499 74.001c1.33301 27.333 7.16602 51.166 17.499 71.499
s23.833 37.166 40.5 50.499s35.5 23.333 56.5 30s42.5 10 64.5 10c34 0 65 -7 93 -21s51.667 -37 71 -69l-19 -9c-18.667 28.667 -39.5 48.834 -62.5 60.501s-51.5 17.5 -85.5 17.5c-18.667 0 -37 -2.66699 -55 -8s-34 -13.833 -48 -25.5s-25.667 -26.334 -35 -44.001
s-14.666 -38.834 -15.999 -63.501z" />
    <glyph glyph-name="uni015F" unicode="&#x15f;" horiz-adv-x="438" 
d="M223 269c19.333 -4 37.834 -9.66797 55.501 -17.001s33.167 -16.5 46.5 -27.5s23.833 -24.333 31.5 -40s11.5 -33.5 11.5 -53.5c0 -20.667 -3.66699 -39.167 -11 -55.5s-17 -30.166 -29 -41.499s-25.833 -20.166 -41.5 -26.499s-32.167 -10.5 -49.5 -12.5l-11 -26
c24.667 -0.666992 42.834 -6.5 54.501 -17.5s17.5 -22.833 17.5 -35.5s-5.5 -24.167 -16.5 -34.5s-26.5 -15.5 -46.5 -15.5c-9.33301 0 -18.833 1.16699 -28.5 3.5s-19.834 6.5 -30.501 12.5l3 13c9.33301 -4.66699 18.333 -7.83398 27 -9.50098s17 -2.5 25 -2.5
c18 0 31 3.83301 39 11.5s11.167 16 9.5 25s-7.33398 17.333 -17.001 25s-23.167 11.5 -40.5 11.5h-10c-3.33301 0 -6.66602 -0.333008 -9.99902 -1l18 38h-5c-28 0 -55 5.16699 -81 15.5s-47.667 26.833 -65 49.5c5.33301 5.33301 9 9.33301 11 12l2 2
c18.667 -22.667 39.667 -38.167 63 -46.5s46.666 -12.5 69.999 -12.5c16.667 0 32.834 2.33301 48.501 7s29.667 12 42 22s22.333 22.333 30 37s11.5 32 11.5 52c0 18.667 -4 35 -12 49s-18 25.667 -30 35s-25.667 16.833 -41 22.5s-30.666 9.83398 -45.999 12.501
c-17.333 2.66699 -34 7.66699 -50 15s-30 16.5 -42 27.5s-21.667 24 -29 39s-11 31.5 -11 49.5c0 21.333 4 40.166 12 56.499s18.833 30 32.5 41s29.334 19.5 47.001 25.5s36.167 9 55.5 9c22 0 41.667 -2.83301 59 -8.5s34.666 -15.834 51.999 -30.501l-10 -14
c-17.333 12.667 -32.833 21.5 -46.5 26.5s-31.167 7.5 -52.5 7.5c-16.667 0 -32.834 -2.5 -48.501 -7.5s-29.334 -12.167 -41.001 -21.5s-21 -21.166 -28 -35.499s-10.5 -30.833 -10.5 -49.5s3.66699 -34.5 11 -47.5s16.666 -23.833 27.999 -32.5s23.833 -15.5 37.5 -20.5
s26.834 -8.5 39.501 -10.5z" />
    <glyph glyph-name="uni0160" unicode="&#x160;" 
d="M125 545c-0.666992 -27.333 4.16211 -50.4961 14.4951 -69.4961s23.5 -34.667 39.5 -47s33.333 -22.333 52 -30s36 -13.834 52 -18.501c22 -6.66699 44.333 -15.667 67 -27s43 -25.666 61 -42.999s32.333 -38.5 43 -63.5s15 -54.167 13 -87.5
c-1.33301 -29.333 -8.16602 -54.5 -20.499 -75.5s-28 -38.167 -47 -51.5s-40 -23.166 -63 -29.499s-45.5 -9.5 -67.5 -9.5c-39.333 0 -76.166 9.5 -110.499 28.5s-61.166 48.167 -80.499 87.5l19 11c18 -36 42.5 -62.333 73.5 -79s63.833 -25.334 98.5 -26.001
c50 -0.666992 91.167 11.833 123.5 37.5s49.833 61.834 52.5 108.501c1.33301 31.333 -3.16699 58.166 -13.5 80.499s-23.833 41.5 -40.5 57.5s-35.167 29 -55.5 39s-40.166 17.667 -59.499 23c-20 5.33301 -40.333 12.666 -61 21.999s-39.5 21.166 -56.5 35.499
s-30.667 31.833 -41 52.5s-15.166 45.334 -14.499 74.001c1.33301 27.333 7.16602 51.166 17.499 71.499s23.833 37.166 40.5 50.499s35.5 23.333 56.5 30s42.5 10 64.5 10c34 0 65 -7 93 -21s51.667 -37 71 -69l-19 -9c-18.667 28.667 -39.5 48.834 -62.5 60.501
s-51.5 17.5 -85.5 17.5c-18.667 0 -37 -2.66699 -55 -8s-34 -13.833 -48 -25.5s-25.667 -26.334 -35 -44.001s-14.666 -38.834 -15.999 -63.501zM214.996 867.004l72 -79l72 79h23l-82 -96h-26l-82 96h23z" />
    <glyph glyph-name="uni0161" unicode="&#x161;" horiz-adv-x="439" 
d="M223 269c19.333 -4 37.832 -9.66602 55.499 -16.999s33.167 -16.5 46.5 -27.5s23.833 -24.333 31.5 -40s11.5 -33.5 11.5 -53.5c0 -22.667 -4.33301 -42.667 -13 -60s-20.167 -31.833 -34.5 -43.5s-30.666 -20.334 -48.999 -26.001s-37.166 -8.5 -56.499 -8.5
c-28 0 -55 5.16699 -81 15.5s-47.667 26.833 -65 49.5c5.33301 5.33301 9 9.33301 11 12l2 2c18.667 -22.667 39.667 -38.167 63 -46.5s46.666 -12.5 69.999 -12.5c16.667 0 32.834 2.33301 48.501 7s29.667 12 42 22s22.333 22.333 30 37s11.5 32 11.5 52
c0 18.667 -4 35 -12 49s-18 25.667 -30 35s-25.667 16.833 -41 22.5s-30.666 9.83398 -45.999 12.501c-17.333 2.66699 -34 7.66699 -50 15s-30 16.5 -42 27.5s-21.667 24 -29 39s-11 31.5 -11 49.5c0 21.333 4 40.166 12 56.499s18.833 30 32.5 41s29.334 19.5 47.001 25.5
s36.167 9 55.5 9c22 0 41.667 -2.83301 59 -8.5s34.666 -15.834 51.999 -30.501l-10 -14c-17.333 12.667 -32.833 21.5 -46.5 26.5s-31.167 7.5 -52.5 7.5c-16.667 0 -32.834 -2.5 -48.501 -7.5s-29.334 -12.167 -41.001 -21.5s-21 -21.166 -28 -35.499
s-10.5 -30.833 -10.5 -49.5s3.66699 -34.5 11 -47.5s16.666 -23.833 27.999 -32.5s23.833 -15.5 37.5 -20.5s26.834 -8.5 39.501 -10.5zM158.999 715.001l72 -79l72 79h23l-82 -96h-26l-82 96h23z" />
    <glyph glyph-name="uni0162" unicode="&#x162;" horiz-adv-x="450" 
d="M25 700l401 0.00195312v-21h-189v-711c29.333 -0.666992 50 -7.5 62 -20.5s17.667 -27.167 17 -42.5c-0.666992 -19.333 -9 -35 -25 -47s-35.667 -18 -59 -18c-18.667 0 -37 4 -55 12c0 1.33301 0.166992 4.16602 0.5 8.49902s0.833008 7.16602 1.5 8.49902
c13.333 -7.33301 29.666 -11 48.999 -11c16.667 0 31.834 3.66699 45.501 11s20.5 19.333 20.5 36c0 13.333 -6 24.833 -18 34.5s-27.333 14.5 -46 14.5c-1.33301 0 -3 -0.166992 -5 -0.5s-4 -0.5 -6 -0.5l1 47h-5v679h-190v21z" />
    <glyph glyph-name="uni0163" unicode="&#x163;" horiz-adv-x="313" 
d="M244 17l-0.000976562 -18c-30 0 -54 4.33301 -72 13v-31c28 -0.666992 47.833 -7 59.5 -19s17.167 -25.333 16.5 -40c-0.666992 -18 -8.66699 -32.833 -24 -44.5s-34 -17.5 -56 -17.5c-17.333 0 -35 3.66699 -53 11c0 1.33301 0.166992 4.33301 0.5 9
s0.833008 7.66699 1.5 9c13.333 -7.33301 29.333 -11 48 -11c15.333 0 29.5 3.5 42.5 10.5s19.5 18.167 19.5 33.5c0 12 -5.66699 22.667 -17 32s-25.666 14 -42.999 14c-1.33301 0 -3 -0.166992 -5 -0.5s-4 -0.5 -6 -0.5l2 52c-28 20 -42 54.667 -42 104v365h-59v19h59v193
h21v-193h104v-19h-104v-365c0 -34 7.66699 -60.167 23 -78.5s43.333 -27.5 84 -27.5z" />
    <glyph glyph-name="uni0164" unicode="&#x164;" horiz-adv-x="451" 
d="M25 700v-21h190v-679h22v679h189v21h-401zM154 847h-23l82 -96h26l82 96h-23l-72 -79z" />
    <glyph glyph-name="uni0165" unicode="&#x165;" horiz-adv-x="313" 
d="M244 17v-18c-42.667 0 -74.667 9.66699 -96 29s-32 51 -32 95v365h-59v19h59v193h21v-193h104v-19h-104v-365c0 -34 7.66699 -60.167 23 -78.5s43.333 -27.5 84 -27.5zM285 699h22c4.66699 -18.667 5.66699 -38.5 3 -59.5s-8 -40.833 -16 -59.5h-15
c14 39.333 16 79 6 119z" />
    <glyph glyph-name="uni0166" unicode="&#x166;" horiz-adv-x="450" 
d="M78 337h137v-337h22v337h142v16h-142v326h189v21h-401v-21h190v-326h-137v-16z" />
    <glyph glyph-name="uni0167" unicode="&#x167;" horiz-adv-x="313" 
d="M244 17v-18c-42.667 0 -74.667 9.66699 -96 29s-32 51 -32 95v148h-57v16h57v201h-59v19h59v193h21v-193h104v-19h-104v-201h111v-16h-111v-148c0 -34 7.66699 -60.167 23 -78.5s43.333 -27.5 84 -27.5z" />
    <glyph glyph-name="uni0168" unicode="&#x168;" horiz-adv-x="655" 
d="M120 700h22v-516c0.666992 -28.667 6.33398 -53.667 17.001 -75s24.667 -39.166 42 -53.499s37 -25 59 -32s44.333 -10.5 67 -10.5c23.333 0 46 3.5 68 10.5s41.667 17.667 59 32s31.333 32.166 42 53.499s16.334 46.333 17.001 75v516h22v-516
c0 -32 -6 -59.833 -18 -83.5s-27.667 -43.5 -47 -59.5s-41.5 -28 -66.5 -36s-50.5 -12 -76.5 -12s-51.333 4 -76 12s-46.834 20 -66.501 36s-35.334 35.833 -47.001 59.5s-17.5 51.5 -17.5 83.5v516zM430 799l10.9971 -7.99902c-8 -13.333 -16.667 -23 -26 -29
s-19.666 -9 -30.999 -9c-8 0 -16 2 -24 6s-15.833 8.16699 -23.5 12.5l-23 12.5c-7.66699 4 -15.167 6 -22.5 6s-14.666 -1.33301 -21.999 -4s-14.666 -9.66699 -21.999 -21l-12 7c7.33301 16 16.666 26.167 27.999 30.5s21 6.5 29 6.5s16 -2 24 -6
s15.833 -8.16699 23.5 -12.5l23 -12.5c7.66699 -4 15.5 -6 23.5 -6c6.66699 0 13.834 1.66699 21.501 5s15.167 10.666 22.5 21.999z" />
    <glyph glyph-name="uni0169" unicode="&#x169;" horiz-adv-x="615" 
d="M323 -5c-30 0 -58.5 4.83301 -85.5 14.5s-50.5 23.5 -70.5 41.5s-35.833 40.167 -47.5 66.5s-17.5 56.166 -17.5 89.499v300h21v-300c0 -30.667 5.66699 -58 17 -82s26.166 -44 44.499 -60s39.5 -28.167 63.5 -36.5s48.667 -12.5 74 -12.5c30 0 59.167 6 87.5 18
s52.833 30.333 73.5 55v418h21v-507h-22v61c-19.333 -19.333 -42.666 -35.166 -69.999 -47.499s-57 -18.5 -89 -18.5zM398 666l10.9971 -7.99902c-8 -13.333 -16.667 -23 -26 -29s-19.666 -9 -30.999 -9c-8 0 -16 2 -24 6s-15.833 8.16699 -23.5 12.5l-23 12.5
c-7.66699 4 -15.167 6 -22.5 6s-14.666 -1.33301 -21.999 -4s-14.666 -9.66699 -21.999 -21l-12 7c7.33301 16 16.666 26.167 27.999 30.5s21 6.5 29 6.5s16 -2 24 -6s15.833 -8.16699 23.5 -12.5l23 -12.5c7.66699 -4 15.5 -6 23.5 -6c6.66699 0 13.834 1.66699 21.501 5
s15.167 10.666 22.5 21.999z" />
    <glyph glyph-name="uni016A" unicode="&#x16a;" horiz-adv-x="655" 
d="M120 700h22v-516c0.666992 -28.667 6.33398 -53.667 17.001 -75s24.667 -39.166 42 -53.499s37 -25 59 -32s44.333 -10.5 67 -10.5c23.333 0 46 3.5 68 10.5s41.667 17.667 59 32s31.333 32.166 42 53.499s16.334 46.333 17.001 75v516h22v-516
c0 -32 -6 -59.833 -18 -83.5s-27.667 -43.5 -47 -59.5s-41.5 -28 -66.5 -36s-50.5 -12 -76.5 -12s-51.333 4 -76 12s-46.834 20 -66.501 36s-35.334 35.833 -47.001 59.5s-17.5 51.5 -17.5 83.5v516zM223 794v20h219v-20h-219z" />
    <glyph glyph-name="uni016B" unicode="&#x16b;" horiz-adv-x="615" 
d="M323 -5c-30 0 -58.5 4.83301 -85.5 14.5s-50.5 23.5 -70.5 41.5s-35.833 40.167 -47.5 66.5s-17.5 56.166 -17.5 89.499v300h21v-300c0 -30.667 5.66699 -58 17 -82s26.166 -44 44.499 -60s39.5 -28.167 63.5 -36.5s48.667 -12.5 74 -12.5c30 0 59.167 6 87.5 18
s52.833 30.333 73.5 55v418h21v-507h-22v61c-19.333 -19.333 -42.666 -35.166 -69.999 -47.499s-57 -18.5 -89 -18.5zM205 654v18h215v-18h-215z" />
    <glyph glyph-name="uni016C" unicode="&#x16c;" horiz-adv-x="655" 
d="M120 700h22v-516c0.666992 -28.667 6.33398 -53.667 17.001 -75s24.667 -39.166 42 -53.499s37 -25 59 -32s44.333 -10.5 67 -10.5c23.333 0 46 3.5 68 10.5s41.667 17.667 59 32s31.333 32.166 42 53.499s16.334 46.333 17.001 75v516h22v-516
c0 -32 -6 -59.833 -18 -83.5s-27.667 -43.5 -47 -59.5s-41.5 -28 -66.5 -36s-50.5 -12 -76.5 -12s-51.333 4 -76 12s-46.834 20 -66.501 36s-35.334 35.833 -47.001 59.5s-17.5 51.5 -17.5 83.5v516zM424 820l17.002 -0.000976562c-5.33301 -24.667 -17.833 -43 -37.5 -55
s-40.834 -18 -63.501 -18s-43.334 6.16699 -62.001 18.5s-29.667 30.833 -33 55.5h17c3.33301 -19.333 12.833 -33.833 28.5 -43.5s32.5 -14.5 50.5 -14.5c18.667 0 36 4.83301 52 14.5s26.333 23.834 31 42.501z" />
    <glyph glyph-name="uni016D" unicode="&#x16d;" horiz-adv-x="613" 
d="M323 -5c-30 0 -58.5 4.83301 -85.5 14.5s-50.5 23.5 -70.5 41.5s-35.833 40.167 -47.5 66.5s-17.5 56.166 -17.5 89.499v300h21v-300c0 -30.667 5.66699 -58 17 -82s26.166 -44 44.499 -60s39.5 -28.167 63.5 -36.5s48.667 -12.5 74 -12.5c30 0 59.167 6 87.5 18
s52.833 30.333 73.5 55v418h21v-507h-22v61c-19.333 -19.333 -42.666 -35.166 -69.999 -47.499s-57 -18.5 -89 -18.5zM396 688l17.002 -0.000976562c-5.33301 -24.667 -17.833 -43 -37.5 -55s-40.834 -18 -63.501 -18s-43.334 6.16699 -62.001 18.5s-29.667 30.833 -33 55.5
h17c3.33301 -19.333 12.833 -33.833 28.5 -43.5s32.5 -14.5 50.5 -14.5c18.667 0 36 4.83301 52 14.5s26.333 23.834 31 42.501z" />
    <glyph glyph-name="uni016E" unicode="&#x16e;" horiz-adv-x="655" 
d="M120 700h22v-516c0.666992 -28.667 6.33398 -53.667 17.001 -75s24.667 -39.166 42 -53.499s37 -25 59 -32s44.333 -10.5 67 -10.5c23.333 0 46 3.5 68 10.5s41.667 17.667 59 32s31.333 32.166 42 53.499s16.334 46.333 17.001 75v516h22v-516
c0 -32 -6 -59.833 -18 -83.5s-27.667 -43.5 -47 -59.5s-41.5 -28 -66.5 -36s-50.5 -12 -76.5 -12s-51.333 4 -76 12s-46.834 20 -66.501 36s-35.334 35.833 -47.001 59.5s-17.5 51.5 -17.5 83.5v516zM329 851c18.667 0.666992 32.665 -4.66602 41.998 -15.999
s14 -23.833 14 -37.5s-4.66699 -26.167 -14 -37.5s-23.333 -17 -42 -17c-19.333 0 -33.666 5.66699 -42.999 17s-14 23.833 -14 37.5s4.83301 26.167 14.5 37.5s23.834 16.666 42.501 15.999zM328.998 834c-13.333 0 -23.333 -3.83301 -30 -11.5s-10 -16.167 -10 -25.5
s3.33301 -18 10 -26s16.667 -12 30 -12s23.333 4 30 12s10 16.667 10 26s-3.33301 17.833 -10 25.5s-16.667 11.5 -30 11.5z" />
    <glyph glyph-name="uni016F" unicode="&#x16f;" horiz-adv-x="613" 
d="M323 -5c-30 0 -58.5 4.83301 -85.5 14.5s-50.5 23.5 -70.5 41.5s-35.833 40.167 -47.5 66.5s-17.5 56.166 -17.5 89.499v300h21v-300c0 -30.667 5.66699 -58 17 -82s26.166 -44 44.499 -60s39.5 -28.167 63.5 -36.5s48.667 -12.5 74 -12.5c30 0 59.167 6 87.5 18
s52.833 30.333 73.5 55v418h21v-507h-22v61c-19.333 -19.333 -42.666 -35.166 -69.999 -47.499s-57 -18.5 -89 -18.5zM306 691c18.667 0.666992 32.665 -4.66602 41.998 -15.999s14 -23.833 14 -37.5s-4.66699 -26.167 -14 -37.5s-23.333 -17 -42 -17
c-19.333 0 -33.666 5.66699 -42.999 17s-14 23.833 -14 37.5s4.83301 26.167 14.5 37.5s23.834 16.666 42.501 15.999zM305.998 674c-13.333 0 -23.333 -3.83301 -30 -11.5s-10 -16.167 -10 -25.5s3.33301 -18 10 -26s16.667 -12 30 -12s23.333 4 30 12s10 16.667 10 26
s-3.33301 17.833 -10 25.5s-16.667 11.5 -30 11.5z" />
    <glyph glyph-name="uni0170" unicode="&#x170;" horiz-adv-x="655" 
d="M120 700h22v-516c0.666992 -28.667 6.33398 -53.667 17.001 -75s24.667 -39.166 42 -53.499s37 -25 59 -32s44.333 -10.5 67 -10.5c23.333 0 46 3.5 68 10.5s41.667 17.667 59 32s31.333 32.166 42 53.499s16.334 46.333 17.001 75v516h22v-516
c0 -32 -6 -59.833 -18 -83.5s-27.667 -43.5 -47 -59.5s-41.5 -28 -66.5 -36s-50.5 -12 -76.5 -12s-51.333 4 -76 12s-46.834 20 -66.501 36s-35.334 35.833 -47.001 59.5s-17.5 51.5 -17.5 83.5v516zM251 751l49 89h31l-59 -89h-21zM363 751l49 89h31l-59 -89h-21z" />
    <glyph glyph-name="uni0171" unicode="&#x171;" horiz-adv-x="615" 
d="M323 -5c-30 0 -58.5 4.83301 -85.5 14.5s-50.5 23.5 -70.5 41.5s-35.833 40.167 -47.5 66.5s-17.5 56.166 -17.5 89.499v300h21v-300c0 -30.667 5.66699 -58 17 -82s26.166 -44 44.499 -60s39.5 -28.167 63.5 -36.5s48.667 -12.5 74 -12.5c30 0 59.167 6 87.5 18
s52.833 30.333 73.5 55v418h21v-507h-22v61c-19.333 -19.333 -42.666 -35.166 -69.999 -47.499s-57 -18.5 -89 -18.5zM223 599l49 89h31l-59 -89h-21zM335 599l49 89h31l-59 -89h-21z" />
    <glyph glyph-name="uni0172" unicode="&#x172;" horiz-adv-x="655" 
d="M120 700l21.999 0.000976562v-516c0.666992 -28.667 6.33398 -53.667 17.001 -75s24.667 -39.166 42 -53.499s37 -25 59 -32s44.333 -10.5 67 -10.5c23.333 0 46 3.5 68 10.5s41.667 17.667 59 32s31.333 32.166 42 53.499s16.334 46.333 17.001 75v516h22v-516
c0 -46.667 -12 -84.5 -36 -113.5s-53.667 -50.167 -89 -63.5c-16 -11.333 -26.667 -24 -32 -38s-6.16602 -27.167 -2.49902 -39.5s11.167 -23 22.5 -32s25.666 -14.167 42.999 -15.5l-7 -21c-18 2 -33.833 7.83301 -47.5 17.5s-23.334 21.167 -29.001 34.5
s-6.66699 27.666 -3 42.999s13.5 30 29.5 44c-9.33301 -2 -18.833 -3.66699 -28.5 -5s-19.5 -2 -29.5 -2c-26 0 -51.333 4 -76 12s-46.667 19.833 -66 35.5s-34.833 35.5 -46.5 59.5s-17.5 52 -17.5 84v516z" />
    <glyph glyph-name="uni0173" unicode="&#x173;" horiz-adv-x="615" 
d="M323 -5c-30 0 -58.5 4.83398 -85.5 14.501s-50.5 23.5 -70.5 41.5s-35.833 40.167 -47.5 66.5s-17.5 56.166 -17.5 89.499v300h21v-300c0 -30.667 5.66699 -58 17 -82s26.166 -44 44.499 -60s39.5 -28.167 63.5 -36.5s48.667 -12.5 74 -12.5c30 0 59.167 6 87.5 18
s52.833 30.333 73.5 55v418h21v-507c-29.333 -24 -40.5 -46.333 -33.5 -67s27.833 -36.667 62.5 -48l-8 -17c-18 2.66699 -33.5 8.5 -46.5 17.5s-22 19.667 -27 32s-5.33301 25.666 -1 39.999s14.833 28.5 31.5 42.5v61c-19.333 -19.333 -42.666 -35.166 -69.999 -47.499
s-57 -18.5 -89 -18.5z" />
    <glyph glyph-name="uni0174" unicode="&#x174;" horiz-adv-x="949" 
d="M287 11h-2l-197 689h-22l201 -701h37l174 560l174 -560h37l201 701h-22l-197 -689h-2l-174 563h-34zM550 748h23l-82 96h-26l-82 -96h23l72 79z" />
    <glyph glyph-name="uni0175" unicode="&#x175;" horiz-adv-x="716" 
d="M218 11h-2l-143 496h-21l146 -509h39l121 492h2l121 -492h39l146 509h-21l-143 -496h-2l-125 497h-32zM433 594h23l-82 96h-26l-82 -96h23l72 79z" />
    <glyph glyph-name="uni0176" unicode="&#x176;" horiz-adv-x="568" 
d="M531 700h-24l-222 -397l-221 397h-25l235 -417v-283h21v283zM362 747h23l-82 96h-26l-82 -96h23l72 79z" />
    <glyph glyph-name="uni0177" unicode="&#x177;" horiz-adv-x="502" 
d="M108 -201v18.002c14 0 25.5 1 34.5 3s16.667 5.16699 23 9.5s11.833 10.166 16.5 17.499s9.66699 16.666 15 27.999l48 122l-104 255l-104 255h23l196 -484l188 484h22l-249 -637c-10.667 -30.667 -24.167 -50.167 -40.5 -58.5s-37.5 -12.5 -63.5 -12.5h-5zM331 594.002
l-72 79l-72 -79h-23l82 96h26l82 -96h-23z" />
    <glyph glyph-name="uni0178" unicode="&#x178;" horiz-adv-x="567" 
d="M531 700h-24l-222 -397l-221 397h-25l235 -416v-284h21v283zM218 777v37h-34v-37h34zM391 777v37h-34v-37h34z" />
    <glyph glyph-name="uni0179" unicode="&#x179;" horiz-adv-x="568" 
d="M476 679l-411 -659v-20h442v21h-417l412 660v19h-401v-21h375zM377 856h-30l-57 -99h21z" />
    <glyph glyph-name="uni017A" unicode="&#x17a;" horiz-adv-x="455" 
d="M361 487l-298 -464v-23h332v21h-310l300 465v21h-307v-20h283zM302 681h-30l-57 -99h21z" />
    <glyph glyph-name="uni017B" unicode="&#x17b;" horiz-adv-x="568" 
d="M476 679l-411 -659v-20h442v21h-417l412 660v19h-401v-21h375zM294 773h29v35h-29v-35z" />
    <glyph glyph-name="uni017C" unicode="&#x17c;" horiz-adv-x="455" 
d="M361 487l-298 -464v-23h332v21h-310l300 465v21h-307v-20h283zM228 628h29v35h-29v-35z" />
    <glyph glyph-name="uni017D" unicode="&#x17d;" horiz-adv-x="562" 
d="M470 679l-411 -659v-20h442v21h-417l412 660v19h-401v-21h375zM232 872h-23l82 -96h26l82 96h-23l-72 -79z" />
    <glyph glyph-name="uni017E" unicode="&#x17e;" horiz-adv-x="457" 
d="M361 487l-298 -464v-23h332v21h-310l300 465v21h-307v-20h283zM174 721h-23l82 -96h26l82 96h-23l-72 -79z" />
    <glyph glyph-name="uni017F" unicode="&#x17f;" horiz-adv-x="250" 
d="M255 701v-19.999c-38 -0.666992 -66 -9 -84 -25s-27 -43.667 -27 -83v-573h-21v486h-56v21h56v66c0 25.333 3.33301 46.166 10 62.499s16 29.333 28 39s26 16.5 42 20.5s33.333 6 52 6z" />
    <glyph glyph-name="uni0192" unicode="&#x192;" horiz-adv-x="491" 
d="M462 700l-0.00292969 -15.999c-44 0.666992 -75.667 -11.833 -95 -37.5s-33.333 -63.834 -42 -114.501l-12 -65h113l-4 -17h-112l-95 -494c-4 -20 -9.83301 -39.333 -17.5 -58s-18 -35 -31 -49s-29.167 -25.167 -48.5 -33.5s-42.666 -12.5 -69.999 -12.5h-18l3 19h17
c22.667 0 42.167 3.5 58.5 10.5s30.333 16.833 42 29.5s20.834 27.167 27.501 43.5s12 34.166 16 53.499l95 491h-95l4 17h94l12 64c4 25.333 9.33301 48.333 16 69s15.834 38.334 27.501 53.001s26.667 26.167 45 34.5s41.5 12.5 69.5 12.5z" />
    <glyph glyph-name="uni0218" unicode="&#x218;" 
d="M125 545c-0.666992 -27.333 4.16211 -50.4961 14.4951 -69.4961s23.5 -34.667 39.5 -47s33.333 -22.333 52 -30s36 -13.834 52 -18.501c22 -6.66699 44.333 -15.667 67 -27s43 -25.666 61 -42.999s32.333 -38.5 43 -63.5s15 -54.167 13 -87.5
c-1.33301 -29.333 -8.16602 -54.5 -20.499 -75.5s-28 -38.167 -47 -51.5s-40 -23.166 -63 -29.499s-45.5 -9.5 -67.5 -9.5c-39.333 0 -76.166 9.5 -110.499 28.5s-61.166 48.167 -80.499 87.5l19 11c18 -36 42.5 -62.333 73.5 -79s63.833 -25.334 98.5 -26.001
c50 -0.666992 91.167 11.833 123.5 37.5s49.833 61.834 52.5 108.501c1.33301 31.333 -3.16699 58.166 -13.5 80.499s-23.833 41.5 -40.5 57.5s-35.167 29 -55.5 39s-40.166 17.667 -59.499 23c-20 5.33301 -40.333 12.666 -61 21.999s-39.5 21.166 -56.5 35.499
s-30.667 31.833 -41 52.5s-15.166 45.334 -14.499 74.001c1.33301 27.333 7.16602 51.166 17.499 71.499s23.833 37.166 40.5 50.499s35.5 23.333 56.5 30s42.5 10 64.5 10c34 0 65 -7 93 -21s51.667 -37 71 -69l-19 -9c-18.667 28.667 -39.5 48.834 -62.5 60.501
s-51.5 17.5 -85.5 17.5c-18.667 0 -37 -2.66699 -55 -8s-34 -13.833 -48 -25.5s-25.667 -26.334 -35 -44.001s-14.666 -38.834 -15.999 -63.501zM259.996 -52.9961l25 -0.00292969c4.66699 -19.333 5.66699 -37.666 3 -54.999s-8.66699 -35.666 -18 -54.999h-15
c6 18.667 9.66699 36.834 11 54.501s-0.666992 36.167 -6 55.5z" />
    <glyph glyph-name="uni0219" unicode="&#x219;" horiz-adv-x="439" 
d="M223 269c19.333 -4 37.832 -9.66602 55.499 -16.999s33.167 -16.5 46.5 -27.5s23.833 -24.333 31.5 -40s11.5 -33.5 11.5 -53.5c0 -22.667 -4.33301 -42.667 -13 -60s-20.167 -31.833 -34.5 -43.5s-30.666 -20.334 -48.999 -26.001s-37.166 -8.5 -56.499 -8.5
c-28 0 -55 5.16699 -81 15.5s-47.667 26.833 -65 49.5c5.33301 5.33301 9 9.33301 11 12l2 2c18.667 -22.667 39.667 -38.167 63 -46.5s46.666 -12.5 69.999 -12.5c16.667 0 32.834 2.33301 48.501 7s29.667 12 42 22s22.333 22.333 30 37s11.5 32 11.5 52
c0 18.667 -4 35 -12 49s-18 25.667 -30 35s-25.667 16.833 -41 22.5s-30.666 9.83398 -45.999 12.501c-17.333 2.66699 -34 7.66699 -50 15s-30 16.5 -42 27.5s-21.667 24 -29 39s-11 31.5 -11 49.5c0 21.333 4 40.166 12 56.499s18.833 30 32.5 41s29.334 19.5 47.001 25.5
s36.167 9 55.5 9c22 0 41.667 -2.83301 59 -8.5s34.666 -15.834 51.999 -30.501l-10 -14c-17.333 12.667 -32.833 21.5 -46.5 26.5s-31.167 7.5 -52.5 7.5c-16.667 0 -32.834 -2.5 -48.501 -7.5s-29.334 -12.167 -41.001 -21.5s-21 -21.166 -28 -35.499
s-10.5 -30.833 -10.5 -49.5s3.66699 -34.5 11 -47.5s16.666 -23.833 27.999 -32.5s23.833 -15.5 37.5 -20.5s26.834 -8.5 39.501 -10.5zM203.999 -52.999h22.0029c2.66699 -15.333 3.16699 -33.5 1.5 -54.5s-6.83398 -38.167 -15.501 -51.5h-13
c7.33301 18 11.166 35.5 11.499 52.5s-1.83398 34.833 -6.50098 53.5z" />
    <glyph glyph-name="uni021A" unicode="&#x21a;" horiz-adv-x="440" 
d="M19 700h401v-21h-189v-679h-22v679h-190v21zM207 -42l24.999 -0.000976562c4.66699 -21.333 5.66699 -41.166 3 -59.499s-9 -37.5 -19 -57.5h-17c7.33301 20 11.833 39.5 13.5 58.5s-0.166016 38.5 -5.49902 58.5z" />
    <glyph glyph-name="uni021B" unicode="&#x21b;" horiz-adv-x="313" 
d="M244 17v-18c-42.667 0 -74.667 9.66699 -96 29s-32 51 -32 95v365h-59v19h59v193h21v-193h104v-19h-104v-365c0 -34 7.66699 -60.167 23 -78.5s43.333 -27.5 84 -27.5zM171 -61h25.001c6.66699 -38 1.66699 -76.333 -15 -115h-17c7.33301 20.667 11.666 40 12.999 58
s-0.666992 37 -6 57z" />
    <glyph glyph-name="uni02C6" unicode="&#x2c6;" horiz-adv-x="509" 
d="M326 752h23l-82 96h-26l-82 -96h23l72 79z" />
    <glyph glyph-name="uni02C7" unicode="&#x2c7;" horiz-adv-x="509" 
d="M182 858h-23l82 -96h26l82 96h-23l-72 -79z" />
    <glyph glyph-name="uni02D8" unicode="&#x2d8;" horiz-adv-x="509" 
d="M149 847h16.999c0.666992 -23.333 9.33398 -40.833 26.001 -52.5s35 -17.5 55 -17.5c20.667 0 39.5 5.83301 56.5 17.5s26.167 29.167 27.5 52.5h17c-2 -28.667 -13.167 -50.334 -33.5 -65.001s-42.5 -22 -66.5 -22c-24.667 0 -47 7.33301 -67 22
s-30.667 36.334 -32 65.001z" />
    <glyph glyph-name="uni02D9" unicode="&#x2d9;" horiz-adv-x="510" 
d="M236 767h36v39h-36v-39z" />
    <glyph glyph-name="uni02DA" unicode="&#x2da;" horiz-adv-x="510" 
d="M256 859c18.667 0.666992 32.665 -4.66602 41.998 -15.999s14 -23.833 14 -37.5s-4.66699 -26.167 -14 -37.5s-23.333 -17 -42 -17c-19.333 0 -33.666 5.66699 -42.999 17s-14 23.833 -14 37.5s4.83301 26.167 14.5 37.5s23.834 16.666 42.501 15.999zM255.998 842
c-13.333 0 -23.333 -3.83301 -30 -11.5s-10 -16.167 -10 -25.5s3.33301 -18 10 -26s16.667 -12 30 -12s23.333 4 30 12s10 16.667 10 26s-3.33301 17.833 -10 25.5s-16.667 11.5 -30 11.5z" />
    <glyph glyph-name="uni02DB" unicode="&#x2db;" horiz-adv-x="509" 
d="M182 -99v0.999023c-2.66699 13.333 -1.16699 25.833 4.5 37.5s13 22 22 31s18.667 16.833 29 23.5s19.166 12 26.499 16l32 -2c-8 -4.66699 -16.833 -10.334 -26.5 -17.001s-18.667 -14 -27 -22s-15.166 -16.5 -20.499 -25.5s-8 -17.833 -8 -26.5
c0 -10.667 2.83301 -19.5 8.5 -26.5s12.5 -12.667 20.5 -17s16.333 -7.33301 25 -9s16.334 -2.5 23.001 -2.5l-8 -21c-10 0 -20.667 0.833008 -32 2.5s-21.833 4.83398 -31.5 9.50098s-17.834 10.834 -24.501 18.501s-11 17.5 -13 29.5z" />
    <glyph glyph-name="uni02DC" unicode="&#x2dc;" horiz-adv-x="465" 
d="M320 820l10.9971 -7.99902c-8 -13.333 -16.667 -23 -26 -29s-19.666 -9 -30.999 -9c-8 0 -16 2 -24 6s-15.833 8.16699 -23.5 12.5l-23 12.5c-7.66699 4 -15.167 6 -22.5 6s-14.666 -1.33301 -21.999 -4s-14.666 -9.66699 -21.999 -21l-12 7
c7.33301 16 16.666 26.167 27.999 30.5s21 6.5 29 6.5s16 -2 24 -6s15.833 -8.16699 23.5 -12.5l23 -12.5c7.66699 -4 15.5 -6 23.5 -6c6.66699 0 13.834 1.66699 21.501 5s15.167 10.666 22.5 21.999z" />
    <glyph glyph-name="uni02DD" unicode="&#x2dd;" horiz-adv-x="406" 
d="M118 750h26l59 89h-36zM230 750h26l59 89h-36z" />
    <glyph glyph-name="uni0384" unicode="&#x384;" horiz-adv-x="485" 
d="M291 851h-30l-57 -99h21z" />
    <glyph glyph-name="uni0385" unicode="&#x385;" horiz-adv-x="509" 
d="M280 750h-30l-57 -99h21zM129 712v37h34v-37h-34zM327 712v37h34v-37h-34z" />
    <glyph glyph-name="uni0386" unicode="&#x386;" horiz-adv-x="631" 
d="M42 0h24l88 248h323l91 -248h24l-256 703h-40zM93 702h-30l-57 -99h21zM322 684l149 -415h-309l148 415h12z" />
    <glyph glyph-name="uni0388" unicode="&#x388;" horiz-adv-x="527" 
d="M41 702h-30l-57 -99h21zM452 681h-320v-320h316v-20h-317v-322h321v-19h-343v700h343v-19z" />
    <glyph glyph-name="uni0389" unicode="&#x389;" horiz-adv-x="675" 
d="M45 702h-30l-57 -99h21zM529 339h-385v-339h-22v700h22v-340h385v340h22v-700h-22v339z" />
    <glyph glyph-name="uni038A" unicode="&#x38a;" horiz-adv-x="281" 
d="M46 702h-30l-57 -99h21zM130 700h22v-700h-22v700z" />
    <glyph glyph-name="uni038C" unicode="&#x38c;" horiz-adv-x="849" 
d="M423 711c52 -0.666992 99.833 -10.333 143.5 -29s81 -44.167 112 -76.5s55.167 -70.333 72.5 -114s26 -91.167 26 -142.5c0 -61.333 -10.667 -114.666 -32 -159.999s-49 -82.833 -83 -112.5s-72 -51.834 -114 -66.501s-83.667 -22 -125 -22s-83 7.33301 -125 22
s-79.833 36.834 -113.5 66.501s-61 67.167 -82 112.5s-31.5 98.666 -31.5 159.999c0 54.667 9.16699 104.334 27.5 149.001s43.333 82.667 75 114s69 55.666 112 72.999s88.833 26 137.5 26zM423 691.001c-46 0 -89.1641 -8.16895 -129.497 -24.502
s-75.333 -39.333 -105 -69s-53 -65.5 -70 -107.5s-25.5 -89 -25.5 -141c0 -57.333 9.83301 -107.333 29.5 -150s45.167 -78.167 76.5 -106.5s66.666 -49.5 105.999 -63.5s78.666 -21 117.999 -21s78.666 6.83301 117.999 20.5s74.833 34.667 106.5 63
s57.5 63.833 77.5 106.5s30 93 30 151c0 48 -8 92.833 -24 134.5s-38.667 77.834 -68 108.501s-64.333 54.834 -105 72.501s-85.667 26.5 -135 26.5zM65.0029 701.999l-66 -99h-21l57 99h30z" />
    <glyph glyph-name="uni038E" unicode="&#x38e;" horiz-adv-x="567" 
d="M11 702h-30l-57 -99h21zM295 283v-283h-21v284l-235 416h25l221 -397l222 397h24z" />
    <glyph glyph-name="uni038F" unicode="&#x38f;" horiz-adv-x="849" 
d="M423 691c-49.333 0 -94.333 -8.49902 -135 -25.499s-75.667 -40.333 -105 -70s-52 -65 -68 -106s-24 -85.5 -24 -133.5c0 -46 6.66699 -87.667 20 -125s31.166 -69.833 53.499 -97.5s48 -50.667 77 -69s59.167 -31.833 90.5 -40.5l-7 -24h-279v19h247
c-28.667 9.33301 -56.5 23.666 -83.5 42.999s-51 43.166 -72 71.499s-37.667 61.166 -50 98.499s-18.5 78.666 -18.5 123.999c0 51.333 8.66699 98.666 26 141.999s41.5 80.666 72.5 111.999s68.333 56 112 74s91.5 27 143.5 27s99.667 -9 143 -27s80.5 -42.833 111.5 -74.5
s55.167 -69.167 72.5 -112.5s26 -90.333 26 -141c0 -45.333 -6.16699 -86.666 -18.5 -123.999s-29 -70.166 -50 -98.499s-44.833 -52.166 -71.5 -71.499s-54.667 -33.666 -84 -42.999h247v-19h-279l-7 24c31.333 8.66699 61.5 22.334 90.5 41.001s54.667 42 77 70
s40.166 60.5 53.499 97.5s20 78.167 20 123.5c0 48 -8 92.333 -24 133s-38.667 76 -68 106s-64.166 53.5 -104.499 70.5s-85.166 25.5 -134.499 25.5zM64 702.001l-66 -99h-21l57 99h30z" />
    <glyph glyph-name="uni0390" unicode="&#x390;" horiz-adv-x="245" 
d="M180 693l-66 -99h-21l57 99h30zM201 -1c-14 0 -26.666 1 -37.999 3s-21 6.33301 -29 13s-14.167 16.5 -18.5 29.5s-6.5 30.5 -6.5 52.5v410h22v-410c0 -16.667 1.16699 -30.167 3.5 -40.5s6.16602 -18.333 11.499 -24s12.5 -9.5 21.5 -11.5s20.167 -3 33.5 -3v-19z
M19.001 656v37h34v-37h-34zM220.001 656v37h34v-37h-34z" />
    <glyph glyph-name="uni0391" unicode="&#x391;" horiz-adv-x="631" 
d="M42 0h24l88 248h323l91 -248h24l-256 703h-40zM322 684l149 -415h-309l148 415h12z" />
    <glyph glyph-name="uni0392" unicode="&#x392;" horiz-adv-x="609" 
d="M491 531c0 -10 -1.66699 -22.667 -5 -38s-9.5 -30.833 -18.5 -46.5s-21.333 -30.334 -37 -44.001s-36.167 -23.834 -61.5 -30.501c28 -6.66699 51.833 -17 71.5 -31s35.5 -29.833 47.5 -47.5s20.667 -35.667 26 -54s8 -35.166 8 -50.499
c0 -28.667 -5.33301 -54.667 -16 -78s-25.5 -43.166 -44.5 -59.499s-41.5 -29 -67.5 -38s-54 -13.5 -84 -13.5h-181v700h182c26 0 50 -4.33301 72 -13s41 -20.5 57 -35.5s28.5 -32.833 37.5 -53.5s13.5 -43 13.5 -67zM311 362l-160 0.00195312v-341h160
c31.333 0 58.833 4.66699 82.5 14s43.5 21.833 59.5 37.5s28 33.667 36 54s12 41.166 12 62.499c0 19.333 -4 39.166 -12 59.499s-20 38.833 -36 55.5s-35.833 30.5 -59.5 41.5s-51.167 16.5 -82.5 16.5zM151 382.002l160 -0.000976562c26.667 0 49.834 4.66699 69.501 14
s36.167 21.166 49.5 35.499s23.333 30.333 30 48s10 34.834 10 51.501s-3.33301 33.834 -10 51.501s-16.667 33.667 -30 48s-29.833 26 -49.5 35s-42.834 13.5 -69.501 13.5h-160v-297z" />
    <glyph glyph-name="uni0393" unicode="&#x393;" horiz-adv-x="509" 
d="M453 700h-330v-700h21v680h309v20z" />
    <glyph glyph-name="uni0394" unicode="&#x394;" horiz-adv-x="626" 
d="M583 0l-255 702h-36l-250 -702h541zM311 687l242 -668h-482l237 668h3z" />
    <glyph glyph-name="uni0395" unicode="&#x395;" horiz-adv-x="527" 
d="M452 700h-343v-700h343v19h-321v322h317v20h-316v320h320v19z" />
    <glyph glyph-name="uni0396" unicode="&#x396;" horiz-adv-x="568" 
d="M476 679l-411 -659v-20h442v21h-417l412 660v19h-401v-21h375z" />
    <glyph glyph-name="uni0397" unicode="&#x397;" horiz-adv-x="675" 
d="M529 0h22v700h-22v-340h-385v340h-22v-700h22v339h385v-339z" />
    <glyph glyph-name="uni0398" unicode="&#x398;" horiz-adv-x="849" 
d="M423 711c52 -0.666992 99.833 -10.333 143.5 -29s81 -44.167 112 -76.5s55.167 -70.333 72.5 -114s26 -91.167 26 -142.5c0 -61.333 -10.667 -114.666 -32 -159.999s-49 -82.833 -83 -112.5s-72 -51.834 -114 -66.501s-83.667 -22 -125 -22s-83 7.33301 -125 22
s-79.833 36.834 -113.5 66.501s-61 67.167 -82 112.5s-31.5 98.666 -31.5 159.999c0 54.667 9.16699 104.334 27.5 149.001s43.333 82.667 75 114s69 55.666 112 72.999s88.833 26 137.5 26zM423 691.001c-46 0 -89.1641 -8.16895 -129.497 -24.502
s-75.333 -39.333 -105 -69s-53 -65.5 -70 -107.5s-25.5 -89 -25.5 -141c0 -57.333 9.83301 -107.333 29.5 -150s45.167 -78.167 76.5 -106.5s66.666 -49.5 105.999 -63.5s78.666 -21 117.999 -21s78.666 6.83301 117.999 20.5s74.833 34.667 106.5 63
s57.5 63.833 77.5 106.5s30 93 30 151c0 48 -8 92.833 -24 134.5s-38.667 77.834 -68 108.501s-64.333 54.834 -105 72.501s-85.667 26.5 -135 26.5zM176.003 339.999v20h500v-20h-500z" />
    <glyph glyph-name="uni0399" unicode="&#x399;" horiz-adv-x="281" 
d="M130 0h22v700h-22v-700z" />
    <glyph glyph-name="uni039A" unicode="&#x39a;" horiz-adv-x="630" 
d="M152 700h-22v-700h22v272l104 106l289 -378h25l-299 393l285 307h-27l-377 -401v401z" />
    <glyph glyph-name="uni039B" unicode="&#x39b;" horiz-adv-x="627" 
d="M311 687l249 -687h23l-255 702h-36l-250 -702h23l243 687h3z" />
    <glyph glyph-name="uni039C" unicode="&#x39c;" horiz-adv-x="831" 
d="M681 685h1v-685h22v700h-40l-256 -566l-256 566h-40v-700h22v685h1l258 -570h30z" />
    <glyph glyph-name="uni039D" unicode="&#x39d;" horiz-adv-x="729" 
d="M579 12l-409 689h-40v-701h22v687h2l408 -688h41v701h-22v-688h-2z" />
    <glyph glyph-name="uni039E" unicode="&#x39e;" horiz-adv-x="550" 
d="M63 22v-22h436v22h-436zM108 341h344v22h-344v-22zM493 678v22h-424v-22h424z" />
    <glyph glyph-name="uni039F" unicode="&#x39f;" horiz-adv-x="849" 
d="M423 711c52 -0.666992 99.833 -10.333 143.5 -29s81 -44.167 112 -76.5s55.167 -70.333 72.5 -114s26 -91.167 26 -142.5c0 -61.333 -10.667 -114.666 -32 -159.999s-49 -82.833 -83 -112.5s-72 -51.834 -114 -66.501s-83.667 -22 -125 -22s-83 7.33301 -125 22
s-79.833 36.834 -113.5 66.501s-61 67.167 -82 112.5s-31.5 98.666 -31.5 159.999c0 54.667 9.16699 104.334 27.5 149.001s43.333 82.667 75 114s69 55.666 112 72.999s88.833 26 137.5 26zM423 691.001c-46 0 -89.1641 -8.16895 -129.497 -24.502
s-75.333 -39.333 -105 -69s-53 -65.5 -70 -107.5s-25.5 -89 -25.5 -141c0 -57.333 9.83301 -107.333 29.5 -150s45.167 -78.167 76.5 -106.5s66.666 -49.5 105.999 -63.5s78.666 -21 117.999 -21s78.666 6.83301 117.999 20.5s74.833 34.667 106.5 63
s57.5 63.833 77.5 106.5s30 93 30 151c0 48 -8 92.833 -24 134.5s-38.667 77.834 -68 108.501s-64.333 54.834 -105 72.501s-85.667 26.5 -135 26.5z" />
    <glyph glyph-name="uni03A0" unicode="&#x3a0;" horiz-adv-x="675" 
d="M551 0h-22v680h-385v-680h-22v700h429v-700z" />
    <glyph glyph-name="uni03A1" unicode="&#x3a1;" horiz-adv-x="583" 
d="M152 286v-286h-22v700h181c46 -0.666992 84.333 -11.334 115 -32.001s53.834 -46.334 69.501 -77.001s23.667 -63.667 24 -99s-7.16699 -68.166 -22.5 -98.499s-38.333 -55.666 -69 -75.999s-69.334 -30.833 -116.001 -31.5h-160zM152 306l158.997 0.00292969
c42.667 0.666992 77.834 10.167 105.501 28.5s48.334 41.166 62.001 68.499s20.334 56.666 20.001 87.999s-7.66602 60.666 -21.999 87.999s-35.333 50.5 -63 69.5s-61.834 29.167 -102.501 30.5h-159v-373z" />
    <glyph glyph-name="uni03A3" unicode="&#x3a3;" horiz-adv-x="566" 
d="M311 367l-211 312h397v21h-411l-13 -19l218 -321l-228 -340l16 -20h426v21h-416l222 332v14z" />
    <glyph glyph-name="uni03A4" unicode="&#x3a4;" horiz-adv-x="451" 
d="M25 700v-21h190v-679h22v679h189v21h-401z" />
    <glyph glyph-name="uni03A5" unicode="&#x3a5;" horiz-adv-x="567" 
d="M531 700h-24l-222 -397l-221 397h-25l235 -416v-284h21v283z" />
    <glyph glyph-name="uni03A6" unicode="&#x3a6;" horiz-adv-x="824" 
d="M396 639l-0.000976562 61h22v-61c74 0 135.5 -14.167 184.5 -42.5s85.833 -63.833 110.5 -106.5s37 -88.834 37 -138.501s-12.333 -95.834 -37 -138.501s-61.667 -78.167 -111 -106.5s-110.666 -42.5 -183.999 -42.5v-64h-22v64c-74 0 -135.833 14.167 -185.5 42.5
s-86.834 63.833 -111.501 106.5s-37 88.834 -37 138.501s12.333 95.834 37 138.501s61.834 78.167 111.501 106.5s111.5 42.5 185.5 42.5zM395.999 85l-0.000976562 265.998v111v75.5v57v22.5c-69.333 0 -127.166 -13.167 -173.499 -39.5s-81 -59.166 -104 -98.499
s-34.333 -82 -34 -128s12 -88.667 35 -128s57.667 -72.166 104 -98.499s103.833 -39.5 172.5 -39.5zM417.998 84.998c68.667 0 125.833 13.1689 171.5 39.502s80 59.166 103 98.499s34.5 82 34.5 128s-11.333 88.667 -34 128s-57 72.166 -103 98.499
s-103.333 39.5 -172 39.5v-22.5v-60v-85.5v-98v-266z" />
    <glyph glyph-name="uni03A7" unicode="&#x3a7;" horiz-adv-x="643" 
d="M579 700h-25l-227 -334l-226 335h-24l238 -351l-244 -350h23l233 333l231 -333h24l-243 349z" />
    <glyph glyph-name="uni03A8" unicode="&#x3a8;" horiz-adv-x="782" 
d="M376 174v526h22v-46v-71v-85.5v-91.5v-232c51.333 0 95 7.5 131 22.5s65.5 35 88.5 60s39.833 53.333 50.5 85s16 64.167 16 97.5v261h23v-261c0 -36 -5.83301 -71 -17.5 -105s-30 -64.5 -55 -91.5s-56.833 -48.667 -95.5 -65s-85.667 -24.5 -141 -24.5v-153h-22v153
c-55.333 0 -102.666 8.16699 -141.999 24.5s-71.5 37.833 -96.5 64.5s-43.333 57 -55 91s-17.5 69 -17.5 105v262h23v-261c0 -33.333 5.5 -65.833 16.5 -97.5s28 -60 51 -85s52.667 -45 89 -60s80.166 -22.5 131.499 -22.5z" />
    </font>
</defs>
</svg>
