<svg width="38" height="38" viewBox="0 0 38 38" fill="none" xmlns="http://www.w3.org/2000/svg">
<path d="M26.8621 13.1034C26.6983 12.6121 26.4526 12.2845 26.125 11.9569C25.7974 11.6293 25.4698 11.3836 24.9784 11.2198C24.6509 11.056 24.0776 10.8922 23.0948 10.8922C22.0302 10.8103 21.7026 10.8103 19.0819 10.8103C16.3793 10.8103 16.1336 10.8103 15.0689 10.8922C14.0862 10.9741 13.5948 11.1379 13.1853 11.2198C12.6939 11.3836 12.3664 11.6293 12.0388 11.9569C11.7112 12.2845 11.4655 12.6121 11.3017 13.1034C11.1379 13.431 10.9741 14.0043 10.9741 14.9871C10.8922 16.0517 10.8922 16.3793 10.8922 19C10.8922 21.7026 10.8922 21.9483 10.9741 23.0129C11.056 23.9957 11.2198 24.4871 11.3017 24.8965C11.4655 25.3879 11.7112 25.7155 12.0388 26.0431C12.3664 26.3707 12.6939 26.6164 13.1853 26.7802C13.5129 26.944 14.0862 27.1077 15.0689 27.1077C16.1336 27.1896 16.4612 27.1896 19.0819 27.1896C21.7026 27.1896 22.0302 27.1896 23.0948 27.1077C24.0776 27.0258 24.569 26.8621 24.9784 26.7802C25.4698 26.6164 25.7974 26.3707 26.125 26.0431C26.4526 25.7155 26.6983 25.3879 26.8621 24.8965C27.0259 24.569 27.1896 23.9957 27.1896 23.0129C27.2715 21.9483 27.2715 21.6207 27.2715 19C27.2715 16.2974 27.2715 16.0517 27.1896 14.9871C27.1078 14.0043 26.944 13.5129 26.8621 13.1034ZM19 24.1595C16.1336 24.1595 13.8405 21.8664 13.8405 19C13.8405 16.1336 16.1336 13.8405 19 13.8405C21.8664 13.8405 24.1595 16.1336 24.1595 19C24.1595 21.8664 21.8664 24.1595 19 24.1595ZM24.4052 14.9052C23.75 14.9052 23.1767 14.3319 23.1767 13.6767C23.1767 13.0215 23.75 12.4483 24.4052 12.4483C25.0603 12.4483 25.6336 13.0215 25.6336 13.6767C25.6336 14.3319 25.0603 14.9052 24.4052 14.9052Z" fill="white"/>
<path d="M18.9999 22.3577C20.8543 22.3577 22.3577 20.8544 22.3577 18.9999C22.3577 17.1455 20.8543 15.6422 18.9999 15.6422C17.1455 15.6422 15.6422 17.1455 15.6422 18.9999C15.6422 20.8544 17.1455 22.3577 18.9999 22.3577Z" fill="white"/>
<path d="M19 0C8.51724 0 0 8.51724 0 19C0 29.4828 8.51724 38 19 38C29.4828 38 38 29.4828 38 19C38 8.51724 29.5647 0 19 0ZM28.9914 23.1767C28.9095 24.2414 28.7457 24.9784 28.5 25.6336C28.2543 26.2888 27.9267 26.8621 27.3534 27.4353C26.7802 28.0086 26.2069 28.3362 25.5517 28.5819C24.8966 28.8276 24.1595 28.9914 23.0948 29.0733C22.0302 29.1552 21.7026 29.1552 19 29.1552C16.2974 29.1552 15.9698 29.1552 14.9052 29.0733C13.8405 28.9914 13.1034 28.8276 12.4483 28.5819C11.7931 28.3362 11.2198 28.0086 10.6466 27.4353C10.0733 26.8621 9.74569 26.2888 9.5 25.6336C9.25431 24.9784 9.09052 24.2414 9.00862 23.1767C9.00862 22.1121 9.00862 21.7845 9.00862 19C9.00862 16.2155 9.00862 15.9698 9.09052 14.9052C9.17241 13.8405 9.33621 13.1034 9.5819 12.4483C9.82759 11.7931 10.1552 11.2198 10.7284 10.6466C11.3017 10.0733 11.875 9.74569 12.5302 9.5C13.1853 9.25431 13.9224 9.09052 14.9871 9.00862C16.0517 8.92672 16.3793 8.92672 19.0819 8.92672C21.7845 8.92672 22.1121 8.92672 23.1767 9.00862C24.2414 9.09052 24.9784 9.25431 25.6336 9.5C26.2888 9.74569 26.8621 10.0733 27.4353 10.6466C28.0086 11.2198 28.3362 11.7931 28.5819 12.4483C28.8276 13.1034 28.9914 13.8405 29.0733 14.9052C29.1552 15.9698 29.1552 16.2974 29.1552 19C29.1552 21.7026 29.0733 22.1121 28.9914 23.1767Z" fill="white"/>
</svg>
