<svg width="96" height="91" viewBox="0 0 96 91" fill="none" xmlns="http://www.w3.org/2000/svg">
<g clip-path="url(#clip0)">
<path d="M96 0.329834H0V76.4862H96V0.329834Z" fill="black"/>
<path d="M45.8012 11.5744C35.4295 11.5744 26.0535 16.2596 19.6646 23.6708C19.6646 23.6708 19.6646 23.756 19.5816 23.756C19.4987 23.8412 19.4157 23.9264 19.3327 24.0116C19.0838 24.2671 18.8349 24.6079 18.5859 24.8634C18.503 24.9486 18.503 24.9486 18.42 25.0338C18.1711 25.2894 18.0051 25.6301 17.7562 25.8857C17.7562 25.9709 17.6732 25.9709 17.6732 26.056C17.4243 26.3968 17.1754 26.7375 17.0095 27.0783C16.9265 27.1635 16.9265 27.2486 16.8435 27.2486C16.5946 27.5894 16.4286 27.9301 16.1797 28.2709C16.0967 28.3561 16.0967 28.4413 16.0138 28.4413C15.7649 28.782 15.5989 29.1227 15.433 29.4635C15.433 29.5487 15.35 29.5487 15.35 29.6339C15.184 29.9746 14.9351 30.4005 14.7692 30.7413C14.7692 30.7413 14.7692 30.8265 14.6862 30.8265C14.5203 31.2524 14.2713 31.5931 14.1054 32.0191C13.9394 32.445 13.7735 32.8709 13.6076 33.2117C13.6076 33.2969 13.6076 33.2969 13.5246 33.382C13.3586 33.808 13.1927 34.1487 13.0267 34.5747C13.0267 34.6598 13.0267 34.6598 12.9438 34.745C12.7778 35.171 12.6948 35.5969 12.5289 35.9376C12.5289 36.0228 12.5289 36.0228 12.4459 36.108C12.28 36.5339 12.197 36.9599 12.0311 37.3858C11.2013 40.4525 10.7035 43.6896 10.7035 47.0118V64.9009H18.5859C18.503 60.8972 18.42 56.8934 18.42 52.8897C18.42 50.5045 18.42 48.1192 18.42 45.734V43.9451V43.0081C18.42 42.6673 18.42 42.4118 18.42 42.071C18.503 40.7932 18.6689 39.5154 18.9178 38.3228C19.4987 35.8524 20.4114 33.4672 21.8219 31.3376C23.1495 29.2079 24.8919 27.3338 26.8003 25.8005C27.0492 25.6301 27.2981 25.4597 27.5471 25.2894C27.796 25.119 28.0449 24.9486 28.2938 24.7783C28.7916 24.4375 29.2895 24.0968 29.7873 23.8412C30.783 23.2449 31.7787 22.5634 32.7744 21.9671C33.77 21.3708 34.7657 20.7745 35.8444 20.2634C36.84 19.7523 37.9187 19.156 38.9974 18.6449C38.1676 19.4967 37.2549 20.2634 36.4252 21.1152C35.5125 21.8819 34.6827 22.6486 33.6871 23.4153C32.7744 24.1819 31.8617 24.8634 30.949 25.5449C30.4511 25.8857 30.0362 26.2264 29.5384 26.5672L28.8746 27.0783C28.6257 27.2486 28.4598 27.419 28.2108 27.5894C26.4684 29.0376 25.0579 30.7413 23.8962 32.6154C22.9006 34.3191 22.1538 36.1932 21.656 38.0673C35.9273 36.9599 47.3776 25.7153 49.2031 11.3188C48.2074 11.6596 47.0458 11.5744 45.8012 11.5744Z" fill="#14B950"/>
<path d="M18.8348 11.5752H10.9524V32.0199C12.8608 27.505 15.5159 23.4161 18.8348 20.0086V11.5752Z" fill="white"/>
<path d="M29.7874 40.1118C26.6344 41.134 23.2325 41.7303 19.6646 41.7303H19.5817L42.3993 65.1565H54.1815L29.7874 40.1118Z" fill="white"/>
<path d="M73.1823 16.0903H71.5228V11.6606H63.6404V16.0903H61.9809C53.0198 16.0903 45.8011 23.5015 45.8011 32.7016V44.2017C45.8011 53.4018 53.0198 60.813 61.9809 60.813H63.6404V65.2427H71.5228V60.813H73.1823C82.1434 60.813 89.3621 53.4018 89.3621 44.2017V32.6164C89.3621 23.5015 82.0604 16.0903 73.1823 16.0903ZM61.9809 53.1463C57.1685 53.1463 53.1858 49.0573 53.1858 44.1165V32.6164C53.1858 27.6756 57.1685 23.5867 61.9809 23.5867H63.6404V53.1463H61.9809ZM81.9775 44.2017C81.9775 49.1425 77.9947 53.1463 73.1823 53.1463H71.5228V23.6719H73.1823C77.9947 23.6719 81.9775 27.7608 81.9775 32.7016V44.2017Z" fill="white"/>
<path d="M90.6898 15.1522H89.7771V6.71879H81.5627V5.78174H90.6898V15.1522Z" fill="white"/>
<path d="M6.22301 15.1522H5.3103V5.78174H14.4374V6.71879H6.22301V15.1522Z" fill="white"/>
<path d="M14.4374 71.0343H5.3103V61.6638H6.22301V70.0972H14.4374V71.0343Z" fill="white"/>
<path d="M90.6898 71.0343H81.5627V70.0972H89.7771V61.6638H90.6898V71.0343Z" fill="white"/>
<path d="M0 90.542V80.49H1.99136V84.4937L5.64218 80.49H8.13138L3.98271 85.1752L8.87813 90.6271H6.30596L2.07433 85.9419V90.6271H0V90.542Z" fill="white"/>
<path d="M10.0398 90.542V80.49H12.0312V87.1345L16.8436 80.49H18.586V90.6271H16.5947V83.9826L11.7822 90.6271H10.0398V90.542Z" fill="white"/>
<path d="M20.8263 90.542V80.49H22.8177V84.3234H27.2982V80.49H29.2896V90.6271H27.2982V86.1975H22.8177V90.6271H20.8263V90.542Z" fill="white"/>
<path d="M32.5255 81.7682C33.5212 80.746 34.7658 80.2349 36.1763 80.2349C37.6698 80.2349 38.8315 80.746 39.8271 81.7682C40.8228 82.7904 41.3207 84.0682 41.3207 85.5164C41.3207 86.9646 40.8228 88.2424 39.8271 89.2646C38.8315 90.2868 37.6698 90.7979 36.1763 90.7979C34.6828 90.7979 33.5212 90.2868 32.5255 89.2646C31.5298 88.2424 31.032 86.9646 31.032 85.5164C31.032 84.0682 31.5298 82.7904 32.5255 81.7682ZM36.1763 88.8387C37.089 88.8387 37.7528 88.4979 38.3336 87.9016C38.9144 87.3053 39.2463 86.4534 39.2463 85.5164C39.2463 84.5793 38.9144 83.7275 38.3336 83.1312C37.7528 82.5349 37.0061 82.1941 36.1763 82.1941C35.2636 82.1941 34.5998 82.5349 34.019 83.1312C33.4382 83.7275 33.1893 84.5793 33.1893 85.5164C33.1893 86.4534 33.4382 87.3053 34.019 87.9016C34.5998 88.4979 35.2636 88.8387 36.1763 88.8387Z" fill="white"/>
<path d="M47.5437 90.9678V89.8604C44.3077 89.7752 42.8142 87.6455 42.8142 85.4307C42.8142 84.2381 43.2291 83.2159 44.0588 82.364C44.8885 81.5121 46.0502 81.0862 47.5437 81.001V80.064H49.618V81.001C51.1115 81.0862 52.2732 81.5121 53.1029 82.364C53.9326 83.2159 54.3475 84.2381 54.3475 85.4307C54.3475 87.6455 52.771 89.7752 49.618 89.8604V90.9678H47.5437ZM47.5437 82.8751C45.8012 82.8751 44.8885 83.8973 44.8885 85.4307C44.8885 86.964 45.8842 87.9011 47.5437 87.9863V82.8751ZM49.618 87.9863C51.3605 87.9011 52.2732 86.964 52.2732 85.4307C52.2732 83.8973 51.2775 82.8751 49.618 82.8751V87.9863Z" fill="white"/>
<path d="M56.007 90.5419V80.49H63.2256V82.3641H57.9983V84.3234H62.2299V86.1975H57.9983V88.8382H63.3916V90.7123H56.007V90.5419Z" fill="white"/>
<path d="M65.2169 90.542V80.49H69.5315C70.6102 80.49 71.4399 80.7455 72.0207 81.3419C72.6015 81.9382 72.9334 82.6196 72.9334 83.5567C72.9334 84.4937 72.6015 85.1752 72.0207 85.7715C71.4399 86.3678 70.5272 86.6234 69.5315 86.6234H67.2083V90.6271H65.2169V90.542ZM67.2913 84.8345H69.4486C70.4442 84.8345 71.0251 84.4085 71.0251 83.5567C71.0251 82.7048 70.4442 82.2789 69.4486 82.2789H67.2913V84.8345Z" fill="white"/>
<path d="M74.51 90.542V80.49H76.5014L79.4054 84.6641L82.3095 80.49H84.3008V90.6271H82.3095V83.7271L80.0692 86.9641H78.9076L76.5843 83.7271V90.6271H74.51V90.542Z" fill="white"/>
<path d="M85.6283 90.5426L89.8599 80.3203H91.7683L95.9999 90.5426H93.8426L92.847 88.1574H88.6983L87.7026 90.5426H85.6283ZM89.3621 86.5389H92.2662L90.8556 83.0463L89.3621 86.5389Z" fill="white"/>
</g>
<defs>
<clipPath id="clip0">
<rect width="96" height="90.638" fill="white" transform="translate(0 0.329834)"/>
</clipPath>
</defs>
</svg>
