<svg width="119" height="110" viewBox="0 0 119 110" fill="none" xmlns="http://www.w3.org/2000/svg">
<g clip-path="url(#clip0)">
<path d="M118.682 91.7078L118.682 0.0078125L-0.0180511 0.0078125L-0.0180511 91.7078L118.682 91.7078Z" fill="white"/>
<path d="M56.6 13.6001C43.7 13.6001 32.2 19.2001 24.3 28.2001C24.3 28.2001 24.3 28.3001 24.2 28.3001C24.1 28.4001 24 28.5001 23.9 28.6001C23.6 28.9001 23.3 29.3001 23 29.7001C22.9 29.8001 22.9 29.9001 22.8 29.9001C22.5 30.2001 22.3 30.6001 22 31.0001C22 31.1001 21.9 31.1001 21.9 31.2001C21.6 31.6001 21.3 32.0001 21 32.4001C20.9 32.5001 20.9 32.6001 20.8 32.6001C20.5 33.0001 20.3 33.4001 20 33.8001C20.1 33.8001 20 33.9001 20 34.0001C19.7 34.4001 19.5 34.8001 19.2 35.3001C19.2 35.4001 19.1 35.4001 19.1 35.5001C18.8 35.9001 18.6 36.4001 18.4 36.9001C18.4 36.9001 18.4 37.0001 18.3 37.0001C18.1 37.5001 17.8 38.0001 17.6 38.5001C17.4 39.0001 17.2 39.5001 16.9 40.0001C16.9 40.1001 16.9 40.1001 16.8 40.2001C16.6 40.7001 16.4 41.2001 16.2 41.7001C16.2 41.8001 16.2 41.8001 16.1 41.9001C15.9 42.4001 15.7 42.9001 15.6 43.4001C15.6 43.5001 15.6 43.5001 15.5 43.6001C15.3 44.1001 15.2 44.6001 15 45.1001C14 48.8001 13.4 52.7001 13.4 56.7001V78.2001H23.1C23 73.4001 22.9 68.6001 22.9 63.8001C22.9 60.9001 22.9 58.1001 22.9 55.2001V53.0001V51.9001C22.9 51.5001 22.9 51.1001 22.9 50.8001C23 49.3001 23.2 47.8001 23.5 46.3001C24.2 43.3001 25.4 40.5001 27.1 37.9001C28.8 35.4001 30.9 33.1001 33.3 31.3001C33.6 31.1001 33.9 30.9001 34.2 30.6001C34.5 30.4001 34.8 30.2001 35.1 30.0001C35.7 29.6001 36.3 29.2001 36.9 28.8001C38.1 28.0001 39.3 27.3001 40.6 26.6001C41.8 25.9001 43.1 25.2001 44.4 24.5001C45.7 23.8001 47 23.2001 48.3 22.6001C47.3 23.6001 46.2 24.6001 45.1 25.5001C44 26.4001 42.9 27.4001 41.8 28.2001C40.7 29.1001 39.5 30.0001 38.4 30.8001C37.8 31.2001 37.2 31.6001 36.7 32.1001L36 32.7001C35.7 32.9001 35.5 33.1001 35.2 33.3001C33.1 35.0001 31.3 37.1001 29.9 39.4001C28.7 41.4001 27.7 43.7001 27.1 46.0001C44.7 44.7001 58.9 31.1001 61.1 13.8001C59.6 13.6001 58.1 13.6001 56.6 13.6001Z" fill="#14B950"/>
<path d="M23.3 13.6001H13.6V38.3001C15.9 32.9001 19.3 28.0001 23.3 23.8001V13.6001Z" fill="#004B32"/>
<path d="M36.8 47.8999C32.9 49.1999 28.7 49.8999 24.3 49.8999H24.2L52.4 78.0999H67L36.8 47.8999Z" fill="#004B32"/>
<path d="M90.4 18.9H88.3V13.5H78.6V18.9H76.5C65.5 18.9 56.5 27.8 56.5 38.9V52.8C56.5 63.8 65.4 72.8 76.5 72.8H78.6V78.2H88.3V72.8H90.4C101.4 72.8 110.4 63.9 110.4 52.8V38.9C110.4 27.9 101.5 18.9 90.4 18.9ZM76.6 63.6C70.6 63.6 65.7 58.7 65.7 52.7V38.9C65.7 32.9 70.6 28 76.6 28H78.7V63.6H76.6ZM101.3 52.8C101.3 58.8 96.4 63.7 90.4 63.7H88.3V28.1H90.4C96.4 28.1 101.3 33 101.3 39V52.8Z" fill="#004B32"/>
<path d="M112.1 17.9H111V7.7H100.8V6.5H112.1V17.9Z" fill="#004B32"/>
<path d="M7.7 17.9H6.5V6.5H17.9V7.7H7.7V17.9Z" fill="#004B32"/>
<path d="M17.9 85.1998H6.5V73.7998H7.7V83.9998H17.9V85.1998Z" fill="#004B32"/>
<path d="M112.1 85.1998H100.8V83.9998H111V73.7998H112.1V85.1998Z" fill="#004B32"/>
<path d="M0 108.7V96.5H2.5V101.3L7 96.5H10.1L4.9 102.1L11 108.7H7.8L2.5 103V108.6H0V108.7Z" fill="white"/>
<path d="M12.4 108.7V96.5H14.9V104.4L20.8 96.5H23V108.7H20.5V100.7L14.5 108.7H12.4Z" fill="white"/>
<path d="M25.7 108.7V96.5H28.2V101.1H33.7V96.5H36.2V108.7H33.7V103.3H28.2V108.7H25.7Z" fill="white"/>
<path d="M40.2 98.0998C41.4 96.8998 42.9 96.2998 44.7 96.2998C46.5 96.2998 48 96.8998 49.2 98.0998C50.4 99.2998 51 100.8 51 102.6C51 104.4 50.4 105.9 49.2 107.1C48 108.3 46.5 108.9 44.7 108.9C42.9 108.9 41.4 108.3 40.2 107.1C39 105.9 38.4 104.4 38.4 102.6C38.4 100.8 39 99.2998 40.2 98.0998ZM44.7 106.6C45.8 106.6 46.7 106.2 47.4 105.5C48.1 104.8 48.5 103.8 48.5 102.6C48.5 101.4 48.1 100.5 47.4 99.6998C46.7 98.9998 45.8 98.5998 44.7 98.5998C43.6 98.5998 42.7 98.9998 42 99.6998C41.3 100.5 40.9 101.4 40.9 102.6C40.9 103.8 41.2 104.7 42 105.5C42.7 106.2 43.6 106.6 44.7 106.6Z" fill="white"/>
<path d="M58.8 109.1V107.8C54.8 107.7 52.9 105.1 52.9 102.5C52.9 101.1 53.4 99.9 54.4 98.8C55.4 97.8 56.9 97.2 58.8 97.1V96H61.3V97.1C63.2 97.2 64.6 97.7 65.7 98.8C66.7 99.8 67.2 101.1 67.2 102.5C67.2 105.1 65.3 107.7 61.3 107.8V109.1H58.8ZM58.8 99.4C56.7 99.4 55.5 100.6 55.5 102.5C55.5 104.3 56.7 105.5 58.8 105.6V99.4ZM61.3 105.5C63.4 105.4 64.6 104.2 64.6 102.4C64.6 100.6 63.4 99.3 61.3 99.3V105.5Z" fill="white"/>
<path d="M69.2 108.7V96.5H78.2V98.7H71.8V101.1H77V103.3H71.8V106.4H78.4V108.6H69.2V108.7Z" fill="white"/>
<path d="M80.6 108.7V96.5H86C87.3 96.5 88.4 96.8 89.1 97.5C89.9 98.2 90.3 99.1 90.3 100.1C90.3 101.2 89.9 102.1 89.1 102.8C88.3 103.5 87.3 103.8 86 103.8H83.2V108.6H80.6V108.7ZM83.1 101.7H85.7C86.9 101.7 87.6 101.2 87.6 100.2C87.6 99.2 86.9 98.7 85.7 98.7H83.1V101.7Z" fill="white"/>
<path d="M92.1 108.7V96.5H94.6L98.1 101.6L101.6 96.5H104.1V108.7H101.6V100.3L98.8 104.2H97.4L94.5 100.3V108.7H92.1Z" fill="white"/>
<path d="M105.8 108.7L111 96.3999H113.4L118.6 108.7H116L114.8 105.9H109.6L108.4 108.7H105.8ZM110.4 103.8H114L112.2 99.5999L110.4 103.8Z" fill="white"/>
</g>
<defs>
<clipPath id="clip0">
<rect width="118.7" height="109.1" fill="white"/>
</clipPath>
</defs>
</svg>
